<?xml version="1.0" encoding="utf-8"?>
<!-- Generator: Adobe Illustrator 24.3.0, SVG Export Plug-In . SVG Version: 6.00 Build 0)  -->
<svg version="1.1" id="Calque_1" xmlns="http://www.w3.org/2000/svg" xmlns:xlink="http://www.w3.org/1999/xlink" x="0px" y="0px"
	 viewBox="0 0 1000 1000" style="enable-background:new 0 0 1000 1000;" xml:space="preserve">
<style type="text/css">
	.st0{fill:#FFFFFF;stroke:#000000;stroke-width:13;stroke-miterlimit:10;}
</style>
<g>
	<path d="M818.92,645.89c0-6.92,0.01-13.43-0.01-19.94c0-1.27-0.14-2.54-0.16-3.8c-0.15-11.57-0.32-23.14-0.41-34.71
		c-0.07-8.67-0.01-17.33-0.01-26.4c-1.06,0.51-2.17,0.94-3.17,1.53c-15.8,9.38-30.42,20.4-44.73,31.87
		c-3.23,2.59-6.34,5.61-11.59,4.54c-0.32,2.15-0.77,4.04-0.86,5.94c-0.23,5.08-0.23,10.16-0.45,15.24
		c-0.86,19.37-2.43,38.71-2.36,58.14c0.02,5.09-2.26,10.18-3.49,15.27c-0.51,2.1-1.4,4.17-1.52,6.29
		c-0.35,6.3-2.44,12.06-4.99,17.69c-2.48,5.47-6.68,9.31-11.72,12.52c-14.54,9.26-30.44,15.15-47.07,19.18
		c-17.05,4.13-34.26,7.31-51.76,9.17c-21.18,2.25-42.38,1.84-63.59,1.74c-16.87-0.08-33.75-0.67-50.62-1.02
		c-17.6-0.37-35.22-0.33-52.8-1.23c-14.78-0.75-29.49-2.89-44.27-3.85c-9.77-0.64-19.62-0.11-29.42-0.41
		c-33.53-1.01-66.19-6.71-97.4-19.3c-15.91-6.41-29.52-16.24-40.17-29.82c-2.45-3.12-4.5-6.61-6.34-10.13
		c-1.06-2.03-1.72-4.43-1.92-6.72c-0.45-5.01-0.65-10.06-0.67-15.09c-0.07-16.15-0.44-32.26-2.09-48.35
		c-0.73-7.2-0.35-14.51-0.56-21.77c-0.07-2.5-0.42-4.99-0.66-7.8c-5.31,0.42-8.68-2.72-12.25-5.43
		c-8.23-6.26-16.31-12.73-24.68-18.78c-5.87-4.24-12.16-7.91-18.22-11.89c-22.03-14.43-43.31-29.87-63.82-46.41
		c-9.88-7.97-20.2-15.4-30.21-23.22c-2.35-1.83-4.23-4.25-6.63-6.71c5.12-4.29,9.48-8.35,14.23-11.87
		c16.62-12.31,33.22-24.64,50.1-36.58c33.03-23.37,66.24-46.5,99.39-69.71c4.31-3.02,8.6-6.11,13.08-8.85
		c21.42-13.09,41.02-28.69,60.93-43.86c30.32-23.11,61.45-45.08,93.15-66.23c21.14-14.11,41.62-29.12,62.09-44.15
		c4.39-3.22,8.8-6.46,14.26-7.68c1.35-0.3,3.02-0.66,4.17-0.14c4.28,1.9,8.6,3.84,12.53,6.35c5.95,3.81,11.85,7.79,17.3,12.28
		c16.87,13.88,35.39,25.4,53.41,37.6c40.75,27.56,80.39,56.63,119.32,86.68c5.45,4.2,11.37,7.78,17.05,11.69
		c25.12,17.29,50.32,34.46,75.32,51.91c28.27,19.74,56.45,39.61,84.47,59.71c9.56,6.86,18.52,14.58,27.72,21.94
		c1.37,1.1,2.63,2.34,3.86,3.59c1.53,1.56,1.42,4.58-0.64,6.89c-1.8,2.01-3.87,3.84-6.06,5.42c-24.6,17.7-47.44,37.76-72.79,54.44
		c-2.35,1.55-3.26,3.24-3.61,6.08c-1.89,15.76-1.09,31.5-0.41,47.27c0.42,9.61,0.42,19.24,0.56,28.86
		c0.06,4.17,0.01,8.35,0.01,12.82c1.8,0.91,3.51,1.91,5.32,2.65c11.56,4.73,18.11,21.59,16.24,31.82
		c-0.91,4.96-1.06,10.08-1.22,15.14c-0.47,14.87-0.64,29.75-1.19,44.62c-0.27,7.22-1.02,14.43-1.77,21.63
		c-0.21,2.04-1.18,3.99-1.84,6.08c-3.3-1.75-3.3-1.75-6.24-7.41c-0.83,1.09-1.56,1.98-2.22,2.91c-3.09,4.32-5.72,4.79-10.04,1.6
		c-1.74-1.28-3.31-2.79-5.24-4.43c-1.42,0.98-2.82,2.07-4.33,2.98c-3.6,2.18-5.79,1.91-8.72-1.12c-1.99-2.06-3.84-4.25-5.96-6.61
		c-1.35,1.87-2.38,3.57-3.68,5.04c-2.03,2.3-4.07,2.09-5.57-0.61c-0.67-1.2-0.98-2.7-1.06-4.08c-0.12-2.17,0.18-4.35,0.16-6.53
		c-0.21-22.14,1.02-44.22,2.99-66.27c0.47-5.2,0.73-10.43,0.96-15.65c0.32-7.3,4.94-11.9,10.28-15.76c3.18-2.3,6.98-3.74,10.55-5.47
		C816.43,646.58,817.84,646.26,818.92,645.89z M899.6,488.37c-1.57-3.67-5.18-5.04-8.02-7.08c-35.04-25.24-70.38-50.07-105.19-75.62
		c-37.47-27.5-75.94-53.54-114.45-79.52C637.65,303,603.14,280.18,570,255.38c-22.35-16.73-43.75-34.78-68.8-47.6
		c-1.25-0.64-2.51-1.27-4.42-2.24c-13.38,8.8-27.15,17.25-40.25,26.63c-24.35,17.42-47.94,35.9-72.5,53
		c-39.17,27.26-79.01,53.56-118.32,80.61c-25.11,17.27-49.87,35.07-74.65,52.81c-18.88,13.52-37.54,27.37-56.34,41.01
		c-9.25,6.71-18.62,13.26-27.87,19.97c-1.49,1.08-2.67,2.58-4.06,3.94c3.84,4.55,8.34,6.89,12.98,8.96
		c7.01,3.13,13.51,7,19.04,12.41c1.03,1.01,2.22,1.87,3.39,2.72c14.05,10.3,28.17,20.51,42.15,30.91
		c15.56,11.58,30.99,23.32,46.45,35.02c1.58,1.2,2.95,2.68,4.54,3.87c3.53,2.66,7.14,5.21,11.42,8.32c0.12-2.36,0.25-3.57,0.22-4.78
		c-0.34-16.69-0.91-33.39-0.98-50.08c-0.05-11.16,4.77-20.67,13.29-27.48c6.59-5.27,14.17-9.52,21.8-13.21
		c13.25-6.41,27.35-10.7,41.61-14.3c34.59-8.74,69.46-16.08,104.83-21c22.29-3.1,44.68-4.57,67.14-5.01
		c13.24-0.26,26.5,0.16,39.73,0.67c11.21,0.43,22.41,1.37,33.61,2.18c22.1,1.61,43.85,5.45,65.16,11.39
		c18.09,5.05,36.66,8.66,53.93,16.33c13.9,6.17,27.88,12.26,41.26,19.45c9.37,5.04,18.14,11.41,26.5,18.05
		c6.03,4.79,9.88,11.67,9.88,19.74c0,14.34-0.38,28.69-0.64,43.03c-0.05,3-0.27,5.99-0.41,9.06c0.9-0.09,1.31-0.01,1.54-0.18
		c8.47-6.21,16.93-12.43,25.37-18.68c0.72-0.54,1.26-1.31,1.96-1.89c4.15-3.51,8.15-7.24,12.52-10.44
		c20.06-14.68,40.38-29.03,60.31-43.88c9.59-7.15,18.65-14.92,29.89-19.57C894.52,493.79,897.86,492.01,899.6,488.37z
		 M742.51,672.69c0.36-9.53,0.79-18.18,0.97-26.83c0.18-8.54-0.07-17.08,0.16-25.61c0.43-15.95,1.22-31.89,1.59-47.85
		c0.21-9.03,1.31-18.08-0.58-27.1c-0.96-4.59-1.24-9.32-2.27-13.89c-1.37-6.11-4.75-10.86-10.55-13.73
		c-9.58-4.76-18.92-10.02-28.69-14.35c-15.21-6.75-30.14-14.42-46.86-17.11c-3.57-0.57-7.11-1.38-10.66-2.11
		c-10.79-2.2-21.55-4.56-32.38-6.56c-6.03-1.11-12.22-1.36-18.25-2.48c-19.62-3.65-39.36-5.8-59.33-5.73
		c-11.08,0.04-22.17,0.16-33.25-0.03c-20.68-0.35-41.35-0.45-61.92,2.03c-12.37,1.49-24.68,3.45-37.02,5.2
		c-6.44,0.91-12.9,1.74-19.33,2.74c-8.21,1.28-16.61,1.93-24.56,4.17c-25.29,7.12-50.41,14.82-75.58,22.37
		c-6.3,1.89-12.2,4.7-17.29,8.94c-4.22,3.52-8.05,7.39-8.54,13.32c-0.63,7.56-1.76,15.14-1.68,22.7
		c0.14,12.86,1.29,25.71,1.58,38.57c0.38,16.71,0.28,33.42,0.5,50.13c0.09,7.07,0.42,14.13,0.72,21.19c0.07,1.56,0.48,3.1,0.85,5.4
		c2.62-1.69,4.65-3.12,6.79-4.37c5.15-3.02,10.07-6.71,15.59-8.79c13.01-4.91,26.11-9.9,39.55-13.34
		c40.67-10.39,81.62-19.54,123.58-23.06c14.77-1.24,29.58-2.45,44.39-2.86c20.29-0.56,40.61-0.23,60.85,1.78
		c12.24,1.22,24.6,1.72,36.68,3.83c16.19,2.83,32.24,6.57,48.18,10.58c11.72,2.95,23.21,6.88,34.74,10.56
		c3.78,1.21,7.37,2.99,11.05,4.51c18.77,7.72,37.4,15.73,55.13,25.69C738.18,671.43,739.93,671.78,742.51,672.69z M525.57,629.22
		c-11.77,0.41-23.54,0.93-35.31,1.2c-15.21,0.36-30.41,0.51-45.57,2.14c-10.24,1.1-20.55,1.56-30.84,2.23
		c-15.92,1.04-31.5,3.94-47.04,7.57c-18.3,4.27-36.77,7.78-54.8,13.16c-1.21,0.36-2.47,0.6-3.59,1.16c-7.77,3.87-15.42,8-23.3,11.66
		c-7.9,3.66-14.03,9.51-20.2,15.34c-3.26,3.08-3.41,6.16-1.62,10.25c4.35,9.89,12.33,16.14,21.64,20.39
		c16.63,7.6,33.76,13.99,52.02,16.61c11.63,1.67,23.27,3.27,34.94,4.68c5.57,0.67,11.21,0.66,16.79,1.28
		c10.59,1.18,21.13,3.01,31.75,3.82c12.28,0.93,24.62,1.22,36.93,1.46c21.78,0.42,43.57,0.59,65.35,0.86
		c0.73,0.01,1.45,0.07,2.18,0.1c16.84,0.69,33.69,1.46,50.53,2.03c9.07,0.3,18.18-0.09,27.24,0.44c13.88,0.82,27.64,2.7,41.67,1.14
		c13.94-1.56,27.44-4.5,40.64-9.12c6.99-2.45,14.08-4.63,20.98-7.3c5.2-2.01,10.19-4.55,15.22-6.98c1.62-0.78,2.92-2.26,4.58-2.89
		c8.84-3.39,12.26-10.74,14.27-19.14c0.97-4.03,0.09-7.52-1.94-11.36c-2.47-4.67-5.94-7.81-10.32-9.97
		c-13.8-6.81-27.69-13.43-41.64-19.93c-11.35-5.29-23.11-9.27-35.59-11.18c-8.74-1.34-17.41-3.27-26.03-5.27
		c-12.32-2.86-24.49-6.35-36.85-9.01C567.22,630.16,546.5,628.39,525.57,629.22z M839.13,753.82c1.17-19.27,2.36-39.03,3.6-59.58
		c-8.29,5.2-16.6,6.78-25.5,6.34c-6.56-0.33-11.97-2.29-15.76-7.91c-0.82-1.22-1.96-2.22-3.46-3.88
		c-0.78,20.93-1.52,40.88-2.28,61.1c6.15-1.98,6.13-1.96,10.61,2.27c1.56,1.47,3.22,2.82,5,4.36c0.99-0.71,1.86-1.29,2.69-1.93
		c4.61-3.57,7.31-3.38,11.24,0.77c1.2,1.27,2.48,2.45,3.08,3.03C832.09,756.8,835.16,755.5,839.13,753.82z M823.92,654.58
		c-12.08-0.04-17.38,5.45-21.19,11.77c-4.01,6.65,0.02,18.78,6.36,23.44c7.1,5.22,14.75,5.64,22.68,2.66
		c9.77-3.67,14.07-16.71,10.76-23.28C837.87,659.93,831.18,654.3,823.92,654.58z"/>
</g>
</svg>
