<?xml version="1.0" encoding="utf-8"?>
<!-- Generator: Adobe Illustrator 24.3.0, SVG Export Plug-In . SVG Version: 6.00 Build 0)  -->
<svg version="1.1" id="Calque_1" xmlns="http://www.w3.org/2000/svg" xmlns:xlink="http://www.w3.org/1999/xlink" x="0px" y="0px"
	 viewBox="0 0 1000 1000" style="enable-background:new 0 0 1000 1000;" xml:space="preserve">
<style type="text/css">
	.st0{fill:#FFFFFF;stroke:#000000;stroke-width:13;stroke-miterlimit:10;}
</style>
<g>
	<path d="M105.51,842.27c-1.21-2.14-2.29-3.31-2.56-4.65c-2.91-14.2-4.99-28.51-6-42.99c-2.1-30.09-1.66-60.22-1.78-90.35
		c-0.1-23.77,1.29-47.46,3.1-71.14c3.11-40.77,10.57-80.83,20.12-120.51c6.57-27.32,12.92-54.73,20.65-81.73
		c11.5-40.15,26.58-79.04,45-116.56c14.87-30.29,33.2-58.3,56.35-83.02c11.42-12.19,22.56-24.64,34.08-36.73
		c16.11-16.91,34.44-31.02,54.57-42.91c9.4-5.55,19.06-10.36,29.15-14.44c14.09-5.71,27.97-11.94,42.09-17.59
		c19.07-7.63,39.1-11.91,59.17-15.83c10.27-2.01,20.73-3.12,31.15-4.2c13.11-1.36,26.1,0.53,38.86,3.18
		c18.57,3.85,37.06,8.16,55.43,12.89c16.35,4.2,31.71,11.22,47.07,18.13c8.92,4.02,18.07,7.49,26.96,11.58
		c20.99,9.65,39.26,23.4,56.09,38.96c23.22,21.47,44.53,44.81,64.35,69.42c18.53,23.01,32.81,48.72,45.08,75.53
		c14.13,30.86,26.55,62.43,36.1,94.97c7.7,26.24,14.15,52.86,20.59,79.44c4.99,20.6,9.6,41.31,13.48,62.14
		c3.24,17.42,5.61,35.03,7.58,52.65c1.72,15.47,2.81,31.04,3.34,46.59c0.78,23.21,1.12,46.45,1.06,69.68
		c-0.03,11.75-1.35,23.49-2.1,35.24c-0.84,13.19-1.51,26.4-2.59,39.58c-0.74,9.01-2.07,17.97-3.15,26.96
		c-0.42,3.46-1.82,6.48-4.1,9.5c-2.22-2.77-1.38-5.58-1.04-8.1c2.86-21.39,5.28-42.8,5.35-64.44c0.02-6.84,1.51-13.67,2.24-20.51
		c0.39-3.6,0.81-7.21,0.86-10.83c0.12-8.72-0.11-17.45,0.07-26.16c0.37-17.26-0.78-34.42-2.39-51.59c-1.05-11.17-2-22.38-2.3-33.6
		c-0.38-14.37-3.12-28.42-4.71-42.62c-2.52-22.43-8.79-44.02-13.95-65.87c-3.63-15.33-7.67-30.58-10.62-46.03
		c-6.49-33.97-17.77-66.42-29.92-98.65c-8.71-23.11-18.47-45.75-30.01-67.59c-12.59-23.82-27.16-46.32-45.43-66.26
		c-12.75-13.92-25.23-28.1-38.51-41.5c-20.01-20.19-41.66-38.4-67.89-50.21c-11.71-5.27-23.76-9.8-35.59-14.82
		c-16.01-6.81-32.32-12.8-49.27-16.71c-14.96-3.45-29.97-7.1-45.17-8.91c-15.21-1.82-30.59-2.55-46.07-0.8
		c-30.67,3.47-59.86,12.01-88.34,23.48c-3.69,1.49-7.45,2.81-11.22,4.07c-14.65,4.88-28.75,11.16-42.22,18.57
		c-11.09,6.1-21.55,13.41-32.03,20.56c-6.58,4.49-12.83,9.5-18.92,14.64c-2.85,2.41-4.9,5.75-7.43,8.56
		c-4.13,4.58-8.16,9.27-12.58,13.56c-16.07,15.63-29.76,33.2-42.54,51.53c-3.42,4.91-6.63,9.98-10.2,14.77
		c-6.31,8.46-11.93,17.29-16.71,26.72c-4.18,8.25-9.2,16.07-13.38,24.32c-9.5,18.78-16.95,38.44-24.41,58.09
		c-11.36,29.88-18.85,60.92-26.73,91.79c-7.84,30.71-14.47,61.74-21.31,92.7c-1.55,7.03-1.73,14.36-2.59,21.55
		c-1.39,11.5-2.95,22.98-4.21,34.49c-1.08,9.9-1.99,19.83-2.72,29.76c-0.79,10.66-1.34,21.33-1.89,32.01
		c-0.42,8.14-0.87,16.3-0.97,24.45c-0.16,13.43-0.32,26.86,0.03,40.28c0.44,16.85,1.07,33.7,2.25,50.51
		c0.76,10.8,2.65,21.52,3.99,32.28C106.19,839.99,105.92,840.51,105.51,842.27z"/>
	<path d="M122.21,832.76c-0.64-1.13-1.61-2.2-1.87-3.41c-2.88-13.49-4.92-27.1-5.84-40.87c-1.84-27.37-1.69-54.77-1.78-82.18
		c-0.08-24.14,1.06-48.22,2.96-72.27c3.09-38.96,10.03-77.3,19.3-115.22c6.85-28.01,13.4-56.12,21.46-83.78
		c10.57-36.28,24.47-71.4,41.08-105.38c15.09-30.87,34.18-59.01,57.83-84.02c9.11-9.63,18-19.47,27.16-29.05
		c14.22-14.89,29.82-28.05,47.46-38.87c12.58-7.71,25.46-14.54,39.25-19.83c14.38-5.5,28.31-12.21,42.79-17.39
		c19.66-7.03,40.07-11.41,60.7-14.56c8.4-1.28,16.94-2.51,25.39-2.34c9.73,0.19,19.58,1.23,29.12,3.17
		c18.44,3.75,36.78,8.11,55.01,12.8c8.39,2.16,16.54,5.39,24.58,8.68c14.42,5.89,28.74,12.05,42.98,18.36
		c19.45,8.61,36.61,20.81,52.18,35.11c11.48,10.55,22.39,21.75,33.17,33.03c13.17,13.77,26.06,27.84,37.35,43.24
		c14.87,20.28,27.23,42.04,37.62,64.91c16.62,36.56,31.11,73.97,41.06,112.9c8.93,34.96,16.83,70.19,24.68,105.42
		c5.21,23.38,7.92,47.17,10.18,71.02c3.11,32.76,3.4,65.58,2.92,98.42c-0.18,12.12-1.47,24.23-2.29,36.33
		c-1.06,15.54-2.08,31.08-3.3,46.61c-0.41,5.23-1.4,10.41-2.14,15.61c-0.42,2.93-1.8,5.37-4.51,7.54c-0.1-1.69-0.42-3.41-0.25-5.07
		c1.43-13.52,3.07-27.02,4.38-40.55c0.54-5.59,0.27-11.25,0.63-16.87c0.45-7.04,1.2-14.07,1.75-21.11
		c0.52-6.68,1.3-13.37,1.35-20.06c0.1-15.62,0.02-31.25-0.39-46.86c-0.21-8.13-1.35-16.24-1.95-24.37
		c-0.76-10.12-1.26-20.25-2.14-30.36c-0.99-11.37-2.22-22.71-3.43-34.06c-2.48-23.34-8.41-45.98-14.05-68.68
		c-3.71-14.95-7.53-29.89-10.48-45c-8.71-44.63-24.8-86.77-42.6-128.34c-10.67-24.93-23.29-48.9-39.56-70.65
		c-9.55-12.76-20.04-24.87-30.73-36.71c-10.82-11.99-22.06-23.65-33.74-34.8c-20.8-19.84-44.04-36.03-71.38-45.91
		c-13.63-4.92-26.89-10.84-40.44-15.98c-18.04-6.85-37.03-10.03-55.83-13.91c-13.38-2.76-26.89-3.88-40.51-3.94
		c-16.24-0.07-32.12,2.71-47.84,6.46c-18.36,4.38-36.19,10.37-53.78,17.28c-12.65,4.97-25.5,9.41-37.84,15.18
		c-18,8.43-34.76,18.8-49.86,31.76c-5.64,4.83-11.52,9.44-16.72,14.71c-9.93,10.09-19.62,20.42-29.07,30.95
		c-12.89,14.34-23.3,30.57-34.68,46.07c-10.06,13.7-17.42,28.88-25.78,43.52c-11.38,19.94-19,41.52-27.17,62.83
		c-10.34,26.98-17.14,55.05-24.18,82.99c-7.92,31.46-14.68,63.22-21.88,94.87c-0.72,3.17-1,6.44-1.37,9.68
		c-1.91,16.74-3.99,33.46-5.61,50.23c-1.2,12.44-1.92,24.93-2.59,37.42c-0.83,15.57-1.67,31.14-1.96,46.72
		c-0.21,11.05,0.47,22.11,0.76,33.17c0.13,4.9,0.29,9.8,0.47,14.69c0.26,7.25,0.39,14.5,0.86,21.73c0.82,12.79,1.25,25.63,4.2,38.19
		C122.96,832.26,122.58,832.51,122.21,832.76z"/>
	<path d="M135.6,820.29c-0.49-0.98-1.26-1.92-1.41-2.95c-1.93-13.08-4.4-26.13-5.52-39.29c-2.71-31.88-2.27-63.89-1.55-95.82
		c0.51-22.8,2.4-45.63,4.78-68.33c4.71-44.89,16.44-88.4,27.26-132.08c9.86-39.8,23.95-78.05,40.68-115.38
		c11.48-25.61,24.98-50.12,42.7-71.97c10.51-12.95,22.01-25.12,33.41-37.32c8.05-8.62,16.43-16.97,25.13-24.94
		c7.34-6.72,14.9-13.38,23.16-18.88c13.72-9.14,27.66-18.02,43.28-23.89c10.35-3.89,20.43-8.5,30.65-12.73
		c21.74-8.99,44.51-14.35,67.56-18.42c10.5-1.85,21.24-3.38,31.85-3.28c11.53,0.11,23.17,1.62,34.54,3.74
		c15.31,2.85,30.46,6.62,45.56,10.48c7.53,1.92,14.92,4.57,22.15,7.46c15.33,6.12,30.6,12.42,45.74,19
		c19.87,8.63,37.15,21.35,53.09,35.76c20.5,18.52,39.42,38.65,57.17,59.82c18.08,21.57,32.01,45.79,43.86,71.24
		c20.15,43.26,35.91,88.03,46.66,134.54c5.96,25.81,12.41,51.52,17.71,77.46c4.75,23.28,7.22,46.92,9.05,70.64
		c2.03,26.29,2.03,52.6,1.76,78.92c-0.11,10.68-1.21,21.35-1.9,32.02c-0.82,12.66-1.52,25.33-2.6,37.97
		c-0.66,7.75-1.79,15.48-3.03,23.17c-0.4,2.48-1.86,4.8-3.36,7.06c-1.85-2.62-1.12-5.23-0.83-7.81c1.32-11.71,2.91-23.4,3.91-35.13
		c0.78-9.22-0.03-18.64,1.42-27.72c2.8-17.55,2.4-35.13,2.15-52.72c-0.18-12.68-1.24-25.35-2-38.02
		c-0.73-12.12-1.21-24.26-2.49-36.32c-1.64-15.5-3.23-31.07-6.21-46.34c-3.37-17.24-8.43-34.14-12.42-51.26
		c-3.17-13.59-5.74-27.33-8.79-40.95c-1.58-7.08-3.43-14.11-5.49-21.07c-14.58-49.24-32.75-96.96-59.49-141.08
		c-11.07-18.27-24.52-34.67-39.2-50.09c-8.89-9.34-17.67-18.8-26.85-27.84c-22.85-22.49-48.04-41.49-78.77-52.23
		c-12.83-4.48-25.3-10.01-38.07-14.69c-17.26-6.32-35.34-9.49-53.31-13.05c-11.24-2.23-22.58-3.37-34-3.79
		c-19.95-0.74-39.39,2.75-58.64,7.57c-15.51,3.89-30.55,9.12-45.51,14.74c-12.74,4.79-25.58,9.24-37.95,14.95
		c-15.73,7.26-30.42,16.2-43.93,27.02c-6.36,5.1-12.88,10.11-18.57,15.9c-11.94,12.17-24.05,24.28-34.86,37.43
		c-12.55,15.27-24.81,30.98-35.29,47.7c-10.27,16.38-20.45,33.02-27.6,51.22c-6.23,15.88-13.12,31.5-19.14,47.45
		c-3.26,8.63-5.35,17.7-7.87,26.6c-4.07,14.32-8.45,28.56-12,43c-6.8,27.65-13.39,55.37-19.47,83.18
		c-2.16,9.87-2.71,20.1-3.81,30.19c-1.89,17.29-3.88,34.58-5.35,51.92c-0.99,11.74-1.2,23.55-1.7,35.33
		c-0.37,8.52-1.07,17.04-0.9,25.55c0.34,16.86,1.03,33.72,1.86,50.57c0.6,12.13,1.61,24.23,2.57,36.34c0.24,3,1.02,5.95,1.55,8.92
		C136.47,819.94,136.03,820.12,135.6,820.29z"/>
</g>
<path d="M743.57,832.5c0.6,0.15,1.3,0.29,2,0.33c0.64,0.03,1.29,0.03,1.94,0.02c-0.1-0.5,0.72-1.04,2.5-1.06
	c0.12,0,0.21,0.01,0.31,0.01c0.04-0.01,0.08-0.01,0.12-0.02c2.87-0.3,5.93-0.12,8.86-0.18c3.08-0.06,6.16-0.1,9.24-0.11
	c3.21-0.01,6.42-0.02,9.63-0.08c2.22-0.04,4.36-0.14,6.43,0.19c0.43-0.01,0.85-0.01,1.28-0.02c1.71-0.09,3.43-0.19,5.15-0.21
	c0.16-0.03,0.34-0.06,0.51-0.07c0.42-0.19,1.04-0.33,1.91-0.33c0.6-0.18,1.34-0.32,2.27-0.41c1.94-0.19,3.48-0.64,4.68-1.25
	c0.79-0.4,1.43-0.87,2.42-1.19c1.23-0.39,2.91-0.09,4.37-0.2c0.15-0.01,0.3-0.02,0.44-0.03c1.26-0.09,2.2-0.35,2.86-0.75
	c0.42-0.25,0.47-0.52,0.18-0.79c-0.34-0.32-0.9-0.57-1.66-0.75c-2.53-0.61-5.25-0.78-8.12-0.33c-1.11,0.17-2.22,0.37-3.18,0.63
	c-1.95,0.52-3.79,1.1-5.7,1.64c-0.46,0.13-0.98,0.24-1.51,0.32c-0.16,0.02-0.65-0.08-0.67-0.14c-0.07-0.21-0.13-0.44,0.03-0.64
	c0.36-0.43,1.18-0.77,2.02-1.09c1.68-0.65,2.91-1.42,4.08-2.19c0.57-0.38,0.26-0.75-0.75-1c-0.75-0.19-1.55-0.32-2.47-0.35
	c-1.36-0.05-2.7,0-4.01,0.13c-1.3,0.14-2.6,0.28-3.9,0.42c-0.41,0.04-1-0.08-1.05-0.21c-0.08-0.27-0.04-0.56-0.22-0.82
	c-0.61-0.91-2.82-1.51-5.36-1.37c-1.65,0.09-3.24,0.15-4.89,0.07c-0.68-0.03-1.43,0.13-2.15,0.21c-1,0.11-2,0.31-3,0.32
	c-1.8,0.02-3.16,0.26-4.26,0.78c-0.58,0.28-1.54,0.33-2.44,0.38c-3.23,0.18-5.38,0.93-7.18,1.87c-1.28,0.67-0.85,1.96,1.41,2.29
	c0.41,0.06,0.86,0.13,1.15,0.24c0.27,0.11,0.41,0.28,0.49,0.43c0.05,0.1-0.07,0.22-0.15,0.32c-1.26,1.69-0.42,1.52-4.89,2.32
	c-2.84,0.5-5.44,1.18-8.45,1.56C742.7,831.54,742.54,832.24,743.57,832.5z"/>
<path d="M770.36,864.84c0.4,0.22,0.91,0.45,1.53,0.58c0.9,0.19,1.92,0.3,2.9,0.43c2.82,0.37,5.56,0.79,8.39,1.36
	c-1.24,0.25-2.47,0.17-3.56,0.3c-1.33,0.15-2.51,0.37-3.32,0.81c-0.43,0.23-0.97,0.43-1.31,0.68c-1,0.7-1.74,1.42-1.29,2.23
	c0.33,0.58,1.2,1.01,2.7,1.22c0.22,0.03,0.43,0.06,0.65,0.08c0.41-0.06,0.84-0.11,1.27-0.14c0.87-0.06,1.75-0.1,2.63-0.11
	c0.76-0.01,1.56,0.01,2.32,0.06c0.02,0,0.03-0.01,0.05-0.01c1.68-0.37,3.45-0.69,5.12-1.06c2.09-0.47,4.31-0.48,6.53-0.29
	c1.59,0.14,3.12,0.37,4.66,0.58c0.86,0.12,1.53,0.34,2.04,0.62c0.06,0.03,0.11,0.06,0.16,0.09c0.2,0,0.4-0.01,0.6-0.01
	c2.89-0.03,5.76,0.04,8.64,0.08c0.43,0.01,0.86,0.01,1.29,0.01c0.59-0.1,1.08-0.26,1.45-0.49c0.23-0.14,0.47-0.29,0.66-0.44
	c1.24-0.94,3.1-1.46,6.09-1.34c1.99,0.08,3.86-0.13,5.57-0.54c1.13-0.27,2.19-0.62,3.42-0.78c1.53-0.2,2.78,0.31,4.24,0.41
	c0.15,0.01,0.29,0.03,0.44,0.03c1.25,0.08,2.38-0.03,3.39-0.31c0.64-0.18,0.95-0.42,0.95-0.72c0-0.34-0.26-0.66-0.79-0.93
	c-1.74-0.91-4.08-1.44-7.18-1.41c-1.19,0.01-2.42,0.04-3.57,0.16c-2.32,0.23-4.6,0.52-6.91,0.77c-0.56,0.06-1.15,0.1-1.72,0.1
	c-0.17,0-0.52-0.16-0.48-0.22c0.14-0.21,0.32-0.43,0.67-0.59c0.77-0.36,1.86-0.56,2.96-0.75c2.2-0.38,4.1-0.93,5.96-1.5
	c0.9-0.28,0.98-0.66,0.3-1.03c-0.51-0.28-1.11-0.51-1.93-0.67c-1.21-0.23-2.49-0.37-3.85-0.42c-1.34-0.05-2.69-0.09-4.03-0.13
	c-0.42-0.01-0.85-0.21-0.75-0.34c0.2-0.27,0.52-0.53,0.62-0.8c0.34-0.93-1.11-1.79-3.6-2.01c-1.61-0.14-3.14-0.3-4.6-0.59
	c-0.6-0.12-1.45-0.07-2.19-0.1c-1.04-0.03-2.15,0.02-3.09-0.11c-1.69-0.22-3.18-0.19-4.72,0.15c-0.81,0.18-1.76,0.1-2.64,0.03
	c-3.17-0.27-5.9,0.14-8.5,0.78c-1.85,0.45-2.74,1.72-0.98,2.33c0.32,0.11,0.67,0.24,0.82,0.38c0.14,0.14,0.1,0.32,0.02,0.47
	c-0.05,0.1-0.28,0.19-0.46,0.28c-2.85,1.41-1.9,1.37-6.83,1.51c-3.13,0.09-6.21,0.37-9.37,0.32
	C770.5,863.83,769.67,864.46,770.36,864.84z"/>
<path d="M497.71,833.04c-0.46,0.06-0.95,0.11-1.43,0.13c2.08-0.04,4.17-0.06,6.26-0.06c0.94,0,1.89,0,2.83,0
	c0.62-0.02,1.24-0.03,1.86-0.06c0.43-0.02,0.81,0,1.13,0.05c1.05-0.01,2.1-0.01,3.16-0.03c1.31-0.02,2.59-0.07,3.84-0.06
	c-1.9-0.84-4.32-1.29-7.37-1.18c-1.19,0.04-2.4,0.11-3.53,0.25C502.18,832.38,499.96,832.73,497.71,833.04z"/>
<path d="M513.22,804.7c-0.93-0.15-1.98-0.23-2.98-0.32c-0.12-0.01-0.23-0.02-0.35-0.03c-1.4,0.06-2.85,0.04-4.14,0.02
	c-4.93-0.08-9.98-0.05-14.93,0.02c-5.74,0.08-11.48,0.24-17.22,0.33c-2.34,0.1-4.68,0.19-7.03,0.26c0.19,0.02,0.47,0.14,0.45,0.19
	c-0.1,0.21-0.23,0.44-0.54,0.61c-0.69,0.38-1.74,0.63-2.8,0.85c-2.12,0.46-3.9,1.08-5.64,1.71c-0.84,0.31-0.84,0.69-0.09,1.04
	c0.57,0.26,1.21,0.47,2.07,0.59c1.25,0.18,2.56,0.28,3.92,0.28c1.35,0,2.7-0.01,4.05-0.02c0.43,0,0.9,0.17,0.82,0.31
	c-0.14,0.27-0.41,0.54-0.45,0.81c-0.15,0.94,1.48,1.74,4,1.86c1.64,0.08,3.2,0.18,4.71,0.42c0.62,0.1,1.46,0.02,2.21,0.02
	c1.04,0,2.14-0.09,3.11,0c1.73,0.16,3.21,0.07,4.68-0.33c0.77-0.21,1.73-0.17,2.63-0.12c3.22,0.15,5.86-0.36,8.33-1.08
	c1.76-0.52,2.39-1.81,0.5-2.35c-0.34-0.1-0.72-0.21-0.9-0.35c-0.17-0.13-0.16-0.31-0.12-0.47c0.03-0.1,0.24-0.2,0.4-0.3
	c2.55-1.51,1.62-1.43,6.51-1.75c3.1-0.2,6.12-0.6,9.29-0.66c1.22-0.02,1.93-0.68,1.16-1.04
	C514.42,805.02,513.86,804.81,513.22,804.7z"/>
<path d="M555.88,856.03c-0.72,0.08-1.48,0.11-2.16,0.22c-2.34,0.38-3.62,1.29-2.88,2.19c0.48,0.58,0.88,1.15,0.92,1.77
	c0.02,0.25,0.56,0.5,0.87,0.74c0.44,0.35,1.12,0.67,1.3,1.04c0.32,0.65,1.15,1.1,2.72,1.41c0.82,0.16,1.12,0.5,1.39,0.82
	c0.97,1.14,3.29,1.79,6.07,2.28c1.99,0.35,5.39-0.04,5.92-0.91c0.1-0.16,0.21-0.34,0.47-0.46c0.25-0.12,0.69-0.2,1.08-0.25
	c0.26-0.04,0.59-0.01,0.89,0c4.72,0.16,4.14-0.12,6.93,1.37c1.77,0.94,3.98,1.77,5.44,2.8c0.56,0.4,2.46,0.33,3-0.09
	c0.32-0.24,0.59-0.52,0.58-0.79c-0.01-0.38-0.27-0.76-0.46-1.14c-0.56-1.08-0.95-2.17-1.03-3.37c1.2,0.26,1.64,0.69,2.49,0.97
	c1.02,0.34,2.13,0.6,3.55,0.62c0.75,0.02,1.5,0.08,2.24,0.06c2.12-0.05,4.18-0.19,5.83-0.76c1.19-0.41,1.76-0.91,1.5-1.49
	c-0.41-0.9-1.42-1.67-3.73-2.13c-1.7-0.34-3.33-0.73-5.04-1.06c-2.15-0.41-3.28-1.11-3.95-1.91c-0.48-0.58-0.7-1.18-0.99-1.78
	c-0.16-0.33,0.03-0.66,0.41-0.97c0.56-0.45,1.16-0.9,1.74-1.35c0.17-0.13-0.1-0.38-0.45-0.42c-0.72-0.07-1.44-0.13-2.16-0.18
	c-1.12-0.07-1.91-0.27-2.36-0.67c-0.23-0.2-0.56-0.39-0.9-0.57c-0.64-0.34-1.55-0.5-2.68-0.49c-0.45,0-0.9,0-1.35,0.02
	c-2.82,0.1-4.96-0.21-6.17-1.22c-0.81-0.67-2.25-1.15-4.04-1.48c-1.19-0.22-2.55-0.36-3.54-0.67c-1.22-0.38-0.68-1.04-1.18-1.55
	c-0.05-0.05-0.09-0.11-0.14-0.16c-0.33-0.33-0.88-0.58-1.64-0.76c-0.01,0.05-0.03,0.1-0.06,0.14c-0.16,0.21-0.63,0.48-1.2,0.58
	c-0.65,0.12-1.13,0.17-1.87,0.19c-0.54,0.01-1.2-0.03-1.72-0.13c-1.1,0.98-1.1,1.96,0.45,2.88c0.62,0.37,1.31,0.74,2.15,1.05
	c1.69,0.62,3.51,1.18,5.25,1.78c0.42,0.14,0.8,0.31,1.1,0.49c0.09,0.05-0.11,0.25-0.27,0.27c-0.55,0.06-1.16,0.13-1.71,0.1
	c-1.21-0.06-2.24-0.29-3.23-0.54c-1.99-0.5-4.23-0.81-6.48-1.1c-1.1-0.14-2.04,0.04-2.56,0.45c-0.39,0.31-0.63,0.62-0.58,0.96
	c0.07,0.5,0.39,0.98,0.95,1.44c0.56,0.45,1.15,0.89,1.72,1.34C556.48,855.75,556.25,855.99,555.88,856.03z"/>
<path d="M402.83,828.86c0.67,0.94,1.59,1.67,2.67,2.32c0.38,0.23,0.81,0.43,1.01,0.74c0.14,0.21,0.01,0.56-0.17,0.89
	c-0.31,0.58-2.1,1.44-2.84,1.36c-1.91-0.22-4.44,0.04-6.61,0.02c-3.42-0.03-2.73-0.05-7.34,1.83c-0.29,0.12-0.62,0.24-0.85,0.38
	c-0.35,0.22-0.73,0.47-0.91,0.67c-0.19,0.21-0.21,0.41-0.23,0.58c-0.08,0.95-3.15,2.71-5.23,3.28c-2.92,0.79-5.47,1.24-6.96,0.72
	c-0.42-0.15-0.87-0.3-1.74-0.08c-1.66,0.42-2.68,0.4-3.32,0c-0.35-0.22-1.16-0.2-1.76-0.3c-0.42-0.07-1.06-0.04-1.21-0.24
	c-0.35-0.49-1.01-0.78-1.76-1.06c-1.16-0.42-0.39-1.71,1.67-3.02c0.6-0.38,1.31-0.73,1.96-1.11c0.33-0.19,0.44-0.48,0.19-0.52
	c-0.77-0.13-1.56-0.24-2.31-0.37c-0.77-0.13-1.31-0.39-1.63-0.77c-0.22-0.26-0.14-0.62,0.08-1.04c0.29-0.56,1.11-1.1,2.23-1.46
	c2.31-0.73,4.61-1.42,6.77-1.87c1.08-0.22,2.18-0.46,3.37-0.93c0.54-0.22,1.1-0.53,1.59-0.81c0.15-0.08,0.24-0.33,0.13-0.34
	c-0.37-0.02-0.82,0-1.3,0.06c-1.97,0.25-4,0.56-5.93,0.78c-0.95,0.11-1.8,0.1-2.58,0.06c-2.03-0.11-2.48-0.96-1.8-2.34
	c0.21-0.41,0.66-0.88,1.34-1.36c0.58-0.42,1.27-0.76,2.03-0.98c1.2-0.35,2.15-0.47,2.78-0.29c0.07,0.02,0.14,0.05,0.21,0.07
	c0.74,0.2,0.54,0.98,1.9,0.77c1.1-0.17,2.48-0.63,3.73-0.96c1.89-0.5,3.51-0.72,4.62-0.51c1.67,0.31,3.88-0.34,6.53-1.63
	c0.42-0.2,0.86-0.4,1.29-0.59c1.08-0.49,2.04-0.75,2.82-0.74c0.41,0,0.82,0.02,1.14,0.08c0.63,0.13,1.49-0.04,2.6-0.46
	c0.72-0.27,1.45-0.53,2.17-0.78c0.36-0.12,0.74-0.03,0.64,0.15c-0.33,0.62-0.68,1.24-1,1.85c-0.21,0.42-0.24,0.77,0.09,0.97
	c0.57,0.36,1.09,0.77,1.83,1.04c1.04,0.38,2.48,0.46,4.74-0.11c1.81-0.46,3.56-0.83,5.37-1.28c2.45-0.61,3.8-0.41,4.64,0.15
	c0.55,0.37,0.25,1.02-0.69,1.86c-1.3,1.17-3.21,2.17-5.22,3.11c-0.7,0.33-1.45,0.6-2.18,0.9c-1.38,0.58-2.57,0.85-3.72,1
	C404.75,828.73,404.11,828.56,402.83,828.86z"/>
<path d="M174.76,825.02c0.08,1.19,0.47,2.28,1.03,3.37c0.2,0.38,0.45,0.76,0.46,1.14c0.01,0.26-0.27,0.54-0.58,0.79
	c-0.54,0.42-2.44,0.49-3,0.09c-1.46-1.03-3.67-1.85-5.44-2.8c-2.79-1.49-2.21-1.21-6.93-1.37c-0.3-0.01-0.63-0.03-0.89,0
	c-0.4,0.06-0.83,0.14-1.08,0.25c-0.26,0.12-0.38,0.3-0.47,0.46c-0.53,0.88-3.93,1.26-5.92,0.91c-2.79-0.49-5.1-1.14-6.07-2.28
	c-0.27-0.32-0.56-0.66-1.39-0.82c-1.57-0.31-2.4-0.76-2.72-1.41c-0.18-0.36-0.86-0.69-1.3-1.04c-0.31-0.25-0.85-0.49-0.87-0.74
	c-0.04-0.62-0.44-1.18-0.92-1.77c-0.74-0.9,0.53-1.81,2.88-2.19c0.68-0.11,1.44-0.15,2.16-0.22c0.37-0.04,0.6-0.28,0.42-0.42
	c-0.57-0.45-1.16-0.89-1.72-1.34c-0.56-0.45-0.88-0.93-0.95-1.44c-0.05-0.34,0.19-0.65,0.58-0.96c0.52-0.41,1.46-0.59,2.56-0.45
	c2.26,0.29,4.49,0.6,6.48,1.1c0.99,0.25,2.02,0.48,3.23,0.54c0.55,0.03,1.16-0.04,1.71-0.1c0.16-0.02,0.36-0.21,0.27-0.27
	c-0.3-0.18-0.68-0.35-1.1-0.49c-1.74-0.6-3.56-1.16-5.25-1.78c-0.84-0.3-1.53-0.67-2.15-1.05c-1.61-0.97-1.56-1.98-0.31-3.01
	c0.38-0.31,0.98-0.56,1.77-0.74c0.69-0.15,1.42-0.18,2.15-0.08c1.16,0.17,2,0.47,2.43,0.91c0.05,0.05,0.09,0.11,0.14,0.16
	c0.5,0.51-0.04,1.17,1.18,1.55c0.99,0.31,2.35,0.45,3.54,0.67c1.8,0.33,3.24,0.81,4.04,1.48c1.21,1.01,3.35,1.33,6.17,1.22
	c0.45-0.02,0.9-0.02,1.35-0.02c1.13-0.01,2.04,0.15,2.68,0.49c0.34,0.18,0.67,0.37,0.9,0.57c0.46,0.39,1.25,0.59,2.36,0.67
	c0.73,0.05,1.45,0.11,2.16,0.18c0.35,0.03,0.62,0.29,0.45,0.42c-0.58,0.45-1.18,0.9-1.74,1.35c-0.38,0.31-0.58,0.64-0.41,0.97
	c0.29,0.6,0.51,1.2,0.99,1.78c0.67,0.8,1.8,1.5,3.95,1.91c1.71,0.33,3.34,0.72,5.04,1.06c2.31,0.46,3.32,1.23,3.73,2.13
	c0.27,0.58-0.31,1.09-1.5,1.49c-1.65,0.57-3.71,0.71-5.83,0.76c-0.74,0.02-1.49-0.04-2.24-0.06c-1.43-0.03-2.53-0.28-3.55-0.62
	C176.4,825.71,175.96,825.28,174.76,825.02z"/>
<path d="M133.72,850.44c-0.44,0.88-1.2,1.58-2.16,2.2c-0.33,0.22-0.74,0.41-0.86,0.7c-0.08,0.2,0.16,0.51,0.46,0.82
	c0.51,0.52,2.7,1.27,3.46,1.18c1.99-0.25,4.78-0.07,7.11-0.14c3.67-0.11,2.91-0.11,8.44,1.51c0.35,0.1,0.74,0.21,1.03,0.33
	c0.44,0.19,0.93,0.41,1.19,0.59c0.27,0.19,0.35,0.37,0.42,0.53c0.37,0.87,4.21,2.42,6.62,2.88c3.37,0.65,6.25,1.01,7.7,0.49
	c0.4-0.14,0.84-0.3,1.85-0.12c1.91,0.34,3,0.3,3.57-0.08c0.31-0.21,1.19-0.21,1.8-0.32c0.44-0.07,1.13-0.06,1.22-0.25
	c0.22-0.46,0.84-0.75,1.57-1.01c1.12-0.41-0.1-1.58-2.72-2.74c-0.76-0.33-1.63-0.64-2.45-0.97c-0.41-0.17-0.62-0.43-0.37-0.48
	c0.79-0.13,1.6-0.26,2.37-0.4c0.78-0.14,1.29-0.39,1.51-0.75c0.16-0.24-0.04-0.57-0.4-0.95c-0.49-0.5-1.53-0.99-2.84-1.28
	c-2.7-0.61-5.38-1.19-7.84-1.55c-1.22-0.18-2.48-0.37-3.91-0.78c-0.65-0.18-1.34-0.46-1.96-0.71c-0.18-0.07-0.36-0.3-0.24-0.31
	c0.4-0.03,0.88-0.02,1.41,0.03c2.19,0.19,4.47,0.42,6.6,0.57c1.06,0.07,1.97,0.05,2.79-0.01c2.15-0.15,2.37-0.95,1.22-2.19
	c-0.35-0.38-0.98-0.79-1.85-1.22c-0.76-0.37-1.6-0.67-2.48-0.85c-1.39-0.29-2.45-0.38-3.08-0.2c-0.07,0.02-0.13,0.05-0.21,0.07
	c-0.73,0.21-0.28,0.92-1.81,0.76c-1.24-0.13-2.85-0.52-4.3-0.79c-2.18-0.41-3.99-0.58-5.12-0.36c-1.7,0.33-4.27-0.22-7.52-1.34
	c-0.51-0.18-1.04-0.34-1.56-0.51c-1.31-0.42-2.42-0.64-3.25-0.61c-0.44,0.01-0.88,0.03-1.2,0.1c-0.64,0.13-1.62,0-2.93-0.36
	c-0.86-0.23-1.71-0.45-2.56-0.66c-0.42-0.1-0.8-0.01-0.65,0.15c0.54,0.56,1.11,1.12,1.63,1.68c0.36,0.38,0.49,0.7,0.2,0.9
	c-0.51,0.35-0.94,0.73-1.65,1c-1,0.37-2.52,0.48-5.13,0.01c-2.08-0.38-4.08-0.68-6.15-1.04c-2.82-0.5-4.21-0.29-4.94,0.26
	c-0.47,0.35,0.05,0.95,1.31,1.7c1.76,1.04,4.11,1.91,6.56,2.73c0.85,0.29,1.74,0.51,2.61,0.78c1.66,0.5,3.02,0.71,4.31,0.83
	C131.62,850.37,132.25,850.2,133.72,850.44z"/>
<path d="M669.79,856.5c3.47,0.26,6.57,0.4,9.63,0.49c1.07,0.03,2.13,0.04,3.24,0.13c0.76,0.06,1.63,0.22,2.4,0.38
	c1.32,0.27,1.87,0.89,0.81,0.97c-2.74,0.21-4.74,0.71-7.17,1.05c-3.83,0.53-3.13,0.41-2.73,1.86c0.03,0.09,0.02,0.19,0.17,0.28
	c0.24,0.14,0.55,0.3,0.94,0.4c0.41,0.11,0.94,0.19,1.43,0.26c2.66,0.38,4.4,1.55,3.75,2.1c-0.92,0.76-2.39,1.34-5.54,1.37
	c-0.88,0.01-1.81,0.02-2.14,0.24c-0.62,0.42-1.78,0.58-3.62,0.52c-1.03-0.03-1.86,0.1-2.78,0.16c-0.66,0.04-1.28,0.15-2.01,0.1
	c-1.79-0.14-3.37-0.15-4.98-0.14c-2.48,0.02-5.37-0.61-6.91-1.44c-0.45-0.24-0.69-0.49-1.04-0.74c-0.18-0.13-0.91-0.26-1.3-0.23
	c-1.2,0.07-2.39,0.15-3.6,0.22c-1.22,0.07-2.56,0.05-4.01-0.04c-0.99-0.07-1.94-0.22-2.91-0.42c-1.29-0.26-1.98-0.6-1.77-0.92
	c0.43-0.65,0.93-1.28,2.02-1.79c0.54-0.25,1.05-0.52,0.99-0.89c-0.03-0.17-0.32-0.38-0.6-0.57c-0.08-0.06-0.69-0.17-0.83-0.15
	c-0.47,0.05-0.89,0.13-1.24,0.23c-1.42,0.41-2.75,0.85-4.24,1.23c-0.74,0.19-1.69,0.32-2.66,0.43c-2.53,0.28-5.5,0.01-8.72-0.63
	c-0.97-0.19-1.81-0.44-2.47-0.74c-0.58-0.26-0.8-0.49-0.61-0.7c0.29-0.32,1-0.52,2.21-0.55c0.14,0,0.29,0,0.43-0.01
	c1.4-0.04,3.43,0.3,4.32,0c0.71-0.24,0.9-0.63,1.31-0.96c0.63-0.49,1.76-0.83,3.58-0.92c2.73-0.14,3.26-0.74,2.45-1.66
	c-0.13-0.15-0.21-0.29-0.3-0.43c-0.23-0.36,0.07-0.61,0.94-0.73c0.46-0.06,0.95-0.12,1.49-0.15c1.06-0.05,1.51-0.25,1.51-0.59
	c0-0.22,0.06-0.43,0.13-0.64c0.03-0.1,0.73-0.13,1.13-0.04c1.42,0.29,2.83,0.59,4.26,0.88c0.97,0.2,1.96,0.34,2.9,0.36
	c1.68,0.05,3.41,0.13,5,0.12c2.23-0.02,4.05-0.21,4.86-0.79c0.65-0.46,1.5-0.88,2.18-1.34c0.92-0.62,2.97-0.76,5.53-0.67
	c1.66,0.06,3.23,0.36,4.63,0.83c1.95,0.66,2.75,1.35,3.28,2.03c0.18,0.24,0.14,0.46,0.23,0.69c0.17,0.44-0.37,0.73-1.18,0.97
	C671.5,856.14,670.32,856.18,669.79,856.5z"/>
<path d="M714.75,857.39c-1.35-0.22-2.3-0.36-3.24-0.53c-1.37-0.24-2.54-0.57-3.51-1c-0.9-0.4-0.87-0.95,0.06-1.37
	c0.68-0.31,1.47-0.56,2.47-0.71c1.26-0.19,2.53-0.37,3.81-0.52c1.78-0.21,2.84-0.57,2.71-1.32c-0.16-0.9,0.49-1.75,1.36-2.59
	c0.93-0.89,3.12-1.37,5.74-1.19c1.76,0.12,3.48,0.32,5.2,0.5c1.15,0.12,2.27,0.27,3.41,0.4c0.51,0.06,1.19-0.14,1.27-0.36
	c0.12-0.33,0.18-0.66,0.35-0.98c0.16-0.3,1.63-0.48,2.24-0.28c0.44,0.14,0.77,0.33,1.17,0.49c0.51,0.2,1.08,0.25,1.59,0.14
	c1.04-0.22,2.05-0.47,3.11-0.68c1.1-0.23,2.29-0.28,3.49-0.18c0.59,0.05,1.15,0.19,1.24,0.43c0.19,0.49,0.33,0.98,0.35,1.47
	c0.03,0.66-0.07,1.33-0.09,1.99c-0.01,0.43,0.49,0.76,1.56,0.91c1.69,0.24,3.21,0.58,4.66,0.97c0.96,0.26,1.85,0.55,2.72,0.85
	c0.89,0.3,1.47,0.68,1.93,1.1c0.54,0.49,0.53,0.94-0.11,1.43c-1.56,1.21-4.26,1.99-7.23,2.68c-0.76,0.18-1.65,0.28-2.45,0.43
	c-1.71,0.33-2.14,0.46-1.94,1.33c0.09,0.38,0.42,0.75,0.59,1.13c0.21,0.45-0.02,0.88-0.49,1.3c-0.44,0.39-2.13,0.6-3.07,0.34
	c-0.71-0.19-1.38-0.42-1.96-0.66c-1.64-0.7-3.74-0.86-6.1-0.73c-0.89,0.05-1.75,0.17-2.63,0.23c-3.68,0.28-7.41,0.47-10.99,0.91
	c-0.28,0.04-0.58,0.06-0.88,0.08c-3.44,0.26-4.45,0.12-6.59-0.87c-0.57-0.27-0.92-0.56-1-0.9c-0.26-1.05-0.15-2.1,0.52-3.13
	C714.26,858.15,714.46,857.83,714.75,857.39z"/>
<path d="M837.39,852.86c-1.32,0.25-2.24,0.43-3.18,0.6c-1.37,0.25-2.82,0.38-4.35,0.39c-1.43,0.01-2.57-0.34-2.86-0.86
	c-0.22-0.38-0.25-0.77,0.07-1.15c0.41-0.48,0.84-0.95,1.34-1.41c0.69-0.64,0.61-1.17-1.06-1.59c-2-0.51-3.39-1.22-4.6-1.99
	c-1.3-0.82-0.9-1.74,1.15-2.38c1.38-0.43,2.9-0.8,4.38-1.18c0.99-0.26,2.02-0.48,3.03-0.73c0.44-0.11,0.47-0.43,0.06-0.59
	c-0.61-0.24-1.27-0.46-1.85-0.71c-0.52-0.23,0.03-0.76,0.83-0.82c0.58-0.04,1.19-0.01,1.79-0.03c0.74-0.02,1.21-0.16,1.31-0.37
	c0.19-0.44,0.33-0.88,0.54-1.31c0.22-0.45,0.87-0.83,1.86-1.11c0.49-0.14,1.14-0.21,1.69-0.09c1.15,0.25,2.28,0.51,3.34,0.81
	c1.42,0.4,2.75,0.84,4.14,1.25c0.89,0.27,1.92,0.33,2.93,0.12c1.59-0.33,3.28-0.56,5.03-0.74c1.16-0.12,2.35-0.19,3.53-0.26
	c1.21-0.07,2.38,0,3.55,0.12c1.38,0.15,2.32,0.43,2.96,0.92c1.56,1.2,1.49,2.45,1.03,3.72c-0.12,0.33-0.47,0.64-0.66,0.97
	c-0.4,0.69-0.4,0.9,1.56,1.37c0.86,0.21,1.86,0.35,2.77,0.53c1.08,0.22,1.84,0.55,2.43,0.94c0.55,0.37-0.1,0.98-1.24,1.09
	c-0.86,0.08-1.76,0.14-2.65,0.15c-2.51,0.04-4.2,0.54-5.44,1.29c-0.47,0.28-0.77,0.6-1.19,0.9c-1.76,1.23-3.75,2.41-5.11,3.71
	c-0.11,0.1-0.25,0.2-0.39,0.3c-1.65,1.15-2.58,1.35-6.06,1.35c-0.93,0-1.78-0.09-2.54-0.27c-2.38-0.58-4.52-1.25-6.28-2.08
	C838.7,853.47,838.15,853.22,837.39,852.86z"/>
<path d="M459.31,820.1c1.49-0.43,2.53-0.73,3.59-1.03c1.55-0.43,3.21-0.73,4.96-0.9c1.64-0.16,3,0.12,3.4,0.69
	c0.3,0.42,0.38,0.86,0.06,1.32c-0.41,0.59-0.85,1.18-1.37,1.76c-0.72,0.8-0.55,1.4,1.42,1.71c2.36,0.37,4.06,1.05,5.55,1.79
	c1.6,0.8,1.26,1.9-1.04,2.85c-1.54,0.64-3.24,1.22-4.9,1.82c-1.11,0.4-2.27,0.77-3.4,1.16c-0.5,0.17-0.49,0.54,0,0.68
	c0.73,0.21,1.53,0.39,2.22,0.62c0.63,0.21,0.06,0.88-0.86,1.02c-0.67,0.1-1.37,0.14-2.05,0.23c-0.85,0.1-1.38,0.31-1.46,0.56
	c-0.17,0.52-0.27,1.04-0.46,1.56c-0.2,0.54-0.9,1.04-2,1.47c-0.54,0.21-1.29,0.36-1.94,0.28c-1.36-0.16-2.69-0.35-3.95-0.58
	c-1.69-0.31-3.28-0.67-4.93-1c-1.06-0.21-2.26-0.17-3.39,0.17c-1.79,0.55-3.72,0.99-5.7,1.37c-1.32,0.25-2.68,0.46-4.04,0.67
	c-1.38,0.21-2.74,0.25-4.1,0.23c-1.61-0.02-2.73-0.25-3.52-0.74c-1.95-1.21-2.02-2.65-1.65-4.16c0.1-0.39,0.46-0.79,0.64-1.18
	c0.38-0.84,0.35-1.07-1.97-1.41c-1.02-0.15-2.18-0.2-3.26-0.32c-1.27-0.14-2.19-0.43-2.91-0.82c-0.68-0.36,0-1.13,1.29-1.38
	c0.98-0.19,2.02-0.34,3.04-0.45c2.89-0.31,4.78-1.06,6.11-2.06c0.5-0.37,0.81-0.77,1.26-1.15c1.87-1.59,4.03-3.16,5.43-4.79
	c0.11-0.13,0.27-0.26,0.42-0.39c1.76-1.49,2.81-1.82,6.82-2.18c1.07-0.1,2.06-0.09,2.96,0.04c2.82,0.41,5.36,0.96,7.49,1.73
	C457.73,819.53,458.39,819.77,459.31,820.1z"/>
<path d="M227.78,868.15c-1.32,0.25-2.24,0.43-3.18,0.6c-1.37,0.25-2.82,0.38-4.35,0.39c-1.43,0.01-2.57-0.34-2.86-0.86
	c-0.22-0.38-0.25-0.77,0.07-1.15c0.41-0.48,0.84-0.95,1.34-1.41c0.69-0.64,0.61-1.17-1.06-1.59c-2-0.51-3.39-1.22-4.6-1.99
	c-1.3-0.82-0.9-1.74,1.15-2.38c1.38-0.43,2.9-0.8,4.38-1.18c0.99-0.26,2.02-0.48,3.03-0.73c0.44-0.11,0.47-0.43,0.06-0.59
	c-0.61-0.24-1.27-0.46-1.85-0.71c-0.52-0.23,0.03-0.76,0.83-0.82c0.58-0.04,1.19-0.01,1.79-0.03c0.74-0.02,1.21-0.16,1.31-0.37
	c0.19-0.44,0.33-0.88,0.54-1.31c0.22-0.45,0.87-0.83,1.86-1.11c0.49-0.14,1.14-0.21,1.69-0.09c1.15,0.25,2.28,0.51,3.34,0.81
	c1.42,0.4,2.75,0.84,4.14,1.25c0.89,0.27,1.92,0.33,2.93,0.12c1.59-0.33,3.28-0.56,5.03-0.74c1.16-0.12,2.35-0.19,3.53-0.26
	c1.21-0.07,2.38,0,3.55,0.12c1.38,0.15,2.32,0.43,2.96,0.92c1.56,1.2,1.49,2.45,1.03,3.72c-0.12,0.33-0.47,0.64-0.66,0.97
	c-0.4,0.69-0.4,0.9,1.56,1.37c0.86,0.21,1.86,0.35,2.77,0.53c1.08,0.22,1.84,0.55,2.43,0.94c0.55,0.37-0.1,0.98-1.24,1.09
	c-0.86,0.08-1.76,0.14-2.65,0.15c-2.51,0.04-4.2,0.54-5.44,1.29c-0.47,0.28-0.77,0.6-1.19,0.9c-1.76,1.23-3.75,2.41-5.11,3.71
	c-0.11,0.1-0.25,0.2-0.39,0.3c-1.65,1.15-2.58,1.35-6.06,1.35c-0.93,0-1.78-0.09-2.54-0.27c-2.38-0.58-4.52-1.25-6.28-2.08
	C229.08,868.77,228.54,868.51,227.78,868.15z"/>
<path d="M426.53,851.66c1.21,0.76,2.61,1.48,4.6,1.99c1.67,0.42,1.75,0.95,1.06,1.59c-0.5,0.46-0.93,0.94-1.34,1.41
	c-0.33,0.38-0.29,0.76-0.07,1.15c0.3,0.53,1.43,0.87,2.86,0.86c1.53-0.01,2.98-0.14,4.35-0.39c0.94-0.17,1.86-0.35,3.18-0.6
	c0.76,0.36,1.3,0.62,1.85,0.87c1.76,0.83,3.89,1.51,6.28,2.08c0.77,0.19,1.61,0.27,2.54,0.27c3.47,0,4.41-0.2,6.06-1.35
	c0.14-0.1,0.28-0.2,0.39-0.3c1.36-1.3,3.36-2.48,5.11-3.71c0.42-0.29,0.73-0.61,1.19-0.9c1.24-0.75,2.93-1.26,5.44-1.29
	c0.89-0.01,1.79-0.07,2.65-0.15c1.14-0.11,1.79-0.72,1.24-1.09c-0.58-0.39-1.35-0.72-2.43-0.94c-0.91-0.18-1.91-0.32-2.77-0.53
	c-1.96-0.48-1.96-0.68-1.56-1.37c0.19-0.32,0.54-0.64,0.66-0.97c0.16-0.43,0.26-0.87,0.28-1.29c-0.94-0.02-1.91-0.02-2.99-0.01
	c-2.16,0.01-4.36,0.1-6.52,0.07c-0.1,0.03-0.2,0.06-0.31,0.08c-0.4,0.08-0.82,0.15-1.26,0.2c-0.14,0.01-0.27,0.01-0.41,0.02
	c-0.02,0-0.04,0.01-0.06,0.01c-0.31,0.06-0.65,0.09-1,0.09l-0.66,0c-0.47,0-0.91-0.04-1.32-0.12c-0.18-0.05-0.35-0.1-0.53-0.15
	c-0.32-0.12-0.55-0.26-0.67-0.42c-0.03-0.08-0.06-0.17-0.09-0.25c-0.01-0.13,0.06-0.26,0.22-0.37c0.1-0.12,0.28-0.22,0.54-0.31
	c0.02-0.01,0.04-0.01,0.06-0.02c-0.43-0.17-0.71-0.38-0.64-0.62c0.08-0.28,0.14-0.57,0.22-0.86c-0.32,0.06-0.63,0.11-0.94,0.18
	c-1.01,0.21-2.04,0.15-2.93-0.12c-1.39-0.42-2.72-0.86-4.14-1.25c-1.06-0.3-2.19-0.56-3.34-0.81c-0.55-0.12-1.2-0.05-1.69,0.09
	c-0.99,0.28-1.64,0.66-1.86,1.11c-0.21,0.44-0.35,0.88-0.54,1.31c-0.09,0.22-0.56,0.35-1.31,0.37c-0.59,0.02-1.2,0-1.79,0.03
	c-0.8,0.05-1.36,0.59-0.83,0.82c0.57,0.25,1.23,0.47,1.85,0.71c0.41,0.16,0.39,0.48-0.06,0.59c-1,0.25-2.04,0.48-3.03,0.73
	c-1.48,0.38-3,0.75-4.38,1.18C425.63,849.92,425.23,850.85,426.53,851.66z"/>
<path d="M798.01,805.97c0.91,1.2,2,2.42,3.73,3.68c1.44,1.06,1.36,1.59,0.52,1.91c-0.61,0.24-1.16,0.51-1.69,0.8
	c-0.42,0.23-0.5,0.6-0.41,1.05c0.08,0.42,0.56,0.91,1.29,1.36c0.45,0.06,0.99,0.2,1.55,0.41c1.3,0.49,2.59,1.01,3.87,1.54
	c0.91,0.21,1.81,0.39,3.09,0.67c0.41,0.43,0.74,0.78,1.05,1.1c2.45,1.06,4.91,2.13,7.39,3.08c2.45,0.94,4.76,1.72,7.19,2.81
	c0.53,0.24,1.06,0.49,1.59,0.73c1.36-0.36,2.88-0.62,4.3-0.94c0.48-0.11,0.87-0.29,1.39-0.37c1.39-0.22,3.13-0.02,5.5,0.93
	c0.84,0.34,1.7,0.64,2.54,0.91c1.1,0.35,1.9,0.03,1.49-0.53c-0.43-0.6-1.05-1.21-2-1.84c-0.8-0.53-1.7-1.05-2.44-1.59
	c-1.7-1.22-1.64-1.41-1.06-1.91c0.27-0.23,0.7-0.39,0.91-0.65c0.81-1.01,1.26-2.16,0.15-3.9c-0.45-0.71-1.25-1.34-2.5-2.03
	c-1.06-0.58-2.14-1.11-3.29-1.52c-1.13-0.4-2.27-0.81-3.39-1.15c-1.69-0.52-3.35-0.98-4.94-1.29c-1.01-0.2-1.96-0.67-2.72-1.27
	c-1.18-0.94-2.3-1.88-3.51-2.81c-0.9-0.7-1.89-1.39-2.9-2.08c-0.48-0.33-1.12-0.52-1.61-0.58c-1.01-0.13-1.73-0.03-2.08,0.31
	c-0.33,0.32-0.59,0.68-0.9,1.02c-0.15,0.17-0.63,0.11-1.34-0.17c-0.56-0.22-1.13-0.48-1.69-0.67c-0.77-0.27-1.45,0.02-1.03,0.44
	c0.46,0.46,1.02,0.93,1.52,1.39c0.34,0.31,0.22,0.6-0.23,0.53c-1.02-0.16-2.06-0.36-3.06-0.51c-1.51-0.23-3.04-0.48-4.47-0.62
	C797.68,803.98,797.03,804.69,798.01,805.97z"/>
<path d="M873.47,850.79c2.43-0.44,4.43-0.82,6.48-1.15c2.34-0.38,4.4-0.19,6.11,0.49c0.6,0.24,1.16,0.5,1.7,0.76
	c0.56,0.27,0.55,0.67,0.02,0.93c-0.36,0.18-0.74,0.35-1.16,0.51c-2.13,0.8-3.79,1.73-5.47,2.65c-1.6,0.88-3.04,1.79-5,2.57
	c-0.8,0.32-0.81,0.7-0.36,1.08c0.29,0.25,0.6,0.5,0.99,0.74c1.09,0.65,2.2,1.3,3.35,1.94c0.54,0.3,1.4,0.43,2.34,0.36
	c1.17-0.09,2.39-0.18,3.43-0.38c2.71-0.51,5.64-0.77,8.51-1.09c0.71-0.08,1.46-0.13,2.21-0.15c2.88-0.1,5.23,0.2,7.01,1.1
	c1.62,0.82,2.58,1.71,2.96,2.72c0.19,0.51,0.34,0.97-0.83,1.38c-0.52,0.18-0.79,0.46-1.13,0.71c-0.89,0.63-1.72,0.82-3.55,0.77
	c-1.79-0.06-3.57-0.14-5.23-0.42c-1.25-0.2-2.35-0.05-3.38,0.2c-0.49,0.12-0.85,0.31-1.29,0.46c-0.73,0.24-1.66,0.28-2.47,0.1
	c-0.38-0.08-0.8-0.16-1.12-0.27c-1.1-0.37-2.27-0.7-3.65-0.93c-1.2-0.2-1.69-0.58-1.49-1.09c0.08-0.21-0.05-0.43-0.14-0.65
	c-0.07-0.17-1.03-0.34-1.44-0.27c-0.41,0.07-0.79,0.16-1.18,0.24c-0.72,0.14-1.5,0.17-2.09-0.03c-2.43-0.84-5.36-1.37-8.4-1.83
	c-1.84-0.28-3.34-0.71-4.55-1.29c-1.25-0.59-1.85-1.25-1.38-2.01c0.4-0.65,0.82-1.29,1.29-1.93c0.57-0.76,1.81-1.27,4.07-1.34
	c0.3-0.01,0.6-0.02,0.89-0.05c1.19-0.11,1.93-0.58,1.63-1.03c-0.11-0.16-0.21-0.32-0.38-0.47c-0.99-0.86-1.92-1.73-3.79-2.4
	c-0.31-0.11-0.51-0.27-0.75-0.41c-0.24-0.14,0.07-0.5,0.48-0.59c1.5-0.32,3.05-0.47,4.73-0.23
	C872.09,850.58,872.77,850.68,873.47,850.79z"/>
<path d="M353.16,803.05c2.67-0.35,4.86-0.66,7.12-0.93c2.57-0.3,4.89-0.1,6.85,0.54c0.7,0.23,1.34,0.47,1.96,0.71
	c0.64,0.25,0.67,0.61,0.1,0.84c-0.39,0.15-0.79,0.31-1.24,0.44c-2.3,0.68-4.07,1.49-5.86,2.29c-1.7,0.76-3.23,1.55-5.34,2.22
	c-0.86,0.27-0.84,0.62-0.31,0.97c0.35,0.23,0.71,0.46,1.16,0.68c1.27,0.61,2.57,1.21,3.9,1.8c0.62,0.28,1.6,0.41,2.64,0.36
	c1.29-0.06,2.64-0.12,3.79-0.28c2.98-0.42,6.22-0.6,9.39-0.84c0.79-0.06,1.62-0.09,2.44-0.1c3.2-0.04,5.85,0.27,7.91,1.11
	c1.88,0.77,3.03,1.58,3.54,2.49c0.26,0.46,0.46,0.88-0.8,1.23c-0.56,0.15-0.83,0.4-1.2,0.62c-0.94,0.55-1.84,0.71-3.89,0.63
	c-2-0.08-4-0.19-5.87-0.46c-1.41-0.2-2.63-0.09-3.75,0.13c-0.53,0.1-0.92,0.27-1.4,0.39c-0.79,0.2-1.83,0.22-2.75,0.05
	c-0.43-0.08-0.9-0.15-1.27-0.26c-1.26-0.35-2.59-0.67-4.15-0.9c-1.35-0.2-1.94-0.55-1.76-1c0.07-0.19-0.09-0.39-0.22-0.58
	c-0.1-0.15-1.18-0.32-1.63-0.27c-0.45,0.06-0.86,0.13-1.3,0.19c-0.79,0.11-1.66,0.13-2.34-0.06c-2.79-0.8-6.09-1.32-9.52-1.79
	c-2.08-0.28-3.79-0.7-5.19-1.23c-1.44-0.55-2.17-1.16-1.72-1.83c0.39-0.57,0.8-1.15,1.27-1.72c0.56-0.68,1.9-1.11,4.42-1.14
	c0.33,0,0.66-0.01,0.99-0.03c1.32-0.08,2.1-0.49,1.72-0.9c-0.14-0.15-0.26-0.29-0.47-0.43c-1.18-0.79-2.3-1.59-4.44-2.22
	c-0.36-0.11-0.6-0.25-0.87-0.38c-0.28-0.13,0.04-0.45,0.48-0.52c1.64-0.26,3.36-0.37,5.25-0.13
	C351.6,802.84,352.37,802.95,353.16,803.05z"/>
<path d="M680.44,838.01c0.53-0.97,0.92-1.79,1.44-2.59c0.6-0.91,2.28-1.41,4.79-1.51c0.89-0.04,1.79-0.05,2.69-0.06
	c0.93,0,1.79,0.23,2.03,0.54c0.16,0.21,0.32,0.42,0.41,0.64c0.44,1.1,1.45,2.13,2.43,3.17c0.93,0.99,2.03,1.95,2.54,2.98
	c0.21,0.42,1.04,0.65,2.14,0.74c0.73,0.06,1.46,0.12,2.2,0.14c2.09,0.06,4.18,0.12,6.27,0.15c0.98,0.02,1.79-0.16,2.2-0.48
	c0.52-0.4,1.07-0.81,1.27-1.23c0.53-1.1,1.77-2.12,2.81-3.15c0.26-0.26,0.61-0.51,1.01-0.74c1.55-0.9,3.62-1.43,6.67-1.42
	c2.78,0.01,5.3,0.25,7.72,0.72c1.22,0.24,2.32,0.47,2.5,1.06c0.08,0.26,0.53,0.5,0.85,0.75c0.83,0.63,0.74,0.99-0.49,1.5
	c-1.21,0.5-2.49,0.97-4.09,1.3c-1.2,0.25-1.55,0.66-1.62,1.12c-0.03,0.22,0.16,0.43,0.21,0.65c0.08,0.36-0.41,0.65-1.28,0.79
	c-0.41,0.06-0.83,0.14-1.26,0.18c-1.48,0.11-2.9,0.26-4.26,0.53c-1.17,0.23-2.29,0.16-3.27-0.2c-0.41-0.15-0.97-0.24-1.5-0.34
	c-0.41-0.08-1.37,0.1-1.47,0.27c-0.1,0.16-0.13,0.33-0.21,0.49c-0.13,0.3-0.54,0.54-1.35,0.6c-3.31,0.22-6.25,0.77-9.11,1.4
	c-1.73,0.38-3.59,0.57-5.57,0.59c-2.05,0.02-3.85-0.19-5.21-0.77c-1.16-0.5-2.32-1-3.42-1.52c-1.31-0.61-1.65-1.28-0.43-1.99
	c0.16-0.09,0.31-0.19,0.43-0.29c0.49-0.41-0.08-0.91-1.25-1.09c-0.41-0.06-0.83-0.13-1.26-0.17c-2.47-0.21-4.94-0.45-7.53-0.29
	c-0.43,0.03-0.89-0.01-1.34-0.02c-0.45-0.01-1.05-0.32-0.99-0.49c0.22-0.63,0.84-1.18,2.38-1.53
	C679.15,838.3,679.79,838.16,680.44,838.01z"/>
<path d="M219.07,831.43c0.59,0.9,1.15,1.64,1.55,2.4c0.46,0.87-0.57,1.61-2.83,2.19c-0.8,0.21-1.64,0.4-2.49,0.58
	c-0.88,0.19-1.96,0.17-2.54-0.04c-0.39-0.14-0.78-0.28-1.11-0.44c-1.65-0.81-3.78-1.46-5.88-2.11c-1.99-0.62-4.12-1.19-5.77-1.94
	c-0.67-0.31-1.72-0.33-2.87-0.18c-0.76,0.09-1.52,0.19-2.25,0.32c-2.05,0.36-4.09,0.73-6.12,1.12c-0.95,0.18-1.51,0.49-1.54,0.83
	c-0.04,0.43-0.1,0.87,0.18,1.26c0.74,1.01,0.71,2.08,0.89,3.14c0.05,0.26-0.01,0.54-0.12,0.81c-0.45,1.05-1.83,1.89-4.73,2.49
	c-2.64,0.55-5.31,0.85-8.13,0.94c-1.43,0.05-2.73,0.08-3.56-0.37c-0.37-0.2-1.07-0.31-1.65-0.44c-1.5-0.35-1.82-0.66-1.22-1.32
	c0.59-0.65,1.27-1.29,2.42-1.88c0.86-0.44,0.73-0.85,0.27-1.24c-0.22-0.18-0.64-0.32-0.94-0.49c-0.48-0.28-0.35-0.62,0.33-0.9
	c0.32-0.14,0.62-0.28,1-0.39c1.29-0.38,2.46-0.79,3.44-1.28c0.85-0.42,1.99-0.59,3.33-0.49c0.55,0.04,1.19,0,1.8-0.02
	c0.47-0.02,1.18-0.36,1.09-0.51c-0.09-0.15-0.24-0.29-0.35-0.44c-0.21-0.27-0.1-0.55,0.6-0.76c2.89-0.84,5.06-1.88,7.06-2.96
	c1.21-0.65,2.76-1.18,4.63-1.59c1.92-0.42,3.87-0.61,5.81-0.4c1.67,0.18,3.32,0.36,4.95,0.56c1.94,0.24,3.01,0.72,2.65,1.54
	c-0.05,0.11-0.08,0.22-0.08,0.32c0,0.44,1.1,0.73,2.41,0.64c0.46-0.03,0.93-0.06,1.38-0.12c2.58-0.32,5.19-0.61,7.47-1.26
	c0.38-0.11,0.85-0.17,1.29-0.25c0.44-0.08,1.35,0.05,1.49,0.2c0.5,0.56,0.53,1.13-0.53,1.73
	C219.98,830.94,219.53,831.18,219.07,831.43z"/>
<path d="M526.46,818.33c-2.27-0.52-4.2-0.93-6.04-1.38c-2.1-0.52-2.74-1.27-2.08-2.17c0.23-0.32,0.53-0.63,0.85-0.94
	c0.34-0.32,1.25-0.54,2.12-0.51c0.6,0.02,1.2,0.03,1.78,0.08c2.95,0.22,5.95,0.23,8.94,0.25c2.84,0.02,5.69-0.03,8.51,0.15
	c1.15,0.07,2.04-0.13,2.68-0.48c0.42-0.23,0.84-0.46,1.17-0.71c0.93-0.7,1.84-1.4,2.7-2.1c0.4-0.33,0.25-0.67-0.41-0.92
	c-0.82-0.31-1.66-0.64-2.66-0.86c-2.6-0.56-4.71-1.33-6.97-2.05c-0.56-0.18-1.06-0.38-1.51-0.6c-1.72-0.84-2.28-1.74-1.14-2.78
	c1.04-0.96,2.58-1.74,4.68-2.41c1.07-0.34,2.05-0.64,3.6-0.5c0.69,0.06,1.47-0.01,2.21-0.04c1.92-0.07,2.79,0.08,3.62,0.68
	c0.81,0.59,1.54,1.19,1.79,1.86c0.18,0.5,1.11,0.76,2.24,0.94c0.54,0.08,1.16,0.09,1.73,0.15c0.94,0.09,1.51,0.37,1.53,0.71
	c0.01,0.16,0.06,0.33-0.02,0.49c-0.28,0.55-0.41,1.09-0.23,1.65c0.16,0.48-0.44,0.84-1.71,1.06c-0.52,0.09-0.97,0.25-1.41,0.4
	c-0.34,0.11-0.24,0.51,0.13,0.6c0.37,0.09,0.78,0.16,1.16,0.24c0.7,0.15,1.18,0.37,1.02,0.67c-0.65,1.22-0.34,2.42,0.19,3.62
	c0.33,0.73,0.12,1.43-0.57,2.12c-0.7,0.71-1.9,1.26-3.88,1.53c-1.69,0.23-3.39,0.45-5.11,0.66c-2.05,0.24-3.85,0.13-5.2-0.53
	c-0.18-0.09-0.37-0.17-0.58-0.25c-0.87-0.31-2.34-0.28-3.22,0.06c-0.31,0.12-0.63,0.24-0.89,0.38c-1.45,0.78-2.96,1.54-3.52,2.49
	c-0.09,0.16-0.34,0.31-0.53,0.46s-1.19,0.25-1.6,0.17c-1.52-0.29-2.67-0.69-3-1.34C526.71,818.88,526.59,818.61,526.46,818.33z"/>
<path d="M558.49,827.54c1.08,1.02,1.96,2.07,3.54,3.02c0.61,0.37,0.93,0.8,1.25,1.22c0.26,0.34-0.03,0.67-0.8,0.89
	c-0.16,0.05-0.32,0.09-0.48,0.13c0.77,0.09,1.42,0.3,1.58,0.62c0.38,0.76,0.23,1.48,0.07,2.25c-0.13,0.63,0.01,1.25,0.08,1.88
	c0.01,0.12,0.02,0.24,0.03,0.35c0.85-0.39,1.52-0.82,1.95-1.31c1.04-1.16,2.29-2.28,4.4-3.26c0.51-0.24,0.37-0.52-0.05-0.77
	c-0.24-0.14-0.5-0.27-0.72-0.41c-0.22-0.14,0.19-0.51,0.64-0.55c0.57-0.05,1.17-0.12,1.74-0.11c1.39,0.03,2.37-0.19,2.84-0.65
	c0.54-0.53,1.35-0.99,2.28-1.43c0.27-0.13,0.44-0.29,0.64-0.44c0.42-0.31,0.26-0.65-0.44-0.9c-0.43-0.15-0.97-0.26-1.33-0.43
	c-0.77-0.35-1.25-0.75-0.78-1.22c0.63-0.63,0.74-1.3,0.77-1.96c0.03-0.68-0.55-0.96-2.32-1.23c-0.68-0.1-1.46-0.17-1.99-0.35
	c-1.19-0.39-2.43-0.29-3.79-0.17c-2.69,0.23-5.04,0.67-7.16,1.34c-2.32,0.74-2.96,1.63-2.51,2.68
	C558.04,827.01,558.23,827.28,558.49,827.54z"/>
<path d="M867.58,827.31c-2.14-0.05-3.8-0.07-5.19-0.46c-0.23-0.07-0.5-0.12-0.77-0.17c-1.8-0.28-3.66-0.56-4.51-1.26
	c-1.21-1-2.33-2.03-1.77-3.18c0.17-0.34,0.61-0.62,1.37-0.83c0.5-0.14,1.08-0.22,1.68-0.15c1.14,0.12,2.24,0.36,3.39,0.38
	c2.99,0.05,4.02,0.81,4.79,1.67c0.27,0.31,0.29,0.65,0.35,0.98c0.08,0.47,0.63,0.84,1.55,1.14c0.76,0.26,1.52,0.52,2.23,0.8
	c0.58,0.23,0.25,0.75-0.56,0.84C869.15,827.19,868.13,827.26,867.58,827.31z"/>
<path d="M594.58,836.08c-0.05,0.6-0.02,1.07-1.03,1.49c-0.17,0.07-0.32,0.15-0.42,0.23c-0.68,0.53-1.35,1.07-3.22,1.37
	c-2.66,0.43-5.39,0.83-8.53,0.77c-0.93-0.02-1.7-0.12-2.3-0.31c-0.4-0.13-0.63-0.28-0.49-0.45c0.28-0.33,0.89-0.66,0.9-0.98
	c0.02-0.84,2.03-1.19,4.33-1.48c0.82-0.1,1.75-0.14,2.64-0.18c1.26-0.06,2.24-0.25,3.04-0.53c0.67-0.24,1.35-0.47,2.07-0.69
	c0.59-0.18,2.02-0.14,2.3,0.08C594.21,835.65,594.43,835.93,594.58,836.08z"/>
<path d="M168.57,869.5c0.81-0.53,1.37-0.95,2.79-1.15c0.24-0.03,0.47-0.08,0.66-0.13c1.26-0.35,2.54-0.72,4.56-0.67
	c2.88,0.08,5.78,0.19,8.47,0.77c0.8,0.17,1.35,0.4,1.63,0.67c0.19,0.18,0.2,0.36-0.15,0.49c-0.66,0.24-1.61,0.43-2.03,0.72
	c-1.08,0.74-3.29,0.71-5.68,0.58c-0.85-0.05-1.71-0.18-2.55-0.29c-1.19-0.16-2.28-0.16-3.34-0.05c-0.88,0.1-1.78,0.19-2.69,0.26
	c-0.75,0.06-1.94-0.23-1.91-0.47C168.36,869.94,168.52,869.65,168.57,869.5z"/>
<path d="M196.53,849.95c1.61,0.09,2.87,0.13,3.86,0.54c0.17,0.07,0.36,0.13,0.56,0.18c1.33,0.31,2.7,0.61,3.24,1.33
	c0.78,1.02,1.49,2.06,0.91,3.2c-0.17,0.34-0.55,0.61-1.15,0.81c-0.4,0.13-0.85,0.2-1.29,0.13c-0.85-0.14-1.65-0.4-2.51-0.44
	c-2.26-0.1-2.93-0.87-3.4-1.75c-0.17-0.31-0.13-0.65-0.13-0.98c0-0.47-0.36-0.84-1.02-1.17c-0.54-0.27-1.08-0.54-1.58-0.83
	c-0.41-0.23-0.09-0.75,0.54-0.83C195.32,850.04,196.11,849.99,196.53,849.95z"/>
<path d="M283.79,855.49c-2.14-0.05-3.8-0.07-5.19-0.46c-0.23-0.07-0.5-0.12-0.77-0.17c-1.8-0.28-3.66-0.56-4.51-1.26
	c-1.21-1-2.33-2.03-1.77-3.18c0.17-0.34,0.61-0.62,1.37-0.83c0.5-0.14,1.08-0.22,1.68-0.15c1.14,0.12,2.24,0.36,3.39,0.38
	c2.99,0.05,4.02,0.81,4.79,1.67c0.27,0.31,0.29,0.65,0.35,0.98c0.08,0.47,0.63,0.84,1.55,1.14c0.76,0.26,1.52,0.52,2.23,0.8
	c0.58,0.23,0.25,0.75-0.56,0.84C285.36,855.37,284.34,855.44,283.79,855.49z"/>
<path d="M602.7,845.71c0.6,0.1,1.31,0.19,2.02,0.18c0.64-0.02,1.3-0.07,1.96-0.13c-0.1-0.49,0.73-1.09,2.52-1.23
	c0.12-0.01,0.21,0,0.32-0.01c0.04-0.01,0.08-0.02,0.12-0.03c2.89-0.51,5.98-0.57,8.95-0.84c3.11-0.29,6.22-0.56,9.33-0.81
	c3.24-0.25,6.49-0.51,9.73-0.8c2.25-0.21,4.4-0.46,6.49-0.29c0.43-0.04,0.86-0.08,1.29-0.11c1.73-0.21,3.46-0.44,5.2-0.59
	c0.17-0.04,0.34-0.08,0.52-0.11c0.42-0.22,1.05-0.4,1.93-0.47c0.61-0.22,1.36-0.42,2.29-0.58c1.96-0.34,3.52-0.9,4.72-1.59
	c0.8-0.46,1.44-0.97,2.45-1.36c1.24-0.48,2.94-0.31,4.41-0.52c0.15-0.02,0.3-0.04,0.45-0.06c1.27-0.18,2.22-0.51,2.89-0.95
	c0.42-0.28,0.47-0.55,0.18-0.8c-0.34-0.29-0.91-0.5-1.68-0.62c-2.56-0.41-5.29-0.38-8.2,0.28c-1.12,0.25-2.24,0.53-3.21,0.86
	c-1.97,0.66-3.83,1.37-5.76,2.05c-0.46,0.16-0.99,0.31-1.53,0.43c-0.16,0.04-0.65-0.03-0.68-0.09c-0.07-0.2-0.13-0.43,0.04-0.63
	c0.37-0.45,1.19-0.85,2.04-1.23c1.7-0.77,2.94-1.62,4.13-2.48c0.58-0.42,0.26-0.76-0.75-0.93c-0.76-0.13-1.56-0.2-2.49-0.17
	c-1.37,0.05-2.72,0.2-4.05,0.43c-1.32,0.23-2.62,0.48-3.94,0.71c-0.42,0.07-1.01,0-1.06-0.13c-0.08-0.26-0.04-0.55-0.22-0.8
	c-0.61-0.85-2.85-1.28-5.41-0.96c-1.66,0.21-3.27,0.39-4.94,0.44c-0.68,0.02-1.45,0.23-2.17,0.36c-1.01,0.18-2.02,0.45-3.03,0.54
	c-1.82,0.16-3.19,0.49-4.31,1.09c-0.59,0.32-1.55,0.44-2.46,0.56c-3.26,0.42-5.43,1.32-7.25,2.39c-1.3,0.76-0.86,2.01,1.42,2.16
	c0.42,0.03,0.87,0.06,1.16,0.15c0.27,0.09,0.41,0.25,0.49,0.39c0.05,0.1-0.07,0.22-0.15,0.33c-1.27,1.77-0.42,1.54-4.94,2.66
	c-2.87,0.71-5.49,1.58-8.54,2.18C601.82,844.82,601.66,845.53,602.7,845.71z"/>
<path d="M795.39,801c-0.39-0.25-0.88-0.52-1.49-0.69c-0.88-0.25-1.9-0.44-2.87-0.64c-2.79-0.58-5.51-1.2-8.29-1.98
	c1.25-0.16,2.47,0.01,3.57-0.03c1.34-0.05,2.52-0.19,3.36-0.56c0.44-0.2,0.99-0.36,1.35-0.58c1.04-0.62,1.82-1.29,1.41-2.12
	c-0.29-0.6-1.14-1.1-2.62-1.42c-0.21-0.05-0.43-0.09-0.64-0.13c-0.42,0.03-0.85,0.05-1.28,0.04c-0.87-0.01-1.75-0.03-2.63-0.08
	c-0.75-0.05-1.56-0.12-2.32-0.24c-0.02,0-0.03,0-0.05,0.01c-1.7,0.24-3.48,0.43-5.17,0.68c-2.11,0.31-4.33,0.16-6.54-0.2
	c-1.58-0.26-3.09-0.6-4.62-0.92c-0.85-0.18-1.5-0.45-2.01-0.77c-0.05-0.03-0.1-0.07-0.16-0.1c-0.2-0.01-0.4-0.02-0.6-0.04
	c-2.89-0.18-5.74-0.47-8.62-0.72c-0.43-0.04-0.86-0.07-1.28-0.11c-0.6,0.06-1.1,0.18-1.47,0.38c-0.24,0.13-0.48,0.25-0.69,0.39
	c-1.29,0.85-3.17,1.23-6.16,0.88c-1.98-0.23-3.86-0.16-5.59,0.12c-1.15,0.18-2.22,0.46-3.46,0.53c-1.53,0.08-2.76-0.52-4.21-0.72
	c-0.15-0.02-0.29-0.05-0.44-0.07c-1.24-0.18-2.38-0.15-3.4,0.06c-0.65,0.13-0.97,0.35-0.99,0.65c-0.02,0.34,0.22,0.67,0.73,0.99
	c1.69,1.04,3.99,1.74,7.09,1.94c1.19,0.08,2.41,0.14,3.57,0.11c2.33-0.05,4.62-0.17,6.94-0.25c0.56-0.02,1.15-0.01,1.72,0.03
	c0.17,0.01,0.51,0.2,0.47,0.26c-0.15,0.19-0.34,0.4-0.7,0.54c-0.78,0.3-1.89,0.42-2.99,0.53c-2.22,0.22-4.15,0.62-6.03,1.05
	c-0.92,0.21-1.02,0.59-0.36,1.01c0.49,0.31,1.08,0.59,1.89,0.81c1.19,0.32,2.47,0.55,3.82,0.7c1.34,0.15,2.68,0.29,4.01,0.43
	c0.42,0.05,0.84,0.27,0.73,0.4c-0.21,0.25-0.55,0.49-0.66,0.75c-0.39,0.9,1.01,1.87,3.47,2.27c1.6,0.26,3.12,0.53,4.56,0.94
	c0.59,0.17,1.44,0.18,2.18,0.26c1.03,0.11,2.15,0.14,3.08,0.34c1.67,0.35,3.16,0.42,4.72,0.2c0.82-0.12,1.76,0.03,2.64,0.17
	c3.15,0.5,5.9,0.3,8.53-0.14c1.88-0.31,2.84-1.51,1.11-2.25c-0.31-0.13-0.66-0.28-0.8-0.44c-0.13-0.15-0.08-0.32,0-0.47
	c0.05-0.1,0.29-0.17,0.47-0.25c2.92-1.2,1.98-1.22,6.9-0.99c3.13,0.15,6.21,0.09,9.37,0.38C795.19,802,796.06,801.43,795.39,801z"/>
<path d="M505.2,804.55c-0.46,0.06-0.95,0.11-1.43,0.13c2.08-0.04,4.17-0.06,6.26-0.06c0.94,0,1.89,0,2.83,0
	c0.62-0.02,1.24-0.03,1.86-0.06c0.43-0.02,0.81,0,1.13,0.05c1.05-0.01,2.1-0.01,3.16-0.03c1.31-0.02,2.59-0.07,3.84-0.06
	c-1.9-0.84-4.32-1.29-7.37-1.18c-1.19,0.04-2.4,0.11-3.53,0.25C509.68,803.89,507.46,804.24,505.2,804.55z"/>
<path d="M456.77,804.51c0.93,0.16,1.97,0.25,2.98,0.35c0.12,0.01,0.23,0.03,0.35,0.04c1.4-0.04,2.85-0.01,4.14,0.02
	c4.93,0.13,9.98,0.15,14.93,0.12c5.74-0.03,11.48-0.13,17.23-0.16c2.34-0.08,4.68-0.14,7.03-0.19c-0.19-0.03-0.47-0.14-0.45-0.2
	c0.1-0.21,0.23-0.44,0.55-0.61c0.69-0.37,1.74-0.61,2.8-0.83c2.13-0.44,3.91-1.04,5.66-1.65c0.85-0.3,0.85-0.69,0.1-1.04
	c-0.56-0.26-1.21-0.48-2.06-0.61c-1.25-0.2-2.56-0.3-3.92-0.31c-1.35-0.01-2.7-0.01-4.05-0.02c-0.43,0-0.89-0.18-0.82-0.32
	c0.14-0.27,0.41-0.54,0.46-0.81c0.16-0.94-1.46-1.76-3.99-1.9c-1.64-0.1-3.2-0.21-4.71-0.47c-0.62-0.1-1.46-0.03-2.21-0.04
	c-1.04-0.01-2.15,0.07-3.11-0.03c-1.73-0.18-3.21-0.1-4.68,0.28c-0.78,0.2-1.73,0.15-2.63,0.1c-3.22-0.18-5.86,0.3-8.33,1
	c-1.76,0.5-2.4,1.79-0.52,2.35c0.34,0.1,0.72,0.22,0.9,0.36c0.17,0.13,0.16,0.31,0.11,0.47c-0.03,0.1-0.24,0.2-0.4,0.29
	c-2.56,1.48-1.63,1.41-6.52,1.68c-3.1,0.17-6.12,0.54-9.3,0.57c-1.22,0.01-1.94,0.67-1.17,1.03
	C455.58,804.18,456.14,804.4,456.77,804.51z"/>
<path d="M388.66,856.37c-0.72,0.08-1.48,0.11-2.16,0.22c-2.34,0.38-3.62,1.29-2.88,2.19c0.48,0.58,0.88,1.15,0.92,1.77
	c0.02,0.25,0.56,0.5,0.87,0.74c0.44,0.35,1.12,0.67,1.3,1.04c0.32,0.65,1.15,1.1,2.72,1.41c0.82,0.16,1.12,0.5,1.39,0.82
	c0.97,1.14,3.29,1.79,6.07,2.28c1.99,0.35,5.39-0.04,5.92-0.91c0.1-0.16,0.21-0.34,0.47-0.46c0.25-0.12,0.69-0.2,1.08-0.25
	c0.26-0.04,0.59-0.01,0.89,0c4.72,0.16,4.14-0.12,6.93,1.37c1.77,0.94,3.98,1.77,5.44,2.8c0.56,0.4,2.46,0.33,3-0.09
	c0.32-0.24,0.59-0.52,0.58-0.79c-0.01-0.38-0.27-0.76-0.46-1.14c-0.56-1.08-0.95-2.17-1.03-3.37c1.2,0.26,1.64,0.69,2.49,0.97
	c1.02,0.34,2.13,0.6,3.55,0.62c0.75,0.02,1.5,0.08,2.24,0.06c2.12-0.05,4.18-0.19,5.83-0.76c1.19-0.41,1.76-0.91,1.5-1.49
	c-0.41-0.9-1.42-1.67-3.73-2.13c-1.7-0.34-3.33-0.73-5.04-1.06c-2.15-0.41-3.28-1.11-3.95-1.91c-0.48-0.58-0.7-1.18-0.99-1.78
	c-0.16-0.33,0.03-0.66,0.41-0.97c0.56-0.45,1.16-0.9,1.74-1.35c0.17-0.13-0.1-0.38-0.45-0.42c-0.72-0.07-1.44-0.13-2.16-0.18
	c-1.12-0.07-1.91-0.27-2.36-0.67c-0.23-0.2-0.56-0.39-0.9-0.57c-0.64-0.34-1.55-0.5-2.68-0.49c-0.45,0-0.9,0-1.35,0.02
	c-2.82,0.1-4.96-0.21-6.17-1.22c-0.81-0.67-2.25-1.15-4.04-1.48c-1.19-0.22-2.55-0.36-3.54-0.67c-1.22-0.38-0.68-1.04-1.18-1.55
	c-0.05-0.05-0.09-0.11-0.14-0.16c-0.33-0.33-0.88-0.58-1.64-0.76c-0.01,0.05-0.03,0.1-0.06,0.14c-0.16,0.21-0.63,0.48-1.2,0.58
	c-0.65,0.12-1.13,0.17-1.87,0.19c-0.54,0.01-1.2-0.03-1.72-0.13c-1.1,0.98-1.1,1.96,0.45,2.88c0.62,0.37,1.31,0.74,2.15,1.05
	c1.69,0.62,3.51,1.18,5.25,1.78c0.42,0.14,0.8,0.31,1.1,0.49c0.09,0.05-0.11,0.25-0.27,0.27c-0.55,0.06-1.16,0.13-1.71,0.1
	c-1.21-0.06-2.24-0.29-3.23-0.54c-1.99-0.5-4.23-0.81-6.48-1.1c-1.1-0.14-2.04,0.04-2.56,0.45c-0.39,0.31-0.63,0.62-0.58,0.96
	c0.07,0.5,0.39,0.98,0.95,1.44c0.56,0.45,1.15,0.89,1.72,1.34C389.26,856.09,389.03,856.33,388.66,856.37z"/>
<path d="M265.18,831.78c0.54,1.03,1.31,1.81,2.23,2.49c0.32,0.24,0.7,0.45,0.86,0.79c0.11,0.23-0.03,0.62-0.22,1
	c-0.32,0.65-2,1.68-2.66,1.61c-1.71-0.18-4,0.2-5.95,0.26c-3.08,0.09-2.45,0.04-6.74,2.3c-0.27,0.14-0.58,0.29-0.8,0.46
	c-0.33,0.25-0.69,0.55-0.87,0.78c-0.19,0.25-0.22,0.46-0.25,0.65c-0.14,1.06-3.03,3.13-4.95,3.83c-2.68,0.98-5.01,1.58-6.32,1.05
	c-0.37-0.15-0.76-0.3-1.56-0.03c-1.53,0.52-2.44,0.54-2.99,0.12c-0.3-0.23-1.03-0.18-1.56-0.27c-0.38-0.06-0.95-0.01-1.07-0.22
	c-0.27-0.53-0.85-0.84-1.51-1.12c-1.01-0.43-0.22-1.89,1.73-3.43c0.56-0.44,1.24-0.86,1.85-1.3c0.31-0.22,0.43-0.55,0.21-0.59
	c-0.68-0.11-1.38-0.21-2.06-0.33c-0.68-0.12-1.15-0.39-1.41-0.8c-0.18-0.28-0.08-0.68,0.15-1.16c0.31-0.63,1.08-1.27,2.11-1.7
	c2.13-0.89,4.25-1.75,6.23-2.32c0.98-0.28,2-0.59,3.1-1.16c0.51-0.26,1.03-0.62,1.49-0.96c0.14-0.1,0.24-0.38,0.14-0.38
	c-0.34-0.01-0.74,0.03-1.17,0.12c-1.79,0.35-3.64,0.77-5.39,1.07c-0.87,0.15-1.63,0.17-2.33,0.16c-1.82-0.05-2.16-0.99-1.45-2.54
	c0.22-0.47,0.66-1,1.3-1.56c0.56-0.49,1.2-0.89,1.9-1.16c1.1-0.43,1.97-0.6,2.53-0.42c0.07,0.02,0.12,0.05,0.18,0.07
	c0.65,0.2,0.42,1.07,1.66,0.79c1-0.23,2.28-0.79,3.43-1.2c1.74-0.62,3.21-0.92,4.19-0.73c1.48,0.29,3.51-0.51,6-2.04
	c0.39-0.24,0.8-0.47,1.2-0.7c1.01-0.58,1.89-0.9,2.59-0.92c0.37-0.01,0.74-0.01,1.02,0.05c0.56,0.12,1.35-0.1,2.37-0.61
	c0.67-0.33,1.34-0.64,2.01-0.94c0.33-0.15,0.67-0.06,0.57,0.14c-0.34,0.7-0.7,1.4-1.03,2.1c-0.22,0.47-0.27,0.86,0.01,1.08
	c0.49,0.39,0.92,0.82,1.57,1.09c0.91,0.38,2.19,0.43,4.28-0.29c1.66-0.58,3.27-1.05,4.92-1.61c2.25-0.76,3.45-0.59,4.16,0.01
	c0.46,0.39,0.15,1.13-0.76,2.1c-1.26,1.35-3.05,2.53-4.93,3.65c-0.66,0.39-1.35,0.72-2.03,1.08c-1.29,0.7-2.38,1.03-3.43,1.25
	C266.91,831.56,266.36,831.39,265.18,831.78z"/>
<path d="M287.44,812.38c0.08,1.19,0.47,2.28,1.03,3.37c0.2,0.38,0.45,0.76,0.46,1.14c0.01,0.26-0.27,0.54-0.58,0.79
	c-0.54,0.42-2.44,0.49-3,0.09c-1.46-1.03-3.67-1.85-5.44-2.8c-2.79-1.49-2.21-1.21-6.93-1.37c-0.3-0.01-0.63-0.03-0.89,0
	c-0.4,0.06-0.83,0.14-1.08,0.25c-0.26,0.12-0.38,0.3-0.47,0.46c-0.53,0.88-3.93,1.26-5.92,0.91c-2.79-0.49-5.1-1.14-6.07-2.28
	c-0.27-0.32-0.56-0.66-1.39-0.82c-1.57-0.31-2.4-0.76-2.72-1.41c-0.18-0.36-0.86-0.69-1.3-1.04c-0.31-0.25-0.85-0.49-0.87-0.74
	c-0.04-0.62-0.44-1.18-0.92-1.77c-0.74-0.9,0.53-1.81,2.88-2.19c0.68-0.11,1.44-0.15,2.16-0.22c0.37-0.04,0.6-0.28,0.42-0.42
	c-0.57-0.45-1.16-0.89-1.72-1.34c-0.56-0.45-0.88-0.93-0.95-1.44c-0.05-0.34,0.19-0.65,0.58-0.96c0.52-0.41,1.46-0.59,2.56-0.45
	c2.26,0.29,4.49,0.6,6.48,1.1c0.99,0.25,2.02,0.48,3.23,0.54c0.55,0.03,1.16-0.04,1.71-0.1c0.16-0.02,0.36-0.21,0.27-0.27
	c-0.3-0.18-0.68-0.35-1.1-0.49c-1.74-0.6-3.56-1.16-5.25-1.78c-0.84-0.3-1.53-0.67-2.15-1.05c-1.61-0.97-1.56-1.98-0.31-3.01
	c0.38-0.31,0.98-0.56,1.77-0.74c0.69-0.15,1.42-0.18,2.15-0.08c1.16,0.17,2,0.47,2.43,0.91c0.05,0.05,0.09,0.11,0.14,0.16
	c0.5,0.51-0.04,1.17,1.18,1.55c0.99,0.31,2.35,0.45,3.54,0.67c1.8,0.33,3.24,0.81,4.04,1.48c1.21,1.01,3.35,1.33,6.17,1.22
	c0.45-0.02,0.9-0.02,1.35-0.02c1.13-0.01,2.04,0.15,2.68,0.49c0.34,0.18,0.67,0.37,0.9,0.57c0.46,0.39,1.25,0.59,2.36,0.67
	c0.73,0.05,1.45,0.11,2.16,0.18c0.35,0.03,0.62,0.29,0.45,0.42c-0.58,0.45-1.18,0.9-1.74,1.35c-0.38,0.31-0.58,0.64-0.41,0.97
	c0.29,0.6,0.51,1.2,0.99,1.78c0.67,0.8,1.8,1.5,3.95,1.91c1.71,0.33,3.34,0.72,5.04,1.06c2.31,0.46,3.32,1.23,3.73,2.13
	c0.27,0.58-0.31,1.09-1.5,1.49c-1.65,0.57-3.71,0.71-5.83,0.76c-0.74,0.02-1.49-0.04-2.24-0.06c-1.43-0.03-2.53-0.28-3.55-0.62
	C289.09,813.07,288.65,812.64,287.44,812.38z"/>
<path d="M110.95,858.64c0.12-1.19-0.07-2.34-0.43-3.53c-0.13-0.41-0.31-0.85-0.26-1.22c0.04-0.26,0.36-0.47,0.71-0.64
	c0.61-0.29,2.48,0.08,2.96,0.59c1.25,1.34,3.27,2.65,4.85,3.97c2.48,2.09,1.96,1.69,6.56,2.92c0.29,0.08,0.61,0.18,0.87,0.2
	c0.4,0.03,0.84,0.06,1.11,0c0.28-0.06,0.42-0.21,0.54-0.34c0.68-0.74,4.08-0.34,5.96,0.45c2.65,1.11,4.81,2.27,5.56,3.61
	c0.21,0.37,0.44,0.77,1.22,1.12c1.49,0.66,2.22,1.29,2.43,2c0.12,0.4,0.72,0.87,1.09,1.31c0.27,0.31,0.75,0.68,0.73,0.93
	c-0.07,0.61,0.23,1.26,0.6,1.94c0.57,1.05-0.84,1.65-3.2,1.49c-0.68-0.05-1.44-0.19-2.16-0.27c-0.37-0.04-0.64,0.13-0.48,0.31
	c0.48,0.57,0.98,1.14,1.45,1.7c0.47,0.57,0.7,1.11,0.69,1.62c-0.01,0.35-0.3,0.6-0.74,0.81c-0.58,0.28-1.53,0.24-2.58-0.14
	c-2.16-0.8-4.3-1.61-6.17-2.55c-0.93-0.47-1.9-0.93-3.07-1.26c-0.54-0.15-1.15-0.23-1.7-0.29c-0.16-0.02-0.39,0.13-0.32,0.2
	c0.26,0.24,0.6,0.49,0.99,0.73c1.61,0.98,3.29,1.95,4.84,2.94c0.77,0.49,1.38,1.01,1.93,1.51c1.42,1.31,1.18,2.3-0.21,3.02
	c-0.42,0.22-1.05,0.33-1.87,0.32c-0.7,0-1.42-0.14-2.12-0.41c-1.11-0.43-1.88-0.91-2.22-1.44c-0.04-0.06-0.07-0.12-0.11-0.18
	c-0.41-0.61,0.25-1.14-0.89-1.79c-0.92-0.53-2.22-0.98-3.36-1.46c-1.71-0.73-3.04-1.53-3.71-2.37c-1.01-1.27-3.06-2.06-5.84-2.6
	c-0.44-0.09-0.88-0.19-1.33-0.29c-1.11-0.25-1.98-0.61-2.55-1.09c-0.3-0.25-0.59-0.51-0.78-0.76c-0.38-0.49-1.12-0.87-2.2-1.19
	c-0.71-0.21-1.4-0.44-2.09-0.67c-0.34-0.11-0.56-0.42-0.37-0.51c0.64-0.31,1.31-0.61,1.94-0.93c0.43-0.21,0.67-0.49,0.57-0.86
	c-0.18-0.65-0.29-1.29-0.66-1.97c-0.51-0.94-1.51-1.88-3.54-2.77c-1.62-0.71-3.15-1.46-4.76-2.18c-2.19-0.97-3.05-1.96-3.29-2.93
	c-0.16-0.63,0.49-1,1.73-1.12c1.72-0.18,3.76,0.14,5.85,0.58c0.73,0.15,1.45,0.38,2.18,0.57c1.39,0.35,2.43,0.85,3.38,1.42
	C109.45,857.6,109.81,858.12,110.95,858.64z"/>
<path d="M683.2,799.94c2.86,1.23,5.43,2.21,7.96,3.1c0.88,0.31,1.76,0.59,2.68,1c0.63,0.28,1.34,0.71,1.98,1.12
	c1.09,0.71,1.52,1.69,0.64,1.53c-2.28-0.4-3.95-0.23-5.97-0.39c-3.19-0.25-2.61-0.24-2.32,1.85c0.02,0.13,0.01,0.27,0.13,0.43
	c0.19,0.25,0.44,0.54,0.76,0.79c0.33,0.26,0.78,0.5,1.17,0.72c2.19,1.19,3.59,3.23,3.03,3.8c-0.78,0.81-2.02,1.22-4.63,0.47
	c-0.73-0.21-1.5-0.43-1.78-0.21c-0.52,0.42-1.5,0.33-3.02-0.21c-0.85-0.3-1.54-0.33-2.31-0.49c-0.55-0.11-1.06-0.12-1.67-0.38
	c-1.48-0.64-2.79-1.05-4.12-1.44c-2.06-0.6-4.43-2.18-5.68-3.71c-0.36-0.44-0.55-0.84-0.84-1.27c-0.15-0.22-0.75-0.58-1.07-0.65
	c-1-0.21-1.99-0.4-2.99-0.61c-1.01-0.22-2.12-0.58-3.32-1.08c-0.81-0.34-1.6-0.79-2.4-1.3c-1.06-0.68-1.62-1.32-1.44-1.7
	c0.38-0.77,0.82-1.5,1.73-1.93c0.46-0.21,0.88-0.45,0.85-0.97c-0.02-0.24-0.25-0.59-0.48-0.92c-0.07-0.1-0.57-0.4-0.68-0.42
	c-0.39-0.05-0.74-0.05-1.03,0c-1.19,0.2-2.3,0.46-3.55,0.61c-0.62,0.07-1.41,0.01-2.22-0.09c-2.1-0.26-4.56-1.37-7.2-3.06
	c-0.8-0.51-1.48-1.06-2.03-1.63c-0.47-0.49-0.64-0.88-0.49-1.11c0.25-0.37,0.85-0.45,1.85-0.19c0.12,0.03,0.24,0.07,0.36,0.1
	c1.16,0.3,2.83,1.27,3.57,1.09c0.6-0.15,0.76-0.64,1.12-0.98c0.53-0.51,1.49-0.69,2.99-0.35c2.27,0.5,2.73-0.18,2.08-1.64
	c-0.1-0.23-0.16-0.45-0.23-0.66c-0.18-0.55,0.08-0.81,0.8-0.76c0.38,0.03,0.79,0.07,1.24,0.17c0.88,0.2,1.26,0.04,1.27-0.42
	c0.01-0.3,0.07-0.57,0.13-0.84c0.03-0.13,0.6,0.01,0.94,0.23c1.17,0.76,2.33,1.52,3.5,2.27c0.8,0.51,1.61,0.95,2.39,1.23
	c1.39,0.5,2.82,1.04,4.14,1.42c1.84,0.54,3.36,0.74,4.05,0.16c0.56-0.47,1.27-0.82,1.85-1.27c0.78-0.61,2.49-0.28,4.6,0.49
	c1.37,0.5,2.66,1.31,3.81,2.31c1.6,1.39,2.24,2.53,2.65,3.6c0.15,0.37,0.1,0.66,0.17,1c0.13,0.65-0.33,0.9-1.01,1.03
	C684.63,799.89,683.65,799.64,683.2,799.94z"/>
<path d="M703.31,813.02c-1.35-0.22-2.3-0.36-3.24-0.53c-1.37-0.24-2.54-0.57-3.51-1c-0.9-0.4-0.87-0.95,0.06-1.37
	c0.68-0.31,1.47-0.56,2.47-0.71c1.26-0.19,2.53-0.37,3.81-0.52c1.78-0.21,2.84-0.57,2.71-1.32c-0.16-0.9,0.49-1.75,1.36-2.59
	c0.93-0.89,3.12-1.37,5.74-1.19c1.76,0.12,3.48,0.32,5.2,0.5c1.15,0.12,2.27,0.27,3.41,0.4c0.51,0.06,1.19-0.14,1.27-0.36
	c0.12-0.33,0.18-0.66,0.35-0.98c0.16-0.3,1.63-0.48,2.24-0.28c0.44,0.14,0.77,0.33,1.17,0.49c0.51,0.2,1.08,0.25,1.59,0.14
	c1.04-0.22,2.05-0.47,3.11-0.68c1.1-0.23,2.29-0.28,3.49-0.18c0.59,0.05,1.15,0.19,1.24,0.43c0.19,0.49,0.33,0.98,0.35,1.47
	c0.03,0.66-0.07,1.33-0.09,1.99c-0.01,0.42,0.49,0.76,1.56,0.91c1.69,0.24,3.21,0.58,4.66,0.97c0.96,0.26,1.85,0.55,2.72,0.85
	c0.89,0.3,1.47,0.68,1.93,1.1c0.54,0.49,0.53,0.94-0.11,1.43c-1.56,1.21-4.26,1.99-7.23,2.68c-0.76,0.18-1.65,0.28-2.45,0.43
	c-1.71,0.33-2.14,0.46-1.94,1.33c0.09,0.38,0.42,0.75,0.59,1.13c0.21,0.45-0.02,0.88-0.49,1.3c-0.44,0.39-2.13,0.6-3.07,0.34
	c-0.71-0.19-1.38-0.42-1.96-0.66c-1.64-0.7-3.74-0.86-6.1-0.73c-0.89,0.05-1.75,0.17-2.63,0.23c-3.68,0.28-7.41,0.47-10.99,0.91
	c-0.28,0.04-0.58,0.06-0.88,0.08c-3.44,0.26-4.45,0.12-6.59-0.87c-0.57-0.27-0.92-0.56-1-0.9c-0.26-1.05-0.15-2.1,0.52-3.13
	C702.82,813.78,703.02,813.47,703.31,813.02z"/>
<path d="M627.56,818.21c-1.32,0.25-2.24,0.43-3.18,0.6c-1.37,0.25-2.82,0.38-4.35,0.39c-1.43,0.01-2.57-0.34-2.86-0.86
	c-0.22-0.38-0.25-0.77,0.07-1.15c0.41-0.48,0.84-0.95,1.34-1.41c0.69-0.64,0.61-1.17-1.06-1.59c-2-0.51-3.39-1.22-4.6-1.99
	c-1.3-0.82-0.9-1.74,1.15-2.38c1.38-0.43,2.9-0.8,4.38-1.18c0.99-0.26,2.02-0.48,3.03-0.73c0.44-0.11,0.47-0.43,0.06-0.59
	c-0.61-0.24-1.27-0.46-1.85-0.71c-0.52-0.23,0.03-0.76,0.83-0.82c0.58-0.04,1.19-0.01,1.79-0.03c0.74-0.02,1.21-0.16,1.31-0.37
	c0.19-0.44,0.33-0.88,0.54-1.31c0.22-0.45,0.87-0.83,1.86-1.11c0.49-0.14,1.14-0.21,1.69-0.09c1.15,0.25,2.28,0.51,3.34,0.81
	c1.42,0.4,2.75,0.84,4.14,1.25c0.89,0.27,1.92,0.33,2.93,0.12c1.59-0.33,3.28-0.56,5.03-0.74c1.16-0.12,2.35-0.19,3.53-0.26
	c1.21-0.07,2.38,0,3.55,0.12c1.38,0.15,2.32,0.43,2.96,0.92c1.56,1.2,1.49,2.45,1.03,3.72c-0.12,0.33-0.47,0.64-0.66,0.97
	c-0.4,0.69-0.4,0.9,1.56,1.37c0.86,0.21,1.86,0.35,2.77,0.53c1.08,0.22,1.84,0.55,2.43,0.94c0.55,0.37-0.1,0.98-1.24,1.09
	c-0.86,0.08-1.76,0.14-2.65,0.15c-2.51,0.04-4.2,0.54-5.44,1.29c-0.47,0.28-0.77,0.6-1.19,0.9c-1.76,1.23-3.75,2.41-5.11,3.71
	c-0.11,0.1-0.25,0.2-0.39,0.3c-1.65,1.15-2.58,1.35-6.06,1.35c-0.93,0-1.78-0.09-2.54-0.27c-2.38-0.58-4.52-1.25-6.28-2.08
	C628.86,818.83,628.32,818.57,627.56,818.21z"/>
<path d="M307.06,871.88c-1.02,0.99-1.73,1.69-2.46,2.39c-1.07,1.02-2.25,1.99-3.55,2.89c-1.22,0.85-2.35,1.22-2.84,0.94
	c-0.36-0.2-0.56-0.51-0.45-1.03c0.14-0.65,0.3-1.31,0.52-2c0.31-0.96,0-1.36-1.62-0.74c-1.94,0.74-3.45,0.95-4.84,1
	c-1.48,0.06-1.56-0.96-0.08-2.72c0.99-1.18,2.13-2.39,3.23-3.59c0.73-0.8,1.52-1.61,2.27-2.41c0.33-0.36,0.21-0.64-0.21-0.54
	c-0.63,0.16-1.3,0.36-1.9,0.48c-0.55,0.11-0.32-0.67,0.35-1.19c0.48-0.38,1.01-0.71,1.52-1.08c0.63-0.46,0.97-0.85,0.95-1.09
	c-0.03-0.49-0.11-0.95-0.12-1.45c-0.01-0.52,0.37-1.22,1.1-2.05c0.36-0.4,0.88-0.85,1.41-1.07c1.1-0.46,2.19-0.9,3.23-1.27
	c1.4-0.49,2.74-0.9,4.11-1.36c0.88-0.3,1.8-0.85,2.57-1.63c1.21-1.22,2.56-2.42,3.98-3.59c0.94-0.78,1.93-1.54,2.91-2.3
	c1-0.77,2.04-1.4,3.1-1.98c1.25-0.69,2.18-1,2.94-0.95c1.88,0.11,2.37,1.23,2.55,2.59c0.05,0.35-0.11,0.83-0.13,1.22
	c-0.03,0.83,0.06,1,1.96,0.26c0.83-0.33,1.75-0.8,2.61-1.17c1.02-0.45,1.82-0.61,2.5-0.62c0.63-0.01,0.35,0.9-0.57,1.67
	c-0.7,0.58-1.45,1.16-2.21,1.69c-2.14,1.51-3.36,2.94-4.09,4.32c-0.27,0.52-0.39,0.97-0.62,1.47c-0.96,2.09-2.14,4.28-2.72,6.2
	c-0.05,0.15-0.13,0.32-0.2,0.49c-0.9,1.96-1.61,2.68-4.59,4.72c-0.8,0.55-1.56,0.97-2.3,1.26c-2.3,0.91-4.44,1.59-6.31,1.91
	C308.45,871.64,307.87,871.74,307.06,871.88z"/>
<path d="M307.65,803.32c-1.32,0.25-2.24,0.43-3.18,0.6c-1.37,0.25-2.82,0.38-4.35,0.39c-1.43,0.01-2.57-0.34-2.86-0.86
	c-0.22-0.38-0.25-0.77,0.07-1.15c0.41-0.48,0.84-0.95,1.34-1.41c0.69-0.64,0.61-1.17-1.06-1.59c-2-0.51-3.39-1.22-4.6-1.99
	c-1.3-0.82-0.9-1.74,1.15-2.38c1.38-0.43,2.9-0.8,4.38-1.18c0.99-0.26,2.02-0.48,3.03-0.73c0.44-0.11,0.47-0.43,0.06-0.59
	c-0.61-0.24-1.27-0.46-1.85-0.71c-0.52-0.23,0.03-0.76,0.83-0.82c0.58-0.04,1.19-0.01,1.79-0.03c0.74-0.02,1.21-0.16,1.31-0.37
	c0.19-0.44,0.33-0.88,0.54-1.31c0.22-0.45,0.87-0.83,1.86-1.11c0.49-0.14,1.14-0.21,1.69-0.09c1.15,0.25,2.28,0.51,3.34,0.81
	c1.42,0.4,2.75,0.84,4.14,1.25c0.89,0.27,1.92,0.33,2.93,0.12c1.59-0.33,3.28-0.56,5.03-0.74c1.16-0.12,2.35-0.19,3.53-0.26
	c1.21-0.07,2.38,0,3.55,0.12c1.38,0.15,2.32,0.43,2.96,0.92c1.56,1.2,1.49,2.45,1.03,3.72c-0.12,0.33-0.47,0.64-0.66,0.97
	c-0.4,0.69-0.4,0.9,1.56,1.37c0.86,0.21,1.86,0.35,2.77,0.53c1.08,0.22,1.84,0.55,2.43,0.94c0.55,0.37-0.1,0.98-1.24,1.09
	c-0.86,0.08-1.76,0.14-2.65,0.15c-2.51,0.04-4.2,0.54-5.44,1.29c-0.47,0.28-0.77,0.6-1.19,0.9c-1.76,1.23-3.75,2.41-5.11,3.71
	c-0.11,0.1-0.25,0.2-0.39,0.3c-1.65,1.15-2.58,1.35-6.06,1.35c-0.93,0-1.78-0.09-2.54-0.27c-2.38-0.58-4.52-1.25-6.28-2.08
	C308.95,803.93,308.41,803.68,307.65,803.32z"/>
<path d="M335.54,851.19c1.21,0.76,2.61,1.48,4.6,1.99c1.67,0.42,1.75,0.95,1.06,1.59c-0.5,0.46-0.93,0.94-1.34,1.41
	c-0.33,0.38-0.29,0.76-0.07,1.15c0.3,0.53,1.43,0.87,2.86,0.86c1.53-0.01,2.98-0.14,4.35-0.39c0.94-0.17,1.86-0.35,3.18-0.6
	c0.76,0.36,1.3,0.62,1.85,0.87c1.76,0.83,3.89,1.51,6.28,2.08c0.77,0.19,1.61,0.27,2.54,0.27c3.47,0,4.41-0.2,6.06-1.35
	c0.14-0.1,0.28-0.2,0.39-0.3c1.36-1.3,3.36-2.48,5.11-3.71c0.42-0.29,0.73-0.61,1.19-0.9c1.24-0.75,2.93-1.26,5.44-1.29
	c0.89-0.01,1.79-0.07,2.65-0.15c1.14-0.11,1.79-0.72,1.24-1.09c-0.58-0.39-1.35-0.72-2.43-0.94c-0.91-0.18-1.91-0.32-2.77-0.53
	c-1.96-0.48-1.96-0.68-1.56-1.37c0.19-0.32,0.54-0.64,0.66-0.97c0.16-0.43,0.26-0.87,0.28-1.29c-0.94-0.02-1.91-0.02-2.99-0.01
	c-2.16,0.01-4.36,0.1-6.52,0.07c-0.1,0.03-0.2,0.06-0.31,0.08c-0.4,0.08-0.82,0.15-1.26,0.2c-0.14,0.01-0.27,0.01-0.41,0.02
	c-0.02,0-0.04,0.01-0.06,0.01c-0.31,0.06-0.65,0.09-1,0.09l-0.66,0c-0.47,0-0.91-0.04-1.32-0.12c-0.18-0.05-0.35-0.1-0.53-0.15
	c-0.32-0.12-0.55-0.26-0.67-0.42c-0.03-0.08-0.06-0.17-0.09-0.25c-0.01-0.13,0.06-0.26,0.22-0.37c0.1-0.12,0.28-0.22,0.54-0.31
	c0.02-0.01,0.04-0.01,0.06-0.02c-0.43-0.17-0.71-0.38-0.64-0.62c0.08-0.28,0.14-0.57,0.22-0.86c-0.32,0.06-0.63,0.11-0.94,0.18
	c-1.01,0.21-2.04,0.15-2.93-0.12c-1.39-0.42-2.72-0.86-4.14-1.25c-1.06-0.3-2.19-0.56-3.34-0.81c-0.55-0.12-1.2-0.05-1.69,0.09
	c-0.99,0.28-1.64,0.66-1.86,1.11c-0.21,0.44-0.35,0.88-0.54,1.31c-0.09,0.22-0.56,0.35-1.31,0.37c-0.59,0.02-1.2,0-1.79,0.03
	c-0.8,0.05-1.36,0.59-0.83,0.82c0.57,0.25,1.23,0.47,1.85,0.71c0.41,0.16,0.39,0.48-0.06,0.59c-1,0.25-2.04,0.48-3.03,0.73
	c-1.48,0.38-3,0.75-4.38,1.18C334.64,849.45,334.25,850.38,335.54,851.19z"/>
<path d="M493.39,838.84c1.21,0.76,2.61,1.48,4.6,1.99c1.67,0.42,1.75,0.95,1.06,1.59c-0.5,0.46-0.93,0.94-1.34,1.41
	c-0.33,0.38-0.29,0.76-0.07,1.15c0.2,0.36,0.8,0.63,1.61,0.77c0.44-0.12,0.99-0.2,1.57-0.23c1.37-0.06,2.73-0.08,4.1-0.08
	c0.91-0.17,1.82-0.34,3.1-0.59c0.52,0.24,0.93,0.44,1.31,0.62c2.62,0.03,5.24,0.06,7.86-0.03c2.58-0.09,4.98-0.26,7.59-0.2
	c0.57,0.02,1.14,0.04,1.71,0.06c1.17-0.88,2.51-1.72,3.75-2.58c0.42-0.29,0.73-0.61,1.19-0.9c1.24-0.75,2.93-1.26,5.44-1.29
	c0.89-0.01,1.79-0.07,2.65-0.15c1.14-0.11,1.79-0.72,1.24-1.09c-0.58-0.39-1.35-0.72-2.43-0.94c-0.91-0.18-1.91-0.32-2.77-0.53
	c-1.96-0.48-1.96-0.68-1.56-1.37c0.19-0.32,0.54-0.64,0.66-0.97c0.46-1.27,0.54-2.53-1.03-3.72c-0.64-0.49-1.58-0.77-2.95-0.92
	c-1.17-0.12-2.34-0.19-3.55-0.12c-1.18,0.07-2.38,0.14-3.53,0.26c-1.74,0.17-3.44,0.4-5.03,0.74c-1.01,0.21-2.04,0.15-2.93-0.12
	c-1.39-0.41-2.72-0.86-4.14-1.25c-1.06-0.3-2.19-0.56-3.34-0.81c-0.55-0.12-1.2-0.05-1.69,0.09c-0.99,0.28-1.64,0.66-1.86,1.11
	c-0.21,0.44-0.35,0.88-0.54,1.31c-0.09,0.22-0.56,0.35-1.31,0.37c-0.59,0.02-1.2,0-1.79,0.03c-0.8,0.05-1.36,0.59-0.83,0.82
	c0.57,0.25,1.23,0.47,1.85,0.71c0.41,0.16,0.39,0.48-0.06,0.59c-1,0.25-2.04,0.48-3.03,0.73c-1.48,0.38-3,0.75-4.38,1.18
	C492.48,837.09,492.09,838.02,493.39,838.84z"/>
<path d="M834.49,791.46c2.43-0.44,4.43-0.82,6.48-1.15c2.34-0.38,4.4-0.19,6.11,0.49c0.6,0.24,1.16,0.5,1.7,0.76
	c0.56,0.27,0.55,0.67,0.02,0.93c-0.36,0.18-0.74,0.35-1.16,0.51c-2.13,0.8-3.79,1.73-5.47,2.65c-1.6,0.88-3.04,1.79-5,2.57
	c-0.8,0.32-0.81,0.7-0.36,1.08c0.29,0.25,0.6,0.5,0.99,0.74c1.09,0.65,2.2,1.3,3.35,1.94c0.54,0.3,1.4,0.43,2.34,0.36
	c1.17-0.09,2.39-0.18,3.43-0.38c2.71-0.51,5.64-0.77,8.51-1.09c0.71-0.08,1.46-0.13,2.21-0.15c2.88-0.09,5.23,0.2,7.01,1.1
	c1.62,0.82,2.58,1.71,2.96,2.72c0.19,0.51,0.34,0.97-0.83,1.38c-0.52,0.18-0.79,0.46-1.13,0.71c-0.89,0.63-1.72,0.82-3.55,0.77
	c-1.79-0.06-3.57-0.14-5.23-0.42c-1.25-0.2-2.35-0.05-3.38,0.2c-0.49,0.12-0.85,0.31-1.29,0.46c-0.73,0.24-1.66,0.28-2.47,0.1
	c-0.38-0.08-0.8-0.16-1.12-0.27c-1.1-0.37-2.27-0.7-3.65-0.93c-1.2-0.2-1.69-0.58-1.49-1.09c0.08-0.21-0.05-0.43-0.14-0.65
	c-0.07-0.17-1.03-0.34-1.44-0.27c-0.41,0.07-0.79,0.16-1.18,0.24c-0.72,0.14-1.5,0.17-2.09-0.03c-2.43-0.84-5.36-1.37-8.4-1.83
	c-1.84-0.28-3.34-0.71-4.55-1.29c-1.25-0.59-1.85-1.25-1.38-2.01c0.4-0.65,0.82-1.29,1.29-1.93c0.57-0.76,1.81-1.27,4.07-1.34
	c0.3-0.01,0.6-0.02,0.89-0.05c1.19-0.11,1.93-0.58,1.63-1.03c-0.11-0.16-0.21-0.32-0.38-0.47c-0.99-0.86-1.92-1.73-3.79-2.4
	c-0.31-0.11-0.51-0.27-0.75-0.41c-0.24-0.14,0.07-0.5,0.48-0.59c1.5-0.32,3.05-0.47,4.73-0.23
	C833.11,791.26,833.79,791.36,834.49,791.46z"/>
<path d="M318.15,820.74c-3.47-0.08-6.33-0.17-9.23-0.2c-3.3-0.04-5.82,0.47-7.5,1.4c-0.6,0.33-1.12,0.68-1.61,1.02
	c-0.51,0.36-0.2,0.76,0.69,0.94c0.6,0.12,1.22,0.25,1.88,0.35c3.35,0.49,6.2,1.19,9.07,1.87c2.72,0.65,5.28,1.35,8.4,1.85
	c1.28,0.2,1.58,0.59,1.29,1.04c-0.19,0.3-0.39,0.6-0.71,0.89c-0.91,0.82-1.84,1.65-2.83,2.46c-0.46,0.38-1.48,0.64-2.75,0.71
	c-1.57,0.08-3.21,0.17-4.71,0.13c-3.89-0.12-7.86,0.06-11.8,0.16c-0.98,0.02-1.99,0.09-2.96,0.17c-3.78,0.33-6.59,0.98-8.2,2.16
	c-1.46,1.08-2.02,2.12-1.74,3.19c0.14,0.54,0.3,1.03,2.12,1.27c0.8,0.11,1.36,0.35,1.99,0.55c1.63,0.51,2.84,0.58,5.16,0.25
	c2.27-0.32,4.5-0.68,6.43-1.2c1.45-0.39,2.99-0.41,4.52-0.3c0.72,0.05,1.33,0.19,2.02,0.27c1.12,0.14,2.36,0.03,3.26-0.26
	c0.43-0.14,0.91-0.28,1.24-0.44c1.14-0.54,2.39-1.05,3.99-1.49c1.39-0.39,1.74-0.84,1.09-1.32c-0.27-0.2-0.27-0.45-0.31-0.68
	c-0.03-0.18,1.07-0.5,1.65-0.49c0.58,0.01,1.13,0.04,1.7,0.06c1.04,0.04,2.06-0.05,2.67-0.34c2.5-1.21,5.86-2.19,9.43-3.11
	c2.16-0.56,3.76-1.22,4.89-1.98c1.16-0.78,1.43-1.54,0.25-2.24c-1.01-0.6-2.04-1.19-3.14-1.76c-1.31-0.69-3.29-1.01-6.27-0.75
	c-0.39,0.03-0.79,0.07-1.18,0.08c-1.62,0.07-2.93-0.3-2.88-0.8c0.02-0.18,0.02-0.36,0.13-0.54c0.63-1.02,1.16-2.04,3.06-2.99
	c0.32-0.16,0.46-0.35,0.66-0.52c0.2-0.18-0.48-0.5-1.06-0.53c-2.18-0.1-4.29-0.02-6.27,0.47
	C319.78,820.32,318.97,820.53,318.15,820.74z"/>
<path d="M494.27,858.68c0.53-0.97,0.92-1.79,1.44-2.59c0.6-0.91,2.28-1.41,4.79-1.51c0.89-0.04,1.79-0.05,2.69-0.06
	c0.93,0,1.79,0.23,2.03,0.54c0.16,0.21,0.32,0.42,0.41,0.64c0.44,1.1,1.45,2.13,2.43,3.17c0.93,0.99,2.03,1.95,2.54,2.98
	c0.21,0.42,1.04,0.65,2.14,0.74c0.73,0.06,1.46,0.12,2.2,0.14c2.09,0.06,4.18,0.12,6.27,0.15c0.98,0.02,1.79-0.16,2.2-0.48
	c0.52-0.4,1.07-0.81,1.27-1.23c0.53-1.1,1.77-2.12,2.81-3.15c0.26-0.26,0.61-0.51,1.01-0.74c1.55-0.9,3.62-1.43,6.67-1.42
	c2.78,0.01,5.3,0.25,7.72,0.72c1.22,0.24,2.32,0.47,2.5,1.06c0.08,0.26,0.53,0.5,0.85,0.75c0.83,0.63,0.74,0.99-0.49,1.5
	c-1.21,0.5-2.49,0.97-4.09,1.3c-1.2,0.25-1.55,0.66-1.62,1.12c-0.03,0.22,0.16,0.43,0.21,0.65c0.08,0.36-0.41,0.65-1.28,0.79
	c-0.41,0.06-0.83,0.14-1.26,0.18c-1.48,0.11-2.9,0.26-4.26,0.53c-1.17,0.23-2.29,0.16-3.27-0.2c-0.41-0.15-0.97-0.24-1.5-0.34
	c-0.41-0.08-1.37,0.1-1.47,0.27c-0.1,0.16-0.13,0.33-0.21,0.49c-0.13,0.3-0.54,0.54-1.35,0.6c-3.31,0.22-6.25,0.77-9.11,1.4
	c-1.73,0.38-3.59,0.57-5.57,0.59c-2.05,0.02-3.85-0.19-5.21-0.77c-1.16-0.5-2.32-1-3.42-1.52c-1.31-0.61-1.65-1.28-0.43-1.99
	c0.16-0.09,0.31-0.19,0.43-0.29c0.49-0.41-0.08-0.91-1.25-1.09c-0.41-0.06-0.83-0.13-1.26-0.17c-2.47-0.21-4.94-0.45-7.53-0.29
	c-0.43,0.03-0.89-0.01-1.34-0.02c-0.45-0.01-1.05-0.32-0.99-0.49c0.22-0.63,0.84-1.18,2.38-1.53
	C492.97,858.97,493.62,858.83,494.27,858.68z"/>
<path d="M177.98,809.84c-0.63-0.96-1.21-1.75-1.65-2.56c-0.5-0.92,0.46-1.62,2.63-2.11c0.77-0.17,1.58-0.33,2.39-0.47
	c0.85-0.15,1.9-0.07,2.47,0.17c0.39,0.16,0.78,0.33,1.11,0.51c1.66,0.92,3.77,1.7,5.85,2.48c1.98,0.74,4.09,1.44,5.73,2.29
	c0.67,0.35,1.69,0.43,2.8,0.34c0.73-0.06,1.47-0.12,2.17-0.22c1.98-0.27,3.94-0.54,5.89-0.84c0.91-0.14,1.44-0.42,1.46-0.78
	c0.02-0.44,0.05-0.89-0.25-1.31c-0.78-1.08-0.81-2.18-1.05-3.28c-0.06-0.27-0.02-0.55,0.07-0.82c0.37-1.06,1.67-1.85,4.46-2.32
	c2.54-0.43,5.12-0.6,7.87-0.55c1.39,0.03,2.65,0.06,3.49,0.56c0.37,0.22,1.06,0.37,1.63,0.54c1.48,0.44,1.81,0.78,1.27,1.43
	c-0.54,0.64-1.16,1.26-2.24,1.81c-0.82,0.41-0.66,0.84-0.19,1.26c0.22,0.2,0.65,0.37,0.94,0.55c0.48,0.31,0.37,0.65-0.27,0.91
	c-0.3,0.12-0.59,0.26-0.95,0.35c-1.23,0.33-2.35,0.68-3.28,1.14c-0.8,0.39-1.91,0.5-3.22,0.33c-0.54-0.07-1.16-0.06-1.75-0.07
	c-0.46-0.01-1.13,0.31-1.03,0.47c0.1,0.16,0.25,0.31,0.37,0.47c0.22,0.29,0.13,0.57-0.54,0.75c-2.76,0.72-4.82,1.67-6.71,2.68
	c-1.14,0.61-2.62,1.07-4.41,1.4c-1.84,0.34-3.73,0.43-5.64,0.11c-1.63-0.27-3.26-0.54-4.86-0.84c-1.9-0.35-2.97-0.89-2.67-1.72
	c0.04-0.11,0.07-0.22,0.06-0.33c-0.03-0.45-1.12-0.81-2.39-0.78c-0.45,0.01-0.9,0.01-1.34,0.05c-2.5,0.19-5.02,0.36-7.21,0.91
	c-0.37,0.09-0.82,0.13-1.24,0.19c-0.42,0.06-1.32-0.12-1.46-0.28c-0.52-0.6-0.58-1.19,0.42-1.75
	C177.13,810.29,177.55,810.07,177.98,809.84z"/>
<path d="M398.9,810.82c-2.27-0.52-4.2-0.93-6.04-1.38c-2.1-0.52-2.74-1.27-2.08-2.17c0.23-0.32,0.53-0.63,0.85-0.94
	c0.34-0.32,1.25-0.54,2.12-0.51c0.6,0.02,1.2,0.03,1.78,0.08c2.95,0.22,5.95,0.23,8.94,0.25c2.84,0.02,5.69-0.03,8.51,0.15
	c1.15,0.07,2.04-0.13,2.68-0.48c0.42-0.23,0.84-0.46,1.17-0.71c0.93-0.7,1.84-1.4,2.7-2.1c0.4-0.33,0.25-0.67-0.41-0.92
	c-0.82-0.31-1.66-0.64-2.66-0.86c-2.6-0.56-4.71-1.33-6.97-2.05c-0.56-0.18-1.06-0.38-1.51-0.6c-1.72-0.84-2.28-1.74-1.14-2.78
	c1.04-0.96,2.58-1.74,4.68-2.41c1.07-0.34,2.05-0.64,3.6-0.5c0.69,0.06,1.47-0.01,2.21-0.04c1.92-0.07,2.79,0.08,3.62,0.68
	c0.81,0.59,1.54,1.19,1.79,1.86c0.18,0.5,1.11,0.76,2.24,0.94c0.54,0.08,1.16,0.09,1.73,0.15c0.94,0.09,1.51,0.37,1.53,0.71
	c0.01,0.16,0.06,0.33-0.02,0.49c-0.28,0.55-0.41,1.09-0.23,1.65c0.16,0.48-0.44,0.84-1.71,1.06c-0.52,0.09-0.97,0.25-1.41,0.4
	c-0.34,0.11-0.24,0.51,0.13,0.6c0.37,0.09,0.78,0.16,1.16,0.24c0.7,0.15,1.18,0.37,1.02,0.67c-0.65,1.22-0.34,2.42,0.19,3.62
	c0.33,0.73,0.12,1.43-0.57,2.12c-0.7,0.71-1.9,1.26-3.88,1.53c-1.69,0.23-3.39,0.45-5.11,0.66c-2.05,0.24-3.85,0.13-5.2-0.53
	c-0.18-0.09-0.37-0.17-0.58-0.25c-0.87-0.31-2.34-0.28-3.22,0.06c-0.31,0.12-0.63,0.24-0.89,0.38c-1.45,0.78-2.96,1.54-3.52,2.49
	c-0.09,0.16-0.34,0.31-0.53,0.46c-0.19,0.15-1.19,0.25-1.6,0.17c-1.52-0.29-2.67-0.69-3-1.34
	C399.15,811.36,399.03,811.09,398.9,810.82z"/>
<path d="M565.99,799.05c1.08,1.02,1.96,2.07,3.54,3.02c0.61,0.37,0.93,0.8,1.25,1.22c0.26,0.34-0.03,0.67-0.8,0.89
	c-0.16,0.05-0.32,0.09-0.48,0.13c0.77,0.09,1.42,0.3,1.58,0.62c0.38,0.76,0.23,1.48,0.07,2.25c-0.13,0.63,0.01,1.25,0.08,1.88
	c0.01,0.12,0.02,0.24,0.03,0.35c0.85-0.39,1.52-0.82,1.95-1.31c1.04-1.16,2.29-2.28,4.4-3.26c0.51-0.24,0.37-0.52-0.05-0.77
	c-0.24-0.14-0.5-0.27-0.72-0.41c-0.22-0.14,0.19-0.51,0.64-0.55c0.57-0.05,1.17-0.12,1.74-0.11c1.39,0.03,2.37-0.19,2.84-0.65
	c0.54-0.53,1.35-0.99,2.28-1.43c0.27-0.13,0.44-0.29,0.64-0.44c0.42-0.31,0.26-0.65-0.44-0.9c-0.43-0.15-0.97-0.26-1.33-0.43
	c-0.77-0.35-1.25-0.75-0.78-1.22c0.63-0.63,0.74-1.3,0.77-1.96c0.03-0.68-0.55-0.96-2.32-1.23c-0.68-0.1-1.46-0.17-1.99-0.35
	c-1.19-0.39-2.43-0.29-3.79-0.17c-2.69,0.23-5.04,0.67-7.16,1.34c-2.32,0.74-2.96,1.63-2.51,2.68
	C565.54,798.52,565.72,798.79,565.99,799.05z"/>
<path d="M802.28,845.69c-2.14-0.05-3.8-0.07-5.19-0.46c-0.23-0.07-0.5-0.12-0.77-0.17c-1.8-0.28-3.66-0.56-4.51-1.26
	c-1.21-1-2.33-2.03-1.77-3.18c0.17-0.34,0.61-0.62,1.37-0.83c0.5-0.14,1.08-0.22,1.68-0.15c1.14,0.12,2.24,0.36,3.39,0.38
	c2.99,0.05,4.02,0.81,4.79,1.67c0.27,0.31,0.29,0.65,0.35,0.98c0.08,0.47,0.63,0.84,1.55,1.14c0.76,0.26,1.52,0.52,2.23,0.8
	c0.58,0.23,0.25,0.75-0.56,0.84C803.85,845.58,802.82,845.65,802.28,845.69z"/>
<path d="M602.08,807.59c-0.05,0.6-0.02,1.07-1.03,1.49c-0.17,0.07-0.32,0.15-0.42,0.23c-0.68,0.53-1.35,1.07-3.22,1.37
	c-2.66,0.43-5.39,0.83-8.53,0.77c-0.93-0.02-1.7-0.12-2.3-0.31c-0.4-0.13-0.63-0.28-0.49-0.45c0.28-0.33,0.89-0.66,0.9-0.98
	c0.02-0.84,2.03-1.19,4.33-1.48c0.82-0.1,1.75-0.14,2.64-0.18c1.26-0.06,2.24-0.25,3.04-0.53c0.67-0.24,1.35-0.47,2.07-0.69
	c0.59-0.18,2.02-0.14,2.3,0.08C601.71,807.16,601.93,807.44,602.08,807.59z"/>
<path d="M231.18,812.48c0.81-0.53,1.37-0.95,2.79-1.15c0.24-0.03,0.47-0.08,0.66-0.13c1.26-0.35,2.54-0.72,4.56-0.67
	c2.88,0.08,5.78,0.19,8.47,0.77c0.8,0.17,1.35,0.4,1.63,0.67c0.19,0.18,0.2,0.36-0.15,0.49c-0.66,0.24-1.61,0.43-2.03,0.72
	c-1.08,0.74-3.29,0.71-5.68,0.58c-0.85-0.05-1.71-0.18-2.55-0.29c-1.19-0.16-2.28-0.16-3.34-0.05c-0.88,0.1-1.78,0.19-2.69,0.26
	c-0.75,0.06-1.94-0.23-1.91-0.47C230.96,812.93,231.12,812.64,231.18,812.48z"/>
<path d="M161.26,798.14c1.61,0.09,2.87,0.13,3.86,0.54c0.17,0.07,0.36,0.13,0.56,0.18c1.33,0.31,2.7,0.61,3.24,1.33
	c0.78,1.02,1.49,2.06,0.91,3.2c-0.17,0.34-0.55,0.61-1.15,0.81c-0.4,0.13-0.85,0.2-1.29,0.13c-0.85-0.14-1.65-0.4-2.51-0.44
	c-2.26-0.1-2.93-0.87-3.4-1.75c-0.17-0.31-0.13-0.65-0.13-0.98c0-0.47-0.36-0.84-1.02-1.17c-0.54-0.27-1.08-0.54-1.58-0.83
	c-0.41-0.23-0.09-0.75,0.54-0.83C160.05,798.22,160.84,798.17,161.26,798.14z"/>
<path d="M355.45,833.42c-2.14-0.05-3.8-0.07-5.19-0.46c-0.23-0.07-0.5-0.12-0.77-0.17c-1.8-0.28-3.66-0.56-4.51-1.26
	c-1.21-1-2.33-2.03-1.77-3.18c0.17-0.34,0.61-0.62,1.37-0.83c0.5-0.14,1.08-0.22,1.68-0.15c1.14,0.12,2.24,0.36,3.39,0.38
	c2.99,0.05,4.02,0.81,4.79,1.67c0.27,0.31,0.29,0.65,0.35,0.98c0.08,0.47,0.63,0.84,1.55,1.14c0.76,0.26,1.52,0.52,2.23,0.8
	c0.58,0.23,0.25,0.75-0.56,0.84C357.01,833.31,355.99,833.37,355.45,833.42z"/>
</svg>
