<?xml version="1.0" encoding="utf-8"?>
<!-- Generator: Adobe Illustrator 24.3.0, SVG Export Plug-In . SVG Version: 6.00 Build 0)  -->
<svg version="1.1" id="Calque_1" xmlns="http://www.w3.org/2000/svg" xmlns:xlink="http://www.w3.org/1999/xlink" x="0px" y="0px"
	 viewBox="0 0 1000 1000" style="enable-background:new 0 0 1000 1000;" xml:space="preserve">
<style type="text/css">
	.st0{fill:#FFFFFF;stroke:#000000;stroke-width:13;stroke-miterlimit:10;}
</style>
<g>
	<path d="M354.49,1001.46c1.25-1.15,2.37-2.49,3.77-3.41c17.11-11.25,34.26-22.44,51.4-33.65c0.53-0.35,0.99-0.82,1.8-1.5
		c-0.82-1.02-1.46-2.09-2.35-2.9c-12.84-11.73-25.73-23.42-38.58-35.14c-18.73-17.09-37.47-34.18-56.16-51.32
		c-12.94-11.86-25.93-23.68-38.66-35.76c-13.31-12.64-26.44-25.47-39.48-38.39c-24.11-23.9-48.2-47.83-72.11-71.92
		c-33.12-33.37-63.85-68.89-93.87-105.03c-19.74-23.76-39.5-47.5-59.43-71.1c-2.2-2.6-2.57-5.39-2.98-8.7
		c-2.48,1.79-4.68,3.37-6.87,4.96c0-9.44,0-18.87,0-28.31c1.35-1.35,2.89-2.56,4.01-4.08c22.75-31.05,45.41-62.17,68.19-93.21
		c28.54-38.9,58-77.07,89.96-113.26c21.49-24.34,42.88-48.78,64.41-73.09c13.78-15.56,27.6-31.07,41.64-46.39
		c11.2-12.23,22.68-24.19,34.14-36.18c19.66-20.57,39.4-41.06,59.11-61.57c5.07-5.28,10.21-10.49,15.29-15.76
		c8.58-8.89,17.15-17.79,25.71-26.71c0.77-0.81,1.41-1.75,2.56-3.19c-19.2-14.56-38.27-29.02-57.87-43.89
		c1.56-0.2,2.59-0.45,3.62-0.46c6.35-0.04,12.7,0.12,19.04-0.08c3.3-0.1,5.94,0.93,8.52,2.86c10.8,8.07,21.68,16.05,32.54,24.05
		c1.94,1.43,3.91,2.83,6.19,4.47c2.02-2.15,3.94-4.08,5.73-6.11c6.54-7.43,13.11-14.84,19.51-22.4c1.75-2.07,3.59-2.95,6.26-2.86
		c4.88,0.16,9.76,0.03,14.64,0.06c1.07,0.01,2.14,0.2,4.27,0.41c-12.98,13.66-25.34,26.66-38,39.99
		c23.82,18.61,47.42,37.04,71.28,55.68c23.49-18.34,47.11-36.78,71.28-55.66c-12.47-13.12-24.85-26.15-37.7-39.67
		c1.46-0.33,2.43-0.72,3.4-0.74c5.21-0.06,10.42,0.08,15.62-0.08c2.52-0.07,4.19,0.82,5.83,2.72c7.92,9.25,15.99,18.37,24.01,27.52
		c0.31,0.36,0.75,0.61,1.36,1.09c4.39-3.24,8.81-6.49,13.23-9.74c8.64-6.35,17.32-12.66,25.9-19.08c2.33-1.74,4.72-2.58,7.65-2.51
		c6.18,0.15,12.37,0.03,18.55,0.06c1.25,0.01,2.5,0.18,4.52,0.33c-19.64,14.88-38.67,29.31-58.05,44
		c4.64,5.01,8.71,9.59,12.97,13.99c14.91,15.44,29.92,30.79,44.82,46.24c15.58,16.14,31.12,32.32,46.61,48.55
		c10.55,11.05,21.1,22.11,31.41,33.38c13.93,15.21,27.7,30.57,41.41,45.98c17.8,20.02,35.41,40.22,53.21,60.23
		c38.58,43.36,74.33,88.97,108.48,135.86c21.41,29.39,42.85,58.75,64.29,88.12c0.07,0.1,0.3,0.09,0.46,0.13c0,13.67,0,27.33,0,41
		c-17.14,20.38-34.35,40.71-51.41,61.15c-26.56,31.83-53.4,63.41-82.33,93.13c-21.98,22.58-44.47,44.66-66.87,66.83
		c-16.05,15.88-32.19,31.66-48.52,47.25c-13.75,13.12-27.76,25.97-41.77,38.82c-16.89,15.49-33.87,30.88-50.88,46.25
		c-17.73,16.02-35.53,31.96-53.28,47.95c-0.93,0.84-1.68,1.88-2.65,2.99c0.97,0.78,1.66,1.43,2.44,1.95
		c16.35,10.91,32.72,21.79,49.06,32.73c1.27,0.85,2.29,2.06,3.42,3.11c-9.11,0-18.23,0-27.34,0c-0.86-0.73-1.66-1.56-2.6-2.17
		c-11.67-7.62-23.35-15.2-35.04-22.78c-0.78-0.5-1.65-0.86-3.26-1.68c-1.1,1.41-2.07,2.94-3.31,4.21
		c-7.36,7.51-14.79,14.95-22.2,22.42c-7.49,0-14.97,0-22.46,0c1.49-1.69,2.83-3.53,4.48-5.04c8.51-7.79,17.1-15.48,25.65-23.23
		c2.13-1.94,4.19-3.96,6.41-6.07c-24.01-16.46-47.55-32.6-71.13-48.77c-23.7,16.04-47.28,32.01-71.19,48.2
		c6.49,5.98,12.61,11.55,18.66,17.2c6.29,5.87,12.51,11.81,18.76,17.72c-7.81,0-15.62,0-23.44,0c-0.56-0.92-0.97-1.99-1.71-2.74
		c-4.89-4.98-9.83-9.9-14.78-14.82c-3.19-3.17-6.41-6.31-9.58-9.43c-0.99,0.47-1.61,0.68-2.14,1.02
		c-12.46,7.94-24.93,15.89-37.36,23.89c-0.74,0.48-1.22,1.38-1.82,2.09C373.37,1001.46,363.93,1001.46,354.49,1001.46z
		 M992.98,539.47c-5.25-4.79-10.01-9.21-14.86-13.54c-19.02-16.98-37.99-34.03-57.13-50.88c-19.51-17.16-39.21-34.11-58.81-51.17
		c-14.58-12.69-29.14-25.4-43.69-38.11c-21.27-18.6-42.54-37.2-63.79-55.82c-10.5-9.2-20.75-18.7-31.49-27.61
		c-35.49-29.46-71.14-58.73-106.76-88.03c-33.36-27.44-66.76-54.84-100.16-82.22c-4.75-3.9-9.66-7.61-14.49-11.4
		c-0.88,0.54-1.47,0.81-1.96,1.21c-28.24,22.94-56.55,45.78-84.67,68.86c-24.73,20.29-49.22,40.88-73.87,61.28
		c-21.27,17.6-42.77,34.94-63.89,52.71c-13.42,11.29-26.31,23.19-39.5,34.75c-20.16,17.65-40.38,35.23-60.56,52.86
		c-14.55,12.72-29.04,25.51-43.62,38.19c-18.01,15.67-36.15,31.2-54.12,46.92c-16.99,14.87-33.86,29.87-50.71,44.89
		c-3.49,3.11-6.67,6.57-10.13,10.02c1.53,1.32,2.84,2.54,4.24,3.64c19.93,15.68,39.75,31.48,59.83,46.96
		c29.6,22.82,59.38,45.4,89.07,68.11c23.48,17.96,46.96,35.93,70.41,53.94c15.47,11.88,30.64,24.15,46.36,35.67
		c34.74,25.45,69.73,50.56,104.66,75.75c36.38,26.24,72.81,52.42,109.23,78.62c1.56,1.12,3.17,2.15,4.79,3.24
		c1.52-0.95,2.79-1.67,3.98-2.49c11.5-7.94,23.11-15.74,34.47-23.88c33.43-23.94,66.72-48.08,100.15-72.03
		c28.15-20.17,56.68-39.82,84.54-60.37c29.68-21.9,58.76-44.62,88.13-66.93c51.11-38.81,102.26-77.56,153.36-116.4
		C978.94,550.93,985.66,545.32,992.98,539.47z M516.15,109.01c0.92,0.97,1.4,1.61,2,2.1c31.38,25.49,63.07,50.61,94.08,76.54
		c28.03,23.43,55.4,47.66,82.92,71.71c14.43,12.61,28.47,25.67,42.85,38.35c22.04,19.43,44.22,38.73,66.36,58.05
		c24.1,21.03,48.18,42.09,72.34,63.04c26.13,22.66,52.36,45.21,78.54,67.81c3.1,2.68,6.21,5.34,9.31,8.01
		c-3.5-6.14-7.5-11.8-11.86-17.16c-31.69-38.89-63.3-77.86-95.26-116.53c-22.85-27.65-46.07-55.01-69.42-82.24
		c-13.74-16.03-28.03-31.57-42.1-47.31c-12.66-14.17-25.29-28.37-38.05-42.45c-11.35-12.52-22.86-24.89-34.3-37.32
		c-14.74-16.02-29.54-31.99-44.21-48.07c-11.28-12.36-22.39-24.87-33.6-37.29c-3.32-3.68-6.73-7.3-10.26-11.12
		C562.28,73.16,539.46,90.89,516.15,109.01z M418.07,55.37c-0.76,0.48-1.09,0.6-1.29,0.83c-16.58,18.3-33.1,36.64-49.72,54.9
		c-12.9,14.17-25.94,28.23-38.9,42.35c-11.32,12.33-22.67,24.63-33.9,37.03c-13.96,15.4-27.85,30.86-41.7,46.36
		c-14.28,15.99-28.74,31.83-42.64,48.15c-25.27,29.65-50.33,59.5-75.22,89.47c-18.99,22.85-37.65,45.97-56.35,69.07
		c-12.56,15.52-24.93,31.21-37.37,46.83c-0.74,0.94-1.29,2.03-1.93,3.04c0.99,0.1,1.46-0.22,1.89-0.59
		c6.15-5.3,12.3-10.6,18.44-15.92c34.97-30.31,69.95-60.6,104.9-90.93c26.73-23.19,53.52-46.3,80.1-69.65
		c21.36-18.75,42.38-37.88,63.68-56.7c20.81-18.38,41.43-37.01,62.75-54.77c37.17-30.97,74.83-61.36,112.27-92
		c1.32-1.08,2.54-2.28,4.17-3.75C463.78,90.86,440.85,73.06,418.07,55.37z M969.64,575.84c-0.32-0.29-0.63-0.57-0.95-0.86
		c-2.29,1.79-4.56,3.61-6.89,5.36c-42.86,32.2-85.8,64.3-128.58,96.61c-36.43,27.51-72.7,55.24-109.02,82.9
		c-30.38,23.13-60.37,46.79-91.18,69.33c-35.27,25.81-71.25,50.65-106.91,75.91c-1.37,0.97-2.7,1.98-4.47,3.29
		c23.56,16.08,46.48,31.72,69.48,47.42c3.7-3.56,7.08-6.82,10.47-10.07c14.78-14.17,29.51-28.39,44.34-42.5
		c12.37-11.76,24.92-23.32,37.29-35.08c17.2-16.34,34.38-32.7,51.44-49.19c19.63-18.97,39.39-37.82,58.62-57.18
		c53.83-54.2,106.27-109.74,158.21-165.75C957.65,589.4,963.6,582.58,969.64,575.84z M493.15,908.28c-1.4-1.08-2.27-1.8-3.18-2.44
		c-7.69-5.44-15.37-10.91-23.1-16.3c-52.94-36.9-104.67-75.42-155.48-115.19c-28.27-22.13-56.42-44.41-84.93-66.22
		c-57.14-43.73-114.49-87.2-171.75-130.77c-2.99-2.28-6.01-4.52-9.02-6.78c3.18,5.1,6.79,9.68,10.75,13.93
		c36.03,38.62,71.89,77.39,108.26,115.69c26.4,27.8,53.21,55.22,80.32,82.32c24.24,24.24,49.11,47.85,73.78,71.66
		c14.5,14,29.17,27.81,43.71,41.77c14.66,14.06,29.26,28.18,43.87,42.28c5.7,5.5,11.38,11.04,17.31,16.81
		C446.83,939.47,469.72,924.06,493.15,908.28z"/>
	<path d="M352.39,480.94c-0.5-9.51,1.58-18.68,3.45-27.94c1.91-9.45,6.51-17.67,10.91-25.95c8.47-15.95,17.97-31.31,29.68-45.13
		c3.33-3.93,7.29-7.4,11.27-10.71c4.74-3.95,9.68-7.7,14.78-11.18c5.23-3.56,10.6-6.98,16.19-9.92
		c9.75-5.13,19.51-10.35,29.66-14.61c11.71-4.91,24.14-7.4,36.84-8.56c20.78-1.9,40.65,2.53,60.34,8.26
		c11.44,3.33,22.05,8.64,32.53,14.2c2.72,1.44,5.42,2.94,8.15,4.37c10.58,5.56,20.49,12.02,28.23,21.31
		c9.25,11.1,18.89,21.92,27.46,33.52c10.44,14.14,15.59,30.59,17.69,47.96c0.74,6.12,1.4,12.26,1.63,18.41
		c0.49,12.9-1.78,25.47-4.3,38.12c-4.22,21.22-11.72,41.14-20.64,60.72c-5.5,12.08-13.48,22.19-22.58,31.54
		c-8.65,8.89-18.06,16.85-29.64,21.85c-12.97,5.6-26.08,10.72-39.73,14.53c-11.01,3.08-22.05,5.21-33.5,5.53
		c-5.49,0.15-10.95,1.56-16.43,1.66c-8.61,0.16-17.23-0.12-25.83-0.59c-3.69-0.2-7.31-1.45-10.98-2.08
		c-16.58-2.83-32.52-8-47.44-15.5c-23.53-11.83-41.97-29.31-54.19-52.96c-6.87-13.31-12.77-26.99-17.02-41.38
		c-2.92-9.87-4.23-20.02-5.19-30.19C352.93,497.84,352.81,489.38,352.39,480.94z M661.92,474.41c-0.4-5.66-0.07-11.5-1.37-16.95
		c-2.09-8.81-5.18-17.39-8.02-26.02c-0.75-2.28-1.89-4.54-3.29-6.5c-6.72-9.36-12.81-19.28-22.36-26.21
		c-8.01-5.81-15.57-12.51-24.24-17.11c-17.89-9.5-36.19-18.31-56.05-23.19c-9.84-2.42-19.77-3.95-29.91-2.97
		c-7.25,0.7-14.55,1.42-21.67,2.9c-7.43,1.55-14.98,3.28-21.9,6.26c-9.81,4.23-19.28,9.33-27.98,15.71
		c-7.74,5.67-15.59,11.17-22.2,18.23c-3.31,3.54-6.9,6.83-10.26,10.32c-2.59,2.69-5.26,5.35-7.49,8.32
		c-7.42,9.87-14.12,20.09-18.73,31.75c-3.51,8.86-6.23,17.9-7.28,27.18c-1.87,16.47,0.65,32.86,5.27,48.6
		c4.71,16.04,12.24,31.06,20.18,45.83c5.2,9.69,11.23,18.67,19.27,26.17c7.38,6.89,15.24,13.12,25.2,16.11
		c3.86,1.16,7.61,2.71,11.32,4.29c13.07,5.55,26.35,10.23,40.84,9.7c6.64-0.24,13.33-0.34,19.89-1.25
		c10.75-1.5,21.53-3.14,32.09-5.59c17.28-4.01,33.79-10.32,49.55-18.53c5.38-2.8,10.41-5.99,14.24-10.83
		c3.12-3.95,5.93-8.33,9.71-11.52c5.96-5.02,9.36-11.55,12.68-18.22c5.15-10.35,8.69-21.33,12.66-32.16
		C658.51,511.15,662.99,493.34,661.92,474.41z"/>
</g>
</svg>
