<?xml version="1.0" encoding="utf-8"?>
<!-- Generator: Adobe Illustrator 24.3.0, SVG Export Plug-In . SVG Version: 6.00 Build 0)  -->
<svg version="1.1" id="Calque_1" xmlns="http://www.w3.org/2000/svg" xmlns:xlink="http://www.w3.org/1999/xlink" x="0px" y="0px"
	 viewBox="0 0 1000 1000" style="enable-background:new 0 0 1000 1000;" xml:space="preserve">
<style type="text/css">
	.st0{fill:#FFFFFF;stroke:#000000;stroke-width:13;stroke-miterlimit:10;}
</style>
<g>
	<path d="M158.41,88.1c2.58-1.61,5.05-0.84,7.33,0.13c9.22,3.93,18.38,7.97,27.55,12.01c1.13,0.5,2.17,1.21,3.22,1.85
		c0.6,0.37,1.4,1.26,1.67,1.14c3.34-1.65,5.75,1.14,8.65,1.47c11.41,1.29,22.72-0.06,34.07-0.83c7.23-0.49,14.52-0.21,21.78-0.53
		c9.57-0.43,19.13-1.12,28.7-1.66c2.36-0.13,4.73,0.03,7.08-0.12c25.56-1.59,51.15-1.14,76.74-0.96
		c46.49,0.33,92.98,0.72,139.47,0.99c19.99,0.12,39.98,0.05,59.97,0.01c13.81-0.03,27.62-0.08,41.42-0.28
		c16.87-0.24,33.73-0.68,50.6-0.99c20.32-0.37,40.65-0.69,60.97-1.01c22.32-0.35,44.65-0.65,66.97-1.03
		c10.86-0.18,21.72-0.45,32.58-0.76c3.06-0.09,5.47,0.61,7.75,2.8c4.95,4.75,5.43,4.78,5.64,11.78c0.52,16.52,1.08,33.04,1.04,49.56
		c-0.03,11.1-1.08,22.2-1.61,33.3c-0.24,5.06-0.21,10.12-0.49,15.17c-0.54,9.58-1.19,19.15-1.88,28.73
		c-0.07,1.03-0.68,2.04-1.41,4.1c-1.86-3.29-1.31-5.79-1.25-8.14c0.42-15,1.08-29.99,1.4-44.99c0.37-17.2,0.73-34.41,0.62-51.61
		c-0.06-9.58-1.04-19.16-1.72-28.73c-0.14-1.98-0.78-3.93-1.27-6.33c-4.06-0.27-7.99-0.69-11.92-0.75
		c-8.18-0.12-16.36-0.15-24.53-0.01c-14.14,0.25-28.28,0.65-42.42,1c-13.23,0.33-26.46,0.75-39.7,0.99c-22.5,0.4-45,0.65-67.5,1.05
		c-13.96,0.25-27.92,0.87-41.88,0.95c-60.48,0.35-120.97,0.68-181.45,0.75c-24.32,0.03-48.64-0.73-72.97-0.92
		c-15.78-0.12-31.57-0.11-47.34,0.28c-14.29,0.35-28.57,1.3-42.85,1.95c-7.78,0.36-15.56,0.66-23.35,0.99
		c-6.14,0.26-12.29,0.62-18.43,0.77c-6.67,0.16-13.4,0.41-19.95-3.24c0,2.51-0.2,4.32,0.03,6.08c2.09,16.1,2.3,32.27,2.39,48.46
		c0.1,18.05,0.73,36.1,0.97,54.15c0.08,5.53-0.35,11.07-0.57,17.3c0.95,0.95,2.93,1.14,5.23,1c3.91-0.23,7.85-0.22,11.77-0.17
		c3.8,0.05,7.6,0.34,11.41,0.4c21.05,0.32,42.09,0.83,63.14,0.83c17.96,0,35.93-0.57,53.89-0.96c7.44-0.16,14.87-0.75,22.3-0.69
		c23.6,0.21,47.19,0.62,70.78,0.97c16.32,0.24,32.65,0.57,48.97,0.73c18.35,0.17,36.7,0.19,55.05,0.29
		c49.58,0.25,99.16,0.53,148.74,0.71c6.16,0.02,12.32-0.72,18.48-0.65c15.6,0.18,31.24,0.01,46.78,1.12
		c18.89,1.34,37.73,0.34,56.6,0.53c4.14,0.04,8.29-0.65,12.44-0.84c1.5-0.07,3.03,0.33,4.74,0.54c-0.19,2.74-1.29,3.99-3.62,4.16
		c-1.99,0.15-3.99,0.23-5.98,0.25c-5.6,0.07-11.12-0.03-16.68,1.54c-3.27,0.92-7.14,0.08-10.73-0.07
		c-3.79-0.16-7.58-0.62-11.37-0.62c-15.81-0.01-31.64-0.36-47.42,0.28c-36.49,1.48-72.98,0.88-109.48,0.65
		c-11.41-0.07-22.86-0.26-34.23-1.06c-33.16-2.35-66.37-1.53-99.56-1.96c-12.7-0.17-25.4-0.75-38.1-0.72
		c-47.4,0.15-94.8,0.57-142.21,0.67c-13.98,0.03-27.96-0.62-41.94-0.97c-13.24-0.33-26.48-0.64-39.72-1.02
		c-3.8-0.11-7.59-0.57-11.39-0.62c-7.51-0.1-15.02-0.03-23.06-0.03c0.55,5.73,1.05,10.84,1.52,15.96c0.36,3.85,0.9,7.7,0.98,11.56
		c0.32,16.36,0.3,32.72,0.78,49.08c0.44,14.98,1.35,29.95,2.11,44.92c0.46,9.08,1.06,18.16,1.51,27.24
		c0.77,15.81,1.45,31.63,2.2,47.45c0.7,14.81,1.45,29.61,2.17,44.41c0.73,14.97,1.62,29.94,2.14,44.92
		c0.86,24.59,1.54,49.19,2.2,73.8c0.46,17.36,1.13,34.73,1.02,52.1c-0.17,27.32-0.93,54.64-1.43,81.96
		c-0.23,12.32-0.36,24.63-0.69,36.95c-0.21,7.74-0.55,15.49-1.09,23.21c-0.91,12.82,6.2,21.47,17.06,27.82
		c9.6,5.62,20.1,9.32,31.68,9.48c6.84,0.1,13.69,0.02,20.53,0.02c2.13,0,4.26,0,6.92,0c-0.39,2.29-0.59,3.9-0.94,5.48
		c-2.34,10.47-0.55,20.8,1.24,31.11c1.27,7.34,3.87,14.3,6.62,21.3c4.02,10.22,12.16,14.83,22.91,15.92
		c10.42,1.06,20.92,1.46,31.4,1.83c4.67,0.17,9.39-0.76,14.07-0.61c11.39,0.37,22.77,1.1,34.16,1.65c9.59,0.46,19.18,0.92,28.78,1.3
		c18.1,0.72,36.21,1.39,54.31,2.05c9.6,0.36,19.2,0.62,28.8,1.01c15.74,0.64,31.48,1.39,47.23,2.02c18.1,0.72,36.2,1.53,54.31,1.98
		c21.95,0.54,43.91,0.69,65.87,1.08c15.42,0.27,30.85,0.41,46.26,1.07c12.27,0.53,24.5,1.92,36.77,2.61
		c11.76,0.66,23.57,0.59,35.3,1.47c8.79,0.66,17.24-1.51,26.68-1.39c0-1.88,0-3.51,0-5.13c0-26.01,0.14-52.01-0.04-78.02
		c-0.18-25.65-0.63-51.3-1.08-76.95c-0.23-12.98-0.71-25.95-1.07-38.93c-0.37-13.32-0.77-26.63-1.07-39.95
		c-0.41-17.71-0.86-35.41-1.08-53.12c-0.33-27.16-0.49-54.33-0.71-81.5c-0.04-4.73-0.04-9.46,0.02-14.18
		c0.35-28.69,0.68-57.38,1.1-86.07c0.29-19.56,0.7-39.13,1.08-58.69c0.36-18.56,0.75-37.11,1.09-55.67
		c0.38-21.09,0.66-42.18,1.12-63.27c0.14-6.39,0.58-12.78,1.15-19.16c0.22-2.4,0.56-5.26,4.93-5.03c0.1,1.1,0.26,2.19,0.27,3.27
		c0.14,8.78,0.47,17.56,0.31,26.33c-0.19,10.44-0.79,20.88-1.23,31.32c-0.03,0.84-0.16,1.68-0.17,2.52
		c-0.24,14.84-0.47,29.69-0.68,44.53c-0.15,10.46-0.3,20.93-0.41,31.39c-0.37,34.26-0.19,68.53-1.21,102.77
		c-1.75,58.75-0.53,117.49-0.94,176.24c-0.08,11.98,0.16,23.96,0.41,35.94c0.26,12.47,0.69,24.94,1.07,37.4
		c0.34,11.29,0.77,22.57,1.07,33.86c0.41,15.68,0.91,31.36,1.07,47.04c0.34,34.09,0.5,68.18,0.67,102.28
		c0.01,2.24-0.52,4.49-0.7,5.95c-4.28,0.22-7.62,0.34-10.94,0.57c-8.6,0.61-17.15,1.91-25.83,0.48c-3.35-0.55-6.9,0.04-10.34-0.19
		c-13.52-0.92-27.03-1.98-40.55-2.95c-1.63-0.12-3.27,0.02-4.9-0.06c-33.74-1.77-67.53-0.7-101.29-1.24
		c-18.33-0.29-36.66-0.52-54.97-1.06c-15.2-0.45-30.39-1.34-45.59-1.98c-9.41-0.39-18.83-0.7-28.25-1.01
		c-10.51-0.35-21.01-0.66-31.52-1.02c-9.05-0.31-18.12-0.52-27.16-1.05c-13.54-0.79-27.05-1.94-40.58-2.69
		c-11.22-0.62-22.45-1.05-33.69-1.28c-22.51-0.46-45.03-0.3-67.52-1.18c-18.41-0.72-36.83-1.74-55.08-4.58
		c-12.65-1.97-25.4-3.33-38.05-5.31c-3.88-0.61-7.68-2.12-11.3-3.66c-5.27-2.24-10.31-4.93-15.49-7.35c-3.13-1.46-4.64-3-4.32-6.95
		c1-12.38,1.07-24.83,1.51-37.25c0.02-0.67,0.13-1.35,0.14-2.02c0.36-24.13,0.97-48.25,1.02-72.38
		c0.07-40.52-0.23-81.04-0.33-121.55c-0.05-19.75,0.08-39.51-0.03-59.26c-0.12-21.94-0.31-43.89-0.68-65.83
		c-0.35-20.75-0.94-41.49-1.48-62.23c-0.31-11.97-0.86-23.93-1.05-35.89c-0.33-20.08-0.6-40.16-0.63-60.24
		c-0.02-13.84,0.69-27.68,0.52-41.51c-0.15-12.46-1.06-24.91-1.65-37.36c-0.5-10.44-1.01-20.87-1.53-31.31
		c-0.35-6.89-0.66-13.79-1.14-20.68c-0.27-3.77-1.27-7.2-5.38-9.26c-1.12-0.56-1.95-2.37-2.11-3.69c-0.77-6.52-1.53-13.05-1.81-19.6
		c-0.67-15.5-1.05-31.01-1.57-46.51c-0.34-10.28-0.52-20.56-1.13-30.82c-0.65-11.08-1.71-22.14-2.58-33.22
		C158.37,89.43,158.41,88.77,158.41,88.1z M201.14,886.96c0.47-8.34,0.91-15.9,1.33-23.47c0.73-12.94,1.56-25.88,2.14-38.83
		c0.53-11.94,0.88-23.88,1.12-35.82c0.44-22.25,0.79-44.51,1.1-66.76c0.21-14.66,0.25-29.33,0.45-44c0.05-3.7,0.69-7.4,0.55-11.08
		c-0.41-10.42-1.19-20.83-1.64-31.26c-0.57-13.31-0.98-26.62-1.44-39.93c-0.28-8.26-0.7-16.52-0.71-24.77
		c-0.01-8.76,0.63-17.52,0.55-26.28c-0.09-9.27-0.46-18.56-1.13-27.81c-0.61-8.38-2.31-16.71-2.63-25.1
		c-0.81-21.06-1.11-42.14-1.61-63.21c-0.23-9.77-0.41-19.54-0.73-29.31c-0.09-2.85-0.6-5.69-0.86-8.54
		c-0.8-8.89-1.73-17.76-2.33-26.66c-0.6-8.91-0.91-17.83-1.23-26.75c-0.13-3.86,0.16-7.74,0.07-11.6
		c-0.32-13.99-0.75-27.97-1.07-41.95c-0.18-7.85-0.62-15.68-0.3-23.58c0.34-8.62-1.61-17.31-2.54-25.87
		c-4.96-1.85-9.54-3.56-13.77-5.14c0.41,3.7,0.85,7.22,1.18,10.76c0.23,2.52-0.05,5.12,0.51,7.56c1.91,8.32,1.76,16.74,1.73,25.16
		c0,1.01-0.18,2.06,0.03,3.03c1.95,9.13,2.16,18.37,2.14,27.63c0,2.18,0.41,4.36,0.59,6.54c0.52,6.37,1.24,12.74,1.45,19.12
		c0.16,4.7-0.57,9.42-0.53,14.13c0.08,9.42,0.31,18.85,0.65,28.27c0.65,18.01,1.61,36.02,2.11,54.03
		c0.68,24.1,1.04,48.21,1.56,72.32c0.18,8.09,0.67,16.17,0.61,24.25c-0.14,18.22,0.03,36.46-1.02,54.64
		c-0.68,11.83,0.03,23.56,0.13,35.34c0.04,4.72,0.12,9.45,0.34,14.16c0.52,10.93,1.45,21.86,1.6,32.79
		c0.13,9.24-0.9,18.5-0.92,27.75c-0.06,22.26-0.8,44.49-1.66,66.74c-1.09,28.48-0.9,57.01-1.27,85.51
		c-0.11,8.77-0.19,17.54-0.45,26.31c-0.14,4.87-0.63,9.73-0.98,14.7c-1.06,0-2.1,0-3.14,0c-0.07,0.23-0.15,0.46-0.22,0.69
		c5.35,3.21,10.71,6.41,16.36,9.8C197.01,887.9,198.26,886.54,201.14,886.96z M161.97,90.98c0,1.65-0.1,2.48,0.02,3.28
		c1.56,10.85,2.81,21.69,2.71,32.7c-0.11,11.62,0.55,23.25,1.05,34.87c0.61,14.13,1.41,28.26,2.1,42.39
		c0.19,3.87,0.13,7.77,0.51,11.62c0.18,1.87-0.06,4.15,2.57,5.13c6.04,2.24,11.98,4.72,18.09,6.75c2.77,0.92,5.86,1.01,9.1,1.52
		c0-4.49,0-8.33,0-12.17c-0.01-8.78,0.14-17.57-0.08-26.34c-0.47-19.39-1.19-38.77-1.66-58.15c-0.21-8.58-0.03-17.17-0.03-25.67
		C184.63,101.48,173.55,96.34,161.97,90.98z M283.47,832.85c-27.1,3.32-50.84-1.61-69.91-21.58c0.28,1.41,0.33,2.25,0.61,3.01
		c2.77,7.48,5.28,15.05,8.45,22.38c8.2,19,20.78,35.12,38.28,47.64c9.64,6.89,19.84,13.07,31.89,15.87
		c1.92,0.45,3.91,0.59,7.03,1.05C284.48,888.38,276.97,850.01,283.47,832.85z M209.76,814.11c-0.43,0.13-0.86,0.26-1.29,0.39
		c-0.82,13.41-1.73,26.81-2.42,40.23c-0.52,10.08-0.73,20.16-1.13,30.25c-0.07,1.67-0.48,3.32-0.64,4.99
		c-0.22,2.19,0.73,3.53,3.26,3.74c3.59,0.3,7.19,0.62,10.77,1.03c13.61,1.58,27.2,3.31,40.82,4.78c6.93,0.75,13.9,1.09,20.86,1.61
		c0.21-0.32,0.43-0.63,0.64-0.95C240.51,883.2,219.46,852.69,209.76,814.11z"/>
	<path d="M688.06,386.05c-0.78-1.01-1.79-1.93-2.31-3.05c-3.3-7.11-9.05-12.2-15.86-16.25c-12.37-7.37-25.83-11.61-40.68-9.99
		c-10.1,1.1-19.73,4.16-28.99,8.08c-14.5,6.15-25.04,16.61-34.26,28.22c-21.22,26.73-34.48,56.8-42.46,89.05
		c-3.54,14.3-6.97,28.76-7.09,43.33c-0.19,23.71,3.93,46.69,20.86,65.99c11.84,13.5,26.93,22.33,44.56,27.72
		c8.27,2.53,16.71,4.6,25.42,4.96c12.93,0.54,24.55-3.68,35.4-9.78c22.05-12.38,36.26-30.3,42.28-53.52
		c4.56-17.58,0.15-33.34-12.79-47.01c-14.97-15.82-33.83-24.33-56.22-26.66c-11.97-1.25-23.79-0.95-35.65,1.02
		c-16.62,2.77-29.79,10.94-41.2,22.03c-3.12,3.03-6.23,6.07-10.1,8.7c0.27-0.78,0.41-1.63,0.81-2.35
		c6.16-11.13,16.17-18.83,26.64-26.23c10.03-7.09,21.19-10.19,33.68-11.21c17.09-1.4,33.65-0.02,49.73,5.31
		c20.05,6.65,35.67,18.68,46.48,35.64c8.83,13.86,10.21,29.12,5.91,44.46c-6.71,23.94-20.87,43.29-43.87,56.34
		c-12.7,7.21-26.44,12.02-41.66,11.14c-12.38-0.72-24.23-3.89-35.56-8.53c-35.49-14.53-54.75-40.19-59.91-75.57
		c-2.77-18.98-0.61-37.65,3.51-56.22c5.32-24.01,12.92-47.34,24.97-69.26c8.11-14.76,17.59-28.69,29-41.49
		c15.93-17.88,36.96-26.92,61.06-29.83c13.68-1.66,26.5,2.56,38.24,9.21c6.56,3.72,12.62,8.02,16.71,14.21
		c1.7,2.56,3.02,5.36,4.29,8.14c0.4,0.89,0.06,2.07,0.06,3.12C688.73,385.88,688.4,385.96,688.06,386.05z"/>
	<path d="M835.93,97.47c-1.27-0.31-2.36-0.42-3.29-0.84c-10.27-4.63-20.51-9.31-30.75-13.97c-0.32-0.15-0.67-0.55-0.92-0.49
		c-4.5,1.09-8.13-2.29-12.54-2.03c-4.15,0.24-8.35-0.27-12.52-0.15c-10.51,0.32-21.01,0.77-31.51,1.25
		c-14.29,0.64-28.58,1.38-42.87,2.02c-8.69,0.39-17.38,0.67-26.07,1.01c-5.97,0.23-11.95,0.75-17.91,0.69
		c-22.87-0.23-45.74-0.7-68.61-0.96c-28.33-0.32-56.65-0.61-84.98-0.72c-31.62-0.12-63.24-0.14-94.86,0.02
		c-16.69,0.08-33.38,0.63-50.06,0.98c-15.42,0.32-30.83,0.77-46.25,0.98c-29.04,0.41-58.09,0.65-87.14,1.05
		c-17.96,0.25-35.91,0.66-53.87,0.98c-1.45,0.03-3.09,0.25-4.29-0.3c-1.26-0.57-2.9-1.91-2.95-2.98c-0.11-2.11,2.06-1.8,3.68-1.76
		c9.26,0.19,18.51,0.61,27.77,0.52c15.78-0.16,31.56-0.62,47.35-0.97c14.33-0.32,28.66-0.72,42.99-0.98
		c21.42-0.39,42.84-0.65,64.25-1.05c13.97-0.26,27.93-0.89,41.9-0.96c65.76-0.31,131.52-0.57,197.29-0.63
		c19.97-0.02,39.93,0.79,59.9,0.94c14.89,0.11,29.79,0,44.67-0.42c14.49-0.4,28.96-1.38,43.44-1.97
		c15.58-0.63,31.16-1.15,46.74-1.63c5.12-0.16,9.95,0.56,14.55,3.2c2.77,1.6,6.55,1.61,9.57,2.94c8.69,3.82,17.2,7.99,25.84,11.91
		C836.72,94.17,836.55,95.51,835.93,97.47z"/>
	<path d="M423.52,356.31c3.06-1.22,5.08-0.64,5.28,2.33c0.38,5.71,0.63,11.43,0.6,17.15c-0.02,4.03-0.73,8.05-0.91,12.08
		c-0.78,16.99-1.47,33.99-2.22,50.99c-0.71,15.99-1.55,31.97-2.14,47.96c-0.51,13.98-0.86,27.97-1.1,41.96
		c-0.32,18.72-0.24,37.45-0.79,56.17c-0.3,10.25-1.48,20.48-2.44,30.7c-0.18,1.86-1.21,3.66-1.95,5.75
		c-3.27-1.25-3.84-3.27-3.8-5.51c0.06-3.2,0.24-6.4,0.41-9.6c0.57-11.1,1.33-22.19,1.69-33.3c0.27-8.43-0.09-16.88,0.08-25.32
		c0.41-19.56,0.72-39.12,1.56-58.66c0.66-15.29,2.06-30.56,3.14-45.84c1.1-15.62,2.19-31.24,3.34-46.85
		c0.31-4.18,0.83-8.34,0.31-12.77c-0.47,1.23-1.06,2.44-1.41,3.7c-8.64,31.68-23.47,60.82-42.13,88.38
		c-13.75,20.31-29.16,39.5-46.17,57.5c-9.19,9.73-18.86,19.2-30.57,26.53c-8.91,5.58-18.85,8.47-29.41,9.64
		c-1.77,0.2-3.64-0.4-5.35-1.34c5.56-1.67,11.13-3.32,16.68-5.02c9.36-2.86,17.1-8.11,23.99-14.46
		c34.7-31.97,62.99-68.3,84.95-108.85c12.21-22.55,20.86-46.27,26.32-70.99C422.38,364.53,422.86,360.36,423.52,356.31z"/>
	<path d="M430.46,807.27c-1.61-7.18,0.28-14.05,2.4-20.83c4.56-14.58,11.77-27.91,22.45-39.5c0.83-0.9,1.67-1.8,2.61-2.58
		c5.45-4.49,10.45-4.62,16.04-0.32c1.81,1.39,3.44,3,5.05,4.6c1.46,1.44,2.77,3.01,4.52,4.92c3.69-9.24,8.08-17.81,8.69-27.31
		c0.31-4.82-0.61-9.72-1.18-14.57c-0.43-3.69-3.01-5.87-6.86-6.03c-3.19-0.14-6.61,0-9.6,0.93c-12.31,3.81-21.34,11.54-28.89,21.47
		c0.12-1-0.08-2.17,0.41-2.97c7.84-12.52,18.58-21.55,34.57-23.72c8.08-1.1,13.21,2.35,15.15,9.83c2.33,8.99,2.59,18.04-0.34,26.98
		c-2.74,8.38-5.85,16.67-8.41,25.1c-3.57,11.77-4.63,23.85-4.17,36.05c0.06,1.66,0.33,3.38,0.89,4.96
		c2.62,7.34,10.38,10.09,17.44,6.03c2.75-1.58,5.17-3.7,7.59-5.73c1.57-1.31,3.06-2.42,5.31-1.62c10.76-34.99,21-70.03,32.96-104.7
		c2.13,2.49,0.85,4.98,0.3,7.4c-0.58,2.59-1.34,5.14-2.17,8.25c3.33-2.6,5.94-4.97,8.88-6.88c7.68-4.98,16.46-5.06,23.96-0.43
		c2.4,1.49,4.5,3.23,4.61,7.27c-1.81-1.04-2.9-1.65-3.97-2.3c-6.97-4.24-14.35-5.1-21.55-1.05c-8.09,4.56-14.22,10.62-16.59,19.72
		c-7.71,29.65-15.76,59.23-23.74,88.82c-0.73,2.71-1.93,5.31-2.94,8.01c-4.33-1.88-4.96-3.01-4.08-6.74
		c0.92-3.91,1.9-7.81,2.17-12.03c-1.41,1.46-2.77,2.96-4.24,4.37c-3.23,3.1-6.95,5.47-11.65,6.08c-9.15,1.2-17.72-4.73-19.58-13.91
		c-0.83-4.09-1.14-8.38-0.87-12.53c0.71-10.77,2-21.5,5.6-31.84c0.78-2.24,0.47-4.13-1.13-5.59c-2.82-2.57-5.79-5.06-9-7.19
		c-2.81-1.87-5.88-1.59-8.37,0.87c-1.98,1.96-4.06,3.87-5.76,6.03c-10.1,12.82-17.45,26.8-20.38,42.59
		c-1.66,8.95,0.34,11.11,10.03,10.54c5.01-0.29,9.52-1.94,13.57-4.72c1.35-0.92,2.84-1.68,4.26-2.51c0.32,0.25,0.65,0.5,0.97,0.75
		c-0.29,1-0.32,2.17-0.92,2.97c-5.08,6.86-17.4,11.14-26.15,9.3c-3.97-0.83-5.71-3.91-8.05-6.41L430.46,807.27z"/>
	<path d="M430.34,807.13c0.67,2.04-0.22,3.6-1.77,4.97c-5.28,4.66-10.8,9.05-17.49,11.89c-1.95,0.83-4.06,1.56-6.17,1.8
		c-6.94,0.77-11.86-3.22-12.34-9.72c-0.42-5.68,1.31-11.04,3.05-16.34c6.35-19.38,13.99-38.28,23.84-56.4
		c3.76-6.91,7.54-13.89,8.55-21.73c0.24-1.86,0.3-4.47-0.85-5.6c-1.86-1.84-4.83-0.39-6.43,0.86c-3.84,3.02-7.89,6.18-10.58,10.04
		c-8.27,11.88-16.4,23.88-23.76,36.26c-11.84,19.92-23.02,40.18-34.45,60.3c-1.76,3.09-3.34,6.27-4.99,9.4
		c-5.21-2.34-6.04-4.14-3.82-8.38c6.91-13.19,14.08-26.25,20.85-39.5c7-13.7,13.83-27.48,20.37-41.37
		c3.79-8.06,6.54-16.47,5.96-25.47c-0.1-1.59-0.6-3.15-1.07-5.49c-3.11,1.84-5.67,3.08-7.88,4.72
		c-15.09,11.21-28.81,23.66-39.94,38.43c-1.06,1.41-2.98,2.6-1.25,4.82c0.29,0.37-0.76,2.19-1.6,2.61
		c-0.87,0.43-2.58,0.34-3.31-0.22c-0.77-0.59-1.2-2.03-1.08-3.03c0.14-1.09,1.02-2.13,1.7-3.12c11.93-17.38,26.96-32.13,44.2-45.01
		c1.27-0.95,2.69-1.72,4.11-2.47c6.27-3.31,9.9-1.61,10.94,5.13c0.99,6.42,0.67,12.78-1.26,19.04c-0.49,1.58-0.84,3.19-0.61,5.08
		c1.05-1.47,2.04-2.99,3.17-4.41c4.85-6.09,9.51-12.33,14.69-18.17c3.4-3.83,7.94-6.41,13.6-6.57c5.17-0.15,7.72,1.67,8.78,6.36
		c1.24,5.49,0.01,10.82-2.15,15.82c-3.71,8.6-7.95,17-11.91,25.5c-8.16,17.5-15.39,35.29-19.68,54.01
		c-0.58,2.52-1.41,5.32,1.08,7.07c2.52,1.77,5.66,0.98,8.27-0.28c4.49-2.18,8.77-4.73,13.21-6.99c2.65-1.35,5.45-2.46,8.18-3.69
		C430.46,807.27,430.34,807.13,430.34,807.13z"/>
	<path d="M613.33,836.43c-3.22-0.71-3.19-2.7-2.89-4.47c0.51-2.99,1.14-5.99,2.11-8.88c6.72-20.11,13.36-40.26,20.38-60.28
		c13.6-38.8,29.86-76.68,46.24-114.51c4.13-9.53,8.86-18.84,13.33-28.23c0.4-0.84,1-1.6,1.7-2.71c2.13,2.46,0.27,4.26-0.39,5.88
		c-2.69,6.62-5.85,13.08-8.52,19.71c-9.42,23.35-18.72,46.75-28.05,70.14c-0.36,0.9-0.53,1.87-1.02,3.66c2.2-1.8,3.64-3.02,5.12-4.2
		c6.12-4.91,12.87-8.75,20.81-10.54c1.22-0.27,2.47-0.56,3.71-0.63c6.8-0.37,10.37,2.82,10.88,9.16c0.78,9.76-1.28,19.17-3.97,28.45
		c-4.81,16.59-10.16,33.05-14.94,49.64c-2.2,7.63-3.73,15.44-5.26,23.22c-0.51,2.59-0.37,5.38-0.04,8.02
		c0.72,5.74,4.16,7.91,10.23,6.49c10.41-2.42,19.66-7.14,27.53-13.77c6.15-5.19,11.53-11.17,17.19-16.86
		c1.35-1.36,2.32-3.07,3.77-4.31c0.89-0.76,2.36-0.92,3.56-1.35c-0.06,1.22,0.33,2.67-0.24,3.64c-9.96,16.89-23.5,30.32-43.01,37.83
		c-2.33,0.9-4.77,1.63-7.22,2.16c-9.9,2.12-17.05-2.59-18.6-12.03c-0.89-5.44-0.31-10.82,1.21-16.03
		c4.09-13.98,8.32-27.93,12.79-41.8c4.48-13.88,9.65-27.59,12.01-41.98c0.63-3.8,0.82-7.72,0.67-11.56
		c-0.14-3.85-2.34-5.4-6.48-4.93c-2.31,0.27-4.63,0.87-6.83,1.62c-10.73,3.64-19,10.41-26.18,18.4c-1.44,1.61-2.12,3.89-2.85,5.95
		c-9.22,26.27-18.38,52.56-27.56,78.85C619.54,818.8,616.5,827.4,613.33,836.43z"/>
	<path d="M626.33,718.97c-7.99-6.37-15.86-6.34-23.45-0.12c-10.03,8.22-17.73,18.26-24.68,28.78c-11.02,16.68-17,35.02-19.24,54.32
		c-1.21,10.41,5.48,17.04,16.76,17.74c2.45,0.15,5.34-1.09,7.51-2.42c9.15-5.62,17.05-12.56,23.82-20.6
		c1.12-1.33,2.2-2.68,3.26-4.04c1.15-1.47,2.51-1.79,4.42-0.69c-1.38,4.94-3.9,9.44-7.48,13.19c-5.41,5.65-11.05,11.16-17.05,16.26
		c-6.59,5.6-14.15,6.99-22.6,3.14c-8.47-3.85-12.95-10.06-13.77-18.62c-0.69-7.17,1.33-14.07,2.97-20.97
		c4.92-20.75,14.08-39.7,28.66-56.15c4.7-5.3,10.09-10.13,15.55-14.79c4.93-4.21,11.23-4.42,17.5-3.5c3.76,0.55,6.84,2.29,8.07,5.95
		C626.76,716.98,626.48,717.65,626.33,718.97z"/>
	<path d="M293.58,834.18c-3.83-2.09-4.33-4.77-3.03-7.67c2.78-6.22,5.55-12.46,8.79-18.47c17.21-31.95,34.55-63.84,51.88-95.73
		c0.98-1.8,1.96-3.69,3.41-5.13c0.66-0.66,2.85-0.85,3.64-0.32c1.02,0.67,0.61,1.88-0.75,2.79c-1.06,0.71-1.74,2.08-2.27,3.28
		c-16.25,36.29-35.95,71.06-54.42,106.38c-1.8,3.43-2.87,7.19-4.46,10.72C295.72,831.47,294.57,832.73,293.58,834.18z"/>
	<path d="M490.42,627.23c0.25,1.06,0.45,1.54,0.45,2.02c0,0.48-0.21,0.96-0.38,1.66c-1.03,0.13-2.07,0.36-3.12,0.37
		c-25.02,0.28-50.04,0.57-75.07,0.79c-16.33,0.14-32.67,0.06-49,0.28c-11.04,0.15-22.09,0.59-33.12,1.02
		c-2.5,0.1-4.98,0.67-7.85,1.07c0.05,0.69,0.1,1.41,0.17,2.46c-2.77,1.18-5.21-0.06-7.37-1.37c-0.98-0.59-1.69-2.16-1.7-3.29
		c0-0.56,1.83-1.55,2.89-1.63c6.49-0.48,12.99-0.86,19.49-1.06c5.57-0.17,11.17,0.31,16.71-0.12c23.72-1.81,47.48-0.93,71.22-1.22
		c20.12-0.24,40.24-0.66,60.35-0.99C486.08,627.2,488.05,627.23,490.42,627.23z"/>
	<path d="M662.13,183c1.31-0.5,2.67-0.89,3.9-1.5c5.03-2.47,6.9-6.94,5.07-11.93c-0.17-0.48-0.4-0.94-0.62-1.4
		c-2.53-5.29-5.18-6.44-9.96-4.32c-5.09,2.25-7.55,7.51-5.11,11.6c1.08,1.82,2.92,3.25,4.64,5.11c-2.28,1.6-4.25,0.38-5.87-1.1
		c-6.92-6.3-5.37-13.78,0.56-19.1c2.49-2.24,5.8-3.19,9.42-3.35c4.6-0.21,7.45,1.65,9.53,5.32c3.47,6.12,5.04,12.17,1.09,18.67
		c-1.53,2.52-3.72,4.06-6.54,4.96C664.99,186.99,664.25,186.6,662.13,183z"/>
	<path d="M379.21,181.19c-1.45-0.18-2.93,0.01-3.92-0.55c-4.18-2.34-6.93-6.12-6.46-10.43c1.03-9.37,8.15-14.05,17.71-12.99
		c1.33,0.15,2.92,0.86,3.77,1.79c5.37,5.87,8.8,15.29,3,22.76c-1.48,1.9-4.04,3.29-6.41,4.3c-2.45,1.05-4.6,0.19-5.47-2.9
		c1.37-0.59,2.79-1.11,4.12-1.79c4.68-2.42,6.38-6.28,4.93-11.06c-0.24-0.8-0.55-1.6-0.92-2.36c-2.39-4.94-4.68-6.06-9.07-4.46
		c-4.09,1.49-8.41,6.69-6.47,10.34C375.3,176.25,377.2,178.38,379.21,181.19z"/>
</g>
</svg>
