<?xml version="1.0" encoding="utf-8"?>
<!-- Generator: Adobe Illustrator 24.3.0, SVG Export Plug-In . SVG Version: 6.00 Build 0)  -->
<svg version="1.1" id="Calque_1" xmlns="http://www.w3.org/2000/svg" xmlns:xlink="http://www.w3.org/1999/xlink" x="0px" y="0px"
	 viewBox="0 0 1000 1000" style="enable-background:new 0 0 1000 1000;" xml:space="preserve">
<style type="text/css">
	.st0{fill:#FFFFFF;stroke:#000000;stroke-width:13;stroke-miterlimit:10;}
</style>
<g>
	<path d="M484.8,869.52c-0.8-0.43-1.57-1.11-2.42-1.23c-3.78-0.53-7.59-0.9-11.39-1.31c-5.99-0.65-11.98-1.27-17.96-1.95
		c-5.24-0.59-10.47-1.18-15.7-1.87c-4.37-0.57-8.76-1.12-13.08-1.98c-7.28-1.45-14.51-3.11-21.76-4.73
		c-2.87-0.64-5.73-1.31-8.55-2.12c-4.25-1.22-8.48-2.56-12.7-3.9c-5.1-1.62-10.22-3.17-15.25-4.98c-4.88-1.75-9.68-3.74-14.46-5.73
		c-4.92-2.04-9.84-4.09-14.65-6.37c-4.86-2.3-9.62-4.83-14.36-7.36c-4.44-2.37-8.9-4.73-13.18-7.38
		c-7.52-4.67-15.04-9.38-22.32-14.41c-7.46-5.14-14.71-10.59-21.92-16.08c-3.41-2.6-6.58-5.55-9.73-8.47
		c-5.8-5.37-11.6-10.75-17.24-16.29c-10.24-10.06-19.68-20.85-28.33-32.3c-6.08-8.04-12.02-16.21-17.44-24.69
		c-5.7-8.92-11.07-18.09-15.95-27.48c-5.01-9.63-9.5-19.55-13.76-29.54c-3.4-7.98-6.31-16.18-9.09-24.4
		c-2.26-6.7-4.11-13.55-5.96-20.39c-1.76-6.51-3.41-13.05-4.84-19.63c-0.99-4.55-1.61-9.19-2.25-13.81
		c-0.73-5.26-1.39-10.53-1.93-15.8c-0.75-7.33-1.41-14.68-2.02-22.03c-0.4-4.83-0.04-9.82-1.1-14.49
		c-1.18-5.19-0.86-10.31-0.81-15.45c0.03-3.59,0.91-7.17,1.41-10.76c0.2-1.48,0.44-2.95,0.57-4.44c0.39-4.6,0.68-9.2,1.13-13.79
		c0.58-5.97,1.15-11.95,1.97-17.89c1.18-8.54,2.29-17.11,3.98-25.56c1.52-7.6,3.71-15.07,5.74-22.55c1.63-5.99,3.25-11.99,5.3-17.84
		c2.34-6.71,5.15-13.25,7.76-19.86c1.7-4.3,3.27-8.67,5.19-12.87c1.96-4.29,4.17-8.46,6.45-12.59c4.78-8.67,9.46-17.42,14.6-25.88
		c4.3-7.08,8.99-13.94,13.86-20.64c4.94-6.8,10.07-13.49,15.54-19.86c6.46-7.52,13.29-14.73,20.13-21.91
		c4.62-4.85,9.48-9.46,14.35-14.07c2.59-2.46,5.37-4.73,8.15-6.98c4.53-3.65,9.07-7.3,13.73-10.79c6.47-4.84,12.9-9.77,19.62-14.24
		c7.57-5.04,15.31-9.88,23.24-14.33c8.35-4.69,16.88-9.12,25.59-13.11c10.13-4.65,20.46-8.86,30.83-12.94
		c5.29-2.08,10.84-3.49,16.28-5.17c5-1.54,10-3.08,15.03-4.5c3.42-0.97,6.9-1.76,10.37-2.58c3.97-0.94,7.95-1.86,11.94-2.74
		c1.91-0.42,3.84-0.76,5.78-1.04c2.96-0.42,5.94-0.74,8.9-1.14c2.74-0.37,5.46-0.81,8.2-1.22c1.72-0.26,3.44-0.62,5.17-0.75
		c6.75-0.53,13.5-1.18,20.26-1.42c11.16-0.39,22.33-0.63,33.5-0.66c4.35-0.01,8.71,0.76,13.07,1.14c4.59,0.41,9.19,0.69,13.77,1.21
		c3.68,0.41,7.32,1.08,10.98,1.63c2.17,0.33,4.35,0.64,6.52,0.98c4.34,0.7,8.7,1.28,13,2.16c4.41,0.9,8.77,2.04,13.12,3.18
		c5.9,1.53,11.79,3.09,17.65,4.77c4.45,1.28,8.89,2.63,13.25,4.2c6.77,2.44,13.53,4.94,20.19,7.67c6.87,2.81,13.72,5.73,20.4,8.96
		c8.06,3.89,16.09,7.89,23.86,12.32c7.71,4.4,15.24,9.17,22.57,14.17c7.94,5.42,15.69,11.15,23.31,17.03
		c6.77,5.23,13.47,10.59,19.79,16.35c7.64,6.96,15.05,14.2,22.16,21.69c8.16,8.61,16.16,17.41,23.72,26.54
		c6.39,7.72,12.2,15.93,17.97,24.13c4.83,6.86,9.48,13.88,13.73,21.11c4.37,7.44,8.28,15.16,12.19,22.87
		c2.75,5.41,5.33,10.92,7.67,16.52c2.67,6.39,5.02,12.92,7.47,19.4c1.28,3.37,2.6,6.73,3.68,10.16c1.52,4.81,2.88,9.67,4.23,14.54
		c0.96,3.43,1.85,6.89,2.68,10.35c0.9,3.78,1.72,7.57,2.5,11.37c0.91,4.4,1.81,8.8,2.59,13.22c0.54,3.05,0.92,6.14,1.3,9.22
		c0.58,4.65,1.16,9.3,1.61,13.96c0.26,2.61,0.23,5.25,0.4,7.88c0.24,3.65,0.55,7.29,0.83,10.93c0,7.84,0,15.68,0,23.52
		c-0.13,1.02-0.32,2.03-0.37,3.06c-0.36,7.09-0.52,14.19-1.07,21.26c-0.68,8.64-1.54,17.27-2.59,25.88c-0.61,5-1.68,9.95-2.62,14.9
		c-0.92,4.82-1.85,9.65-2.93,14.44c-0.97,4.33-2.08,8.63-3.25,12.9c-1.37,5.01-2.7,10.04-4.34,14.97
		c-1.72,5.15-3.62,10.26-5.75,15.26c-3.83,9.02-7.67,18.06-11.92,26.89c-4.15,8.62-8.67,17.06-13.31,25.43
		c-3.26,5.89-6.76,11.68-10.55,17.24c-5.32,7.79-10.74,15.54-16.6,22.92c-6.42,8.08-13.23,15.88-20.18,23.52
		c-4.27,4.69-8.99,9.02-13.76,13.22c-7.27,6.4-14.57,12.8-22.21,18.74c-7.37,5.72-14.97,11.23-22.9,16.13
		c-9.64,5.96-19.67,11.29-29.64,16.7c-4.99,2.7-10.14,5.14-15.36,7.39c-5.96,2.57-12.05,4.85-18.13,7.15
		c-7,2.66-13.98,5.41-21.09,7.74c-6.83,2.23-13.78,4.12-20.74,5.9c-8.52,2.19-17.08,4.21-25.67,6.11
		c-5.29,1.17-10.65,2.03-15.99,2.95c-4.02,0.69-8.05,1.3-12.09,1.86c-4.85,0.68-9.7,1.46-14.58,1.85
		c-7.46,0.6-14.95,0.85-22.41,1.39c-1.58,0.11-3.11,0.82-4.66,1.25C502.08,869.52,493.44,869.52,484.8,869.52z M420.22,648.9
		c-2.7,2.78-6.43,3.36-9.19,1.37c-1.88-1.36-3.85-2.64-5.55-4.21c-2.45-2.25-4.53-4.87-3.79-8.5c0.37-1.82,1.37-3.5,1.94-5.29
		c1.36-4.32,2.64-8.66,3.91-13c0.13-0.44-0.1-0.98-0.16-1.48c-0.25-0.06-0.5-0.12-0.75-0.17c-4.2,11.15-8.4,22.3-12.6,33.45
		c1.64-1.23,3.12-2.61,4.36-4.19c1.74-2.22,3.44-2.3,5.44-0.37c1.92,1.85,3.91,3.7,6.15,5.13c3.46,2.21,6.89,1.86,9.58-0.66
		c0.47-0.44,0.45-1.41,0.66-2.11c0.44,0.06,0.88,0.13,1.32,0.19c-0.04-0.25-0.08-0.5-0.12-0.75
		C421.01,648.5,420.61,648.7,420.22,648.9z M398.35,576.21c0.37-0.22,0.88-0.34,1.09-0.67c4.24-6.53,9.83-11.66,16.02-16.32
		c4.16-3.13,6.58-7.66,6.83-12.99c0.2-4.22,0.08-8.45-0.02-12.67c-0.02-0.84-0.57-1.67-0.87-2.51c-0.22-0.02-0.43-0.03-0.65-0.05
		c-0.36,0.71-0.96,1.4-1.05,2.14c-0.4,3.22-0.98,6.47-0.9,9.69c0.17,6.31-2.53,11.18-6.7,15.57c-3.32,3.5-6.61,7.05-9.62,10.81
		c-1.68,2.1-2.74,4.68-4.09,7.04c-0.24,0.14-0.61,0.23-0.71,0.44c-1.38,2.83-2.8,5.65-4.06,8.54c-0.78,1.79-1.32,3.69-1.97,5.55
		c0.22,0.1,0.43,0.19,0.65,0.29c0.44-0.68,0.99-1.32,1.3-2.06c1.58-3.72,3.11-7.46,4.6-11.21
		C398.4,577.33,398.31,576.74,398.35,576.21z M753.25,526.28c0.02,0.2,0.05,0.4,0.07,0.6c-1.39,0.45-2.8,0.85-4.16,1.36
		c-2.9,1.09-5.52,2.67-6.46,5.8c-0.63,2.12-0.61,4.42-1.1,6.59c-0.41,1.81-1.01,3.6-1.74,5.31c-1.64,3.79-4.74,6.1-8.36,7.81
		c-1.29,0.61-1.91,1.51-1.89,3c0.29,15.34,0.55,30.68,0.8,46.02c0.01,0.63,0.03,1.29-0.1,1.9c-0.58,2.8-1.02,5.64-1.85,8.37
		c-2.28,7.52,0.36,14.33,2.72,21.24c1.71,5,3.22,10.07,4.66,15.16c0.99,3.5,1.39,7.18,2.58,10.61c1.46,4.21,3.37,8.27,5.24,12.32
		c4.01,8.69,7.51,17.6,12.72,25.74c4.69,7.32,12.81,10.38,21.07,7.4c4.21-1.52,7.1-4.7,10.15-7.65c2.35-2.27,3.97-5.46,6.6-7.22
		c3.07-2.07,4.96-4.82,6.71-7.78c4.62-7.8,9.29-15.58,15.75-21.99c7.39-7.34,11.15-16.79,15.43-25.89
		c1.89-4.02,2.38-8.71,3.49-13.09c1.13-4.45,2.22-8.91,3.35-13.36c1.13-4.43,2.36-8.84,3.42-13.29c0.96-4.01,1.75-8.06,2.63-12.09
		c1.25-5.75,2.92-11.43,2.79-17.41c-0.03-1.35,0.03-2.71,0.16-4.06c0.52-5.4,1.08-10.79,1.62-16.18c0.27-2.69,0.46-5.4,0.77-8.08
		c0.29-2.43,1.01-4.85,1.02-7.28c0.11-16.12,0.82-32.26-0.84-48.35c-0.13-1.27,0-2.57-0.18-3.83c-0.51-3.58-1.13-7.14-1.68-10.71
		c-0.74-4.79-1.23-9.63-2.22-14.36c-1.44-6.82-3.14-13.59-4.91-20.34c-1.48-5.63-3.07-11.24-4.86-16.78
		c-2.21-6.84-4.48-13.67-7.08-20.36c-3.11-7.97-6.44-15.87-9.99-23.65c-2.92-6.4-6.08-12.72-9.56-18.84
		c-4.69-8.26-9.56-16.43-14.76-24.37c-4.2-6.41-9.1-12.35-13.55-18.6c-6.79-9.54-14.45-18.38-22.56-26.77
		c-9.16-9.46-18.71-18.57-28.49-27.4c-7.34-6.62-15.11-12.82-23.04-18.73c-10.06-7.5-20.26-14.85-30.8-21.64
		c-8.86-5.7-18.19-10.71-27.52-15.63c-10.54-5.56-21.35-10.58-32.53-14.73c-6.5-2.41-13.05-4.71-19.63-6.86
		c-6.12-2-12.28-3.96-18.52-5.53c-7.91-1.99-15.88-3.75-23.89-5.25c-5.4-1.02-10.91-1.45-16.38-2.11c-0.95-0.11-1.93,0.03-2.87-0.09
		c-4.27-0.55-8.52-1.62-12.79-1.66c-18.27-0.17-36.55-1.02-54.8,0.77c-1.35,0.13-2.73,0.04-4.07,0.2c-4.67,0.57-9.33,1.22-14,1.82
		c-0.55,0.07-1.13-0.02-1.67,0.08c-5.12,0.94-10.24,1.86-15.35,2.86c-5.78,1.13-11.57,2.22-17.3,3.57
		c-5.58,1.32-11.1,2.9-16.62,4.45c-4.21,1.17-8.43,2.34-12.57,3.73c-4.95,1.66-9.87,3.42-14.7,5.37c-8.2,3.3-16.45,6.53-24.46,10.25
		c-11.56,5.36-22.8,11.36-33.43,18.41c-8.03,5.33-16.14,10.6-23.74,16.51c-9.72,7.56-19.23,15.43-28.33,23.72
		c-12.19,11.1-23.23,23.34-33.6,36.18c-7.96,9.85-15.83,19.73-22.51,30.53c-4.74,7.66-9.83,15.1-14.57,22.76
		c-4.62,7.47-8.86,15.18-13.52,22.63c-5.8,9.27-8.89,19.45-10.81,30.09c-0.69,3.82-1.69,7.58-2.5,11.38
		c-0.83,3.87-1.61,7.75-2.41,11.62c-0.66,3.17-1.3,6.34-2.02,9.5c-0.91,3.99-2.01,7.94-2.79,11.95c-0.94,4.82-1.65,9.68-2.42,14.53
		c-1.25,7.83-2.83,15.63-3.59,23.5c-0.8,8.24-0.93,16.55-1.08,24.84c-0.07,3.71,0.71,7.42,0.83,11.14
		c0.44,12.93,0.72,25.87,1.18,38.8c0.1,2.69,0.62,5.38,1.1,8.04c0.83,4.51,1.72,9.02,2.7,13.5c0.78,3.56,1.13,7.39,2.74,10.56
		c2.59,5.11,2.59,10.74,4.27,16c1.05,3.29,1.19,6.88,2.22,10.18c2.09,6.68,4.37,13.31,6.84,19.85c2.85,7.57,5.69,15.17,9.09,22.5
		c4.06,8.74,8.53,17.31,13.15,25.78c8.24,15.1,19.62,28.03,29.6,41.92c4.49,6.25,9.85,11.86,14.71,17.85
		c2.23,2.73,3.97,5.89,6.38,8.44c3.15,3.34,6.65,6.36,10.15,9.34c7.79,6.61,16.96,4.45,20.35-4.62c1.5-4.02,2.07-8.51,2.32-12.83
		c0.23-3.93-0.68-7.92-0.84-11.89c-0.44-10.86-0.74-21.72-1.13-32.58c-0.22-5.98-0.47-11.96-0.77-17.93
		c-0.34-7.02-0.76-14.03-1.1-21.05c-0.41-8.46-0.78-16.93-1.17-25.39c-0.02-0.4-0.07-0.8-0.1-1.19c-0.6-6.75-1.45-13.49-1.73-20.26
		c-0.3-7.43,0.07-14.88-0.11-22.31c-0.1-4.3-0.6-8.61-1.11-12.89c-0.56-4.66-1.42-9.29-1.99-13.95c-0.67-5.47-1.21-11.07-5.08-15.32
		c-2.16-2.37-1.96-4.84-1.44-7.32c0.35-1.69,0.64-3.59,2.55-4.8c7.36-4.67,14.59-9.57,21.89-14.34c7.66-5.01,15.36-9.98,23.03-14.98
		c3.57-2.32,7.37-2.23,10.93-0.41c3.7,1.89,7.17,4.25,10.65,6.55c3.01,1.99,3.1,2.81,1.36,5.8c-2.17,3.74-4.41,7.46-6.4,11.3
		c-0.78,1.51-0.96,3.32-1.42,5c0.3,0.12,0.61,0.23,0.91,0.35c1.72-2.88,3.65-5.65,5.12-8.65c4.35-8.91,8.53-17.89,12.75-26.86
		c1.83-3.89,3.61-7.81,5.34-11.75c2.36-5.36,4.65-10.75,8.96-14.94c1.57-1.53,3.31-2.92,4.68-4.61c6.35-7.79,10.88-16.73,15.5-25.57
		c3.12-5.97,6.91-11.42,11.21-16.56c3.32-3.97,6.62-7.94,9.84-11.99c1.6-2.01,1.35-4.42-0.46-6.22c-2.04-2.03-4.17-3.98-6.17-6.05
		c-3.57-3.7-7.33-7.27-10.55-11.27c-3.74-4.65-1.75-10.76,4.04-12.1c5.69-1.32,11.55-1.96,17.37-2.65
		c4.73-0.56,9.49-0.89,14.25-1.05c4.54-0.15,9.15-0.35,13.63,0.23c3.94,0.52,7.72,2.2,11.62,3.16c3.86,0.96,7.74,1.33,11.01-1.7
		c2.41-2.23,5.3-3.73,8.38-4.46c2.34-0.55,5.27-0.92,7.31,0.01c4.02,1.83,8.06,3.48,12.39,4.1c4.73,0.68,9.34,2.54,14.27,1.68
		c1.17-0.2,2.39-0.15,3.59-0.15c9.67-0.04,19.32,0.11,28.66,3.16c3.59,1.17,7.26,2.11,10.91,3.11c4.54,1.24,9.04,2.71,13.65,3.56
		c6.64,1.21,13.37,1.99,19.39,5.33c5.41,2.99,11.09,5.64,16.02,9.3c7.01,5.2,13.47,11.16,20.11,16.86c1.26,1.08,2.58,2.27,3.39,3.69
		c3.2,5.56,6.45,11.13,9.23,16.91c2.59,5.38,5.05,10.91,6.75,16.61c2.1,7.05,3.63,14.3,4.89,21.56c0.85,4.89,0.81,9.93,1.17,14.9
		c0.31,4.35,0.63,8.69,0.92,13.04c0.34,4.98,0.76,9.96,0.94,14.95c0.17,4.61,2.55,7.08,7.23,7.08c36.24,0,72.48,0,108.72,0
		C751.39,526.28,752.32,526.28,753.25,526.28z M663.51,547.32c-12.64,0-25.27-0.08-37.91,0.06c-3.22,0.04-6.64,0.23-9.61,1.32
		c-7.55,2.76-10.94,8.41-11.22,16.63c-0.36,10.71-0.1,21.43-0.1,32.15c0.01,16.45-0.01,32.89,0.94,49.34
		c0.64,11.08,0.17,22.22,0.51,33.33c0.18,6.01,1.07,12,1.53,18.01c0.46,5.89,0.68,11.79,1.21,17.67c0.28,3.08,1,6.11,1.52,9.16
		c0.77,4.46,1.53,8.91,2.31,13.37c0.35,1.96,0.59,3.96,1.17,5.85c1.51,4.91,3,9.85,4.85,14.64c2.47,6.39,5.47,12.54,11.05,16.92
		c3.58,2.81,7.72,4.38,12.21,3.29c6.41-1.56,11.01-5.82,14.86-11.04c3.86-5.24,7.93-10.31,11.84-15.52
		c1.41-1.87,2.78-3.81,3.87-5.88c2.37-4.53,4.42-9.24,6.83-13.75c5.26-9.86,10.7-19.62,15.98-29.47
		c6.06-11.31,12.19-22.59,17.94-34.06c3.09-6.17,5.46-12.72,5.26-19.82c-0.11-3.64-0.58-7.27-0.9-10.9
		c-0.32-3.64-0.72-7.28-0.98-10.92c-0.4-5.62-0.73-11.24-1.06-16.87c-0.38-6.68-0.75-13.36-1.08-20.04
		c-0.11-2.16,0.04-4.33-0.15-6.47c-0.51-5.75-1.22-11.48-1.68-17.23c-0.28-3.58-0.15-7.19-0.37-10.77c-0.11-1.81-0.34-3.7-1-5.36
		c-1.14-2.85-3.63-3.64-6.56-3.63C691.02,547.34,677.26,547.32,663.51,547.32z M272.33,556.76c1.39,2.44,3.96,4.34,6.3,4.5
		c5.61,0.39,11.22,0.71,16.83,0.99c2.23,0.11,4.48,0.02,6.72,0.02c2.66,0,5.32,0,7.98,0c0.08,0.29,0.17,0.59,0.25,0.88
		c-1.86,1.63-3.57,3.5-5.65,4.78c-0.89,0.54-2.54-0.22-3.85-0.31c-7.08-0.45-14.17-0.79-21.24-1.35c-3.49-0.28-4.68,1.96-4.32,5.01
		c0.59,4.95,1.21,9.95,2.47,14.76c1.46,5.55,3.41,11.01,5.56,16.34c1.91,4.74,4.46,9.21,6.57,13.87c1.27,2.8,2.27,5.72,3.32,8.61
		c1.85,5.09,3.42,10.29,5.51,15.28c2.74,6.53,5.64,13.02,8.92,19.29c2.61,5,6.06,9.57,8.84,14.49c5.71,10.1,11.27,20.3,16.8,30.5
		c2.14,3.95,4.17,7.98,6,12.08c1.21,2.72,1.88,5.67,2.95,8.46c3.39,8.78,10.11,14.75,17.37,20.21c2.64,1.98,5.78,3.11,7.98,5.9
		c2.67,3.4,6.83,4.4,9.77,2.91c3.46-1.75,3.85-5.16,4.06-8.55c0.43-6.81,0.17-13.62,0.84-20.46c1-10.2,1.16-20.52,1.08-30.78
		c-0.27-34.89,0.95-69.8-0.7-104.68c-0.22-4.55-0.15-9.12,0.01-13.67c0.14-3.94,0.48-7.89,0.96-11.81c0.21-1.68,1.08-3.27,1.52-4.94
		c1.09-4.09,3.76-7.27,5.95-10.74c0.74-1.18,1.15-3.04,0.8-4.35c-0.84-3.13-3.42-4.7-6.74-4.7c-37.19,0-74.38-0.01-111.57,0.04
		c-1.35,0-2.92,0.23-4,0.94c-1.19,0.79-2.49,2.18-2.66,3.45c-0.1,0.78,1.7,2.4,2.86,2.66c3.85,0.85,7.79,1.64,11.71,1.76
		c10.39,0.3,20.78,0.18,31.18,0.36c5.08,0.09,10.16,0.47,15.23,0.74c0.27,0.01,0.52,0.23,1.15,0.53c-2.47,2.01-4.72,3.82-7.69,4.11
		c-3.01,0.3-6.05,0.37-9.08,0.39c-11.04,0.04-22.07,0.05-33.11-0.01C276.61,554.26,274.44,555.12,272.33,556.76z M622.45,527.52
		c2.08-2.08,2.33-2.87,1.98-5.27c-0.51-3.53-1.05-7.06-1.53-10.6c-1.12-8.28-2.27-16.56-3.3-24.85c-1.13-9.15-3.01-18.1-5.94-26.88
		c-2.45-7.34-5.54-14.26-9.6-20.86c-5.72-9.3-13.5-16.47-22.31-22.6c-6.41-4.47-13.09-8.59-20.27-11.75
		c-4.55-2-9.18-3.88-13.88-5.49c-3.78-1.29-7.7-2.26-11.62-3.07c-5.05-1.04-10.14-2.3-15.25-2.54c-7.02-0.32-14.1-0.88-21.14,0.58
		c-3.69,0.76-7.56,0.64-11.31,1.16c-3.23,0.44-6.43,1.19-9.63,1.85c-5.1,1.05-8.5,4.31-11.14,8.58c-0.35,0.57-0.95,1.44-1.41,1.42
		c-3.62-0.1-7.47,1.25-10.71-1.63c-0.49-0.43-1.56-0.56-2.23-0.36c-3.21,0.93-6.48,1.75-9.52,3.09
		c-5.76,2.54-11.46,5.31-15.24,10.72c-1.51,2.16-3.02,4.31-4.46,6.52c-1.99,3.05-3.26,3.44-6.66,2.15
		c-1.53-0.58-3.06-0.65-4.27,0.89c-8.04,10.23-15.74,20.69-20.58,32.9c-2.81,7.09-5.51,14.23-7.9,21.47
		c-1.68,5.09-2.82,10.37-4.12,15.58c-1.54,6.2-2.78,12.46-2.77,18.9c0,1.52,0.39,3.23-0.17,4.52c-1.63,3.72,0.32,7.21,0.29,10.8
		c0,0.34,0.35,0.69,0.53,1.03c0.92,1.69,2.58,1.77,4.17,1.76c3.51-0.02,7.03-0.32,10.54-0.2c3.26,0.11,5.97,1.37,8.11,4.14
		c1.63,2.11,3.83,3.8,5.94,5.47c0.39,0.31,2.07-0.12,2.28-0.6c1.28-2.86,2.63-5.75,3.35-8.77c0.99-4.16,1.22-8.5,2.2-12.67
		c1.31-5.59,2.94-11.11,4.6-16.62c2.19-7.26,5.62-13.98,9.67-20.36c1.58-2.49,2.49-5.07,2.46-8c-0.01-1.28-0.22-2.62,0.08-3.83
		c1.08-4.4,1.06-8.74,0.02-13.14c-0.32-1.36-0.33-2.94,0.02-4.28c0.59-2.24-0.08-4.28-0.7-6.26c-0.74-2.37-1.86-4.64-3.01-6.86
		c-0.93-1.8,0.01-3.1,1.17-3.91c1.17-0.82,2.77-1.34,4.21-1.41c4.87-0.24,9.76-0.51,14.62-0.24c4.21,0.23,8.66-0.73,12.87,1.92
		c0,0.89,0.2,2.01-0.04,3.03c-0.6,2.53-1.37,5.02-2.11,7.51c-1.71,5.7-1.03,11.39,0.13,17.05c0.59,2.86,1.82,5.45,4.04,7.43
		c2.91-1.3,5.78-2.47,7.25-5.33c2.88-5.59,5.37-11.39,8.5-16.83c2.37-4.12,5.11-8.15,8.33-11.62c3.74-4.02,7.22-8.03,9.83-12.94
		c3.82-7.19,9.98-11.18,18.36-10.94c2.28,0.06,4.59,0.51,6.8,1.08c3.87,1.01,7.43,2.85,9.43,6.42c3.72,6.65,1.59,15.8-4.38,20.5
		c-3.03,2.39-6.19,4.76-7.56,8.56c-2.09,5.77-1.39,11.61,0.11,17.37c0.19,0.72,1.26,1.55,2.05,1.72c2.56,0.56,5.17,1.05,7.78,1.17
		c4.07,0.19,8.16,0.01,12.23,0.06c3.39,0.04,6.13,1.43,7.88,4.37c0.87,1.47,1.44,3.13,2.08,4.73c0.81,2.03,3.67,4.38,5.45,3.95
		c2.6-0.62,5.32-1.3,7.61-2.6c5.44-3.09,7.59-8.72,9.68-14.18c1.02-2.67-0.89-4.83-3.84-5.17c-2.42-0.28-4.87-0.52-7.24-1.08
		c-3.65-0.86-6.93-0.07-9.97,1.86c-2.41,1.53-4.79,2.52-7.41,0.91c-0.48-1.27-1.04-2.42-1.35-3.64c-1-3.9-2.01-7.8-2.78-11.74
		c-0.2-1.05,0.12-2.86,0.82-3.28c1.28-0.76,2.52,0.2,3.24,1.56c0.62,1.18,1.3,2.32,1.95,3.48c1.1,1.97,2.13,3.99,3.36,5.89
		c0.32,0.5,1.23,0.62,1.87,0.91c0.01-0.64,0.21-1.36-0.01-1.91c-0.69-1.82-1.61-3.55-2.29-5.38c-0.54-1.47-0.86-3.03-1.35-4.83
		c2.42,0.16,3.74,0.79,4.29,2.75c0.62,2.21,1.34,4.41,2.25,6.52c0.43,1,1.43,1.75,2.17,2.61c0.23-0.11,0.46-0.23,0.68-0.34
		c0.05-0.66,0.25-1.35,0.12-1.98c-0.32-1.55-0.88-3.05-1.17-4.6c-0.81-4.38,0.62-8.16,2.87-11.91c4.51-7.54,10.25-13.71,18.15-17.7
		c4.42-2.23,7.2-1.5,9.63,2.18c2.77,4.2,5.64,8.34,8.49,12.49c2.06,3.01,3.99,6.07,4.57,9.76c0.97,6.16-1.39,11.14-5.52,15.49
		c-2.49,2.62-4.13,5.59-2.35,9.21c1.78,3.62,3.63,7.25,5.85,10.62c2.9,4.41,6.5,8.36,9.24,12.86c5.15,8.46,8.71,17.62,11.17,27.24
		C620.17,524.74,621.49,526.02,622.45,527.52z M477.51,682.58c3.41-4.23,7.9-4.64,12.27-5.07c6.16-0.6,12.36-0.93,18.54-1.2
		c8.28-0.37,16.57-0.59,24.85-0.84c10.2-0.31,20.41-0.66,30.61-0.83c3.26-0.05,5.28-1.66,6.84-4.21c0.21-0.34,0.32-0.88,0.22-1.25
		c-0.73-2.64-5.31-6.02-8.1-6.02c-12.16,0-24.32-0.12-36.47,0.09c-3.02,0.05-6.04,1.07-9.01,1.84c-5.24,1.36-10.48,1.98-15.83,0.64
		c-3.3-0.82-6.61-2.09-9.94-2.22c-9.58-0.36-19.18-0.28-28.78-0.3c-21.27-0.04-42.55-0.04-63.82-0.05c-3.53,0-4.13,0.65-4.18,4.23
		c-0.04,3.11-0.2,6.23-0.22,9.34c-0.05,11.36-0.04,22.71-0.1,34.07c0,0.89-0.12,2.14-0.69,2.6c-1.22,0.99-1.17,2.16-1.17,3.43
		c0.07,14.55,0.13,29.11,0.19,43.66c0.01,3.34,0.86,4.27,4.22,4.29c5.28,0.04,10.56,0.06,15.84,0c12.86-0.14,25.72-0.09,38.57-0.59
		c6.96-0.27,13.03-3.02,16.86-9.65c-2.1-2.09-4.42-4.27-7.62-4.53c-9.04-0.72-18.09-1.27-27.14-1.72
		c-5.34-0.27-10.71-0.16-16.06-0.35c-1.17-0.04-2.31-0.67-3.68-1.09c1.12-2.12,2.9-2.32,4.4-2.39c8.44-0.42,16.88-0.71,25.32-0.95
		c5.67-0.16,11.35-0.06,17.02-0.29c5.78-0.23,11.56-0.64,17.33-1.1c3.25-0.26,6.56-0.47,9.71-1.26c5.53-1.38,10.99-3.07,16.38-4.91
		c1.1-0.37,2.32-1.92,2.45-3.05c0.09-0.79-1.41-2.23-2.47-2.6c-2.52-0.88-5.18-1.58-7.83-1.83c-4.57-0.43-9.17-0.57-13.77-0.65
		c-12.3-0.22-24.6-0.35-36.9-0.51c-2.24-0.03-4.48,0.08-6.72-0.03c-2.7-0.13-5.4-0.43-8.75-0.71c0.99-0.73,1.39-1.06,1.83-1.33
		c5.64-3.58,12.19-3.34,18.37-3.72c13.05-0.81,26.15-0.8,39.22-1.04c8.63-0.16,17.27-0.27,25.9-0.22
		c8.09,0.04,15.99-0.82,23.57-3.87c2.45-0.99,4.48-3.1,4.39-5c-0.08-1.63-2.89-4.45-4.84-5.06c-6.7-2.09-13.65-2.09-20.54-2.45
		c-5.74-0.3-11.51-0.06-17.27-0.06c-15.12,0-30.23,0.01-45.35-0.02c-0.91,0-1.82-0.24-2.73-0.36c0.29-0.82,0.56-1.12,0.89-1.25
		c3.58-1.46,6.96-3.16,11.09-3.22c5.68-0.08,11.34-1.06,17.03-1.53c4.99-0.41,9.98-0.67,14.98-0.96c7.15-0.42,14.29-0.83,21.44-1.18
		c4.91-0.24,9.79-0.13,14.71-0.9c5.95-0.94,12.08-0.74,18.13-1.13c4.45-0.29,8.99-0.28,13.31-1.23c4.46-0.98,8.73-2.87,13.01-4.56
		c1.24-0.49,2.22-1.62,3.32-2.46c-0.1-0.33-0.2-0.65-0.3-0.98c-1.09-0.21-2.19-0.59-3.28-0.59c-30.47-0.03-60.95,0-91.42-0.06
		C482.74,683.39,480.13,682.86,477.51,682.58z M571.15,517.07c-0.97,1.67-1.97,2.89-2.44,4.29c-1.27,3.76-2.28,7.61-3.45,11.4
		c-1.85,6.01-3.6,12.07-5.7,17.99c-0.97,2.75-2.46,5.38-4.11,7.8c-1.4,2.04-3.56,2.32-5.74,1.43c-2.88-1.18-3.48-1.99-3.43-4.95
		c0.02-1.35,0.11-2.73,0.4-4.04c0.4-1.88,1.41-3.32,3.72-3.75c0.4,0.73,0.79,1.47,1.22,2.2c0.41,0.7,0.86,1.39,1.3,2.08
		c0.76-0.6,1.92-1.04,2.22-1.81c1.29-3.31,2.76-6.65,3.35-10.11c1.03-6.03,1.43-12.17,2.16-18.25c0.09-0.77,0.64-1.49,1.18-2.7
		c0.84,2.13,1.41,3.59,1.98,5.04c0.98-0.88,1.51-1.61,1.7-2.41c0.69-2.98,1.33-5.97,1.85-8.98c0.72-4.14,1.33-8.3,1.94-12.46
		c0.35-2.36,0.74-4.73,0.84-7.1c0.04-0.87-0.55-1.94-1.2-2.56c-0.26-0.25-1.53,0.36-2.21,0.79c-2.18,1.39-4.26,2.92-6.44,4.31
		c-4.79,3.05-6.23,0.99-8.84-2.27c-1.16-1.45-2.24-3.1-4.36-3.62c-0.46,1.37-1.02,2.53-1.24,3.76c-0.92,5.32-1.83,10.64-2.55,15.98
		c-0.31,2.34-0.22,4.75-0.16,7.13c0.04,1.66,0.51,3.31,0.47,4.96c-0.02,0.75-0.82,1.48-1.27,2.22c-0.6-0.7-1.56-1.31-1.75-2.1
		c-0.59-2.46-0.73-5.03-1.34-7.48c-1.51-6.08-0.55-11.99,0.95-17.87c1.2-4.72,2.04-9.4-0.33-14.27c-2.31,0.58-4.76,0.98-7.06,1.83
		c-1.44,0.53-3.05,1.44-3.86,2.66c-2.56,3.85-4.87,7.87-7.11,11.92c-4.21,7.62-8.3,15.31-12.45,22.97
		c-5.56,10.26-11.12,20.52-16.8,30.99c1.79-0.3,3.21-0.77,4.61-0.72c3.78,0.15,7.55,0.6,11.33,0.8c5.57,0.29,10.47-1.47,14.77-5.01
		c0.6-0.49,1.38-0.74,2.51-1.33c-0.16,4.78-1.22,8.36-5.16,10.14c-1.51,0.68-3.41,0.62-5.13,0.71c-5.64,0.3-11.3,0.3-16.91,0.88
		c-1.74,0.18-3.78,1.48-4.84,2.9c-1.08,1.44-1.46,3.65-1.56,5.55c-0.28,4.98-1.06,10.14-0.11,14.93c1.16,5.87,3.79,11.47,5.93,17.13
		c2.5,6.6,5.14,13.14,7.75,19.7c2.29,5.77,4.39,11.63,7.02,17.24c1.94,4.14,4.8,7.76,8.62,10.52c2.95,2.13,5.74,4.49,8.69,6.62
		c2.34,1.69,4.66,3.53,7.26,4.7c6.81,3.06,16.12,1.11,21.55-4.42c5.09-5.19,7.69-11.79,10.61-18.15c1.96-4.26,3.14-8.92,4.31-13.49
		c1.11-4.35,2.33-8.8,2.49-13.24c0.36-10.38,0.14-20.78,0.07-31.17c-0.01-1.01-0.58-2.02-1.01-3.39c-0.49,0.66-0.65,0.78-0.66,0.9
		c-0.4,4.75-0.74,9.5-1.2,14.24c-0.23,2.36-0.62,4.71-1.02,7.05c-0.58,3.33-1.27,6.65-1.86,9.98c-0.43,2.41-0.62,4.87-1.22,7.24
		c-1.19,4.69-2.58,9.33-3.89,14c-2.17,7.77-5.99,14.71-11.12,20.86c-2.82,3.38-6.42,5.51-11.22,5.2c-3.68-0.24-6.9-1.53-10.06-3.2
		c-5.44-2.88-9.87-6.69-12.09-12.74c0.4-0.06,0.76-0.23,1.01-0.13c2.79,1.11,5.67,2.07,8.33,3.45c6.9,3.57,13.55,4.09,19.6-1.49
		c3.87-3.56,7.45-7.45,11.08-11.27c1.29-1.36,2.34-2.94,3.5-4.42c-0.2-0.23-0.4-0.46-0.6-0.7c-0.91,0.46-1.88,0.83-2.72,1.4
		c-3.14,2.1-6.08,4.6-9.42,6.29c-2.66,1.35-5.79,2.35-8.73,2.4c-2.91,0.05-5.97-1.14-8.19-3.32c-3.66-3.61-7.33-7.24-10.67-11.14
		c-3.71-4.35-7.14-8.96-10.53-13.57c-4.1-5.58-8.1-11.24-11.99-16.97c-1.04-1.53-2.95-3.01-1.69-5.7c1.1,0.8,2.16,1.37,2.96,2.19
		c5.9,6.02,11.74,12.1,17.61,18.15c4.7,4.83,9.28,9.8,14.19,14.41c2.86,2.69,6.66,4.36,10.55,2.89c6.88-2.6,12.13-7.58,15.18-14.15
		c2.59-5.59,4.07-11.7,5.89-17.63c1.72-5.62,3.36-11.26,4.78-16.96c0.53-2.12,2.13-4.19,0.88-6.99c-0.6,0.9-1.14,1.51-1.46,2.22
		c-2.2,4.95-4.31,9.93-6.52,14.87c-2.79,6.22-5.68,12.4-8.46,18.62c-3.64,8.14-14.62,9.78-19.72,2.91c-1.4-1.89-2.87-3.74-4.14-5.72
		c-4.69-7.28-9.33-14.6-13.94-21.93c-0.26-0.42-0.13-1.08-0.23-2.25c1.36,0.91,2.25,1.39,3.01,2.02
		c5.81,4.88,11.59,9.79,17.37,14.69c4.73,4.01,9.42,3.87,13.51-0.63c2.16-2.38,4.28-4.85,6.02-7.54c5.35-8.26,8.94-17.14,8.95-27.19
		c0-1.67,0.07-3.37,0.37-5.01c0.82-4.36,1.76-8.7,2.72-13.04c0.87-3.95,1.89-7.87,2.71-11.83
		C572.69,521.45,573.21,519.39,571.15,517.07z M730.32,536.17c-0.73-0.56-1.45-1.59-2.31-1.72c-5.09-0.79-10.22-1.93-15.33-1.93
		c-14.27,0.01-28.54,0.52-42.81,0.85c-12.04,0.29-24.07,0.59-36.11,0.93c-6.98,0.19-13.99-0.38-20.95,0.98
		c-3.39,0.66-6.92,0.6-10.36,1.02c-4.68,0.56-9.34,1.26-14,1.92c-3.14,0.45-6.35,3.48-6.68,6.63c-0.65,6.24-1.38,12.49-1.59,18.75
		c-0.35,10.46-0.45,20.93-0.42,31.4c0.03,11.25-0.36,22.42-3.06,33.43c-1.62,6.63-3.92,12.98-7.44,18.78
		c-2.17,3.57-1.45,7.17-1.33,10.83c0.01,0.46,0.76,1.28,1.14,1.27c0.56-0.02,1.32-0.52,1.59-1.04c0.72-1.39,1.38-2.84,1.8-4.35
		c2.44-8.66,5.11-17.28,7.09-26.05c1.41-6.23,2.13-12.66,2.66-19.04c0.62-7.38,0.7-14.81,1.04-22.22
		c0.44-9.88,1.17-19.76,1.25-29.64c0.04-5.32,1.72-9.74,4.8-13.82c0.41-0.54,1.31-0.69,2.45-1.25c-0.48,2.43-0.54,4.17-1.19,5.66
		c-1.53,3.49-2.13,7.09-2.12,10.87c0.03,27.44,0.11,54.88-0.09,82.31c-0.03,3.77-1.28,7.62-2.46,11.26
		c-1.63,5.02-3.75,9.89-5.66,14.83c0.08,0.21,0.17,0.42,0.25,0.63c1.56-0.48,3.76-0.47,4.58-1.53c3.22-4.17,6-8.51,5.79-14.33
		c-0.4-11.42-0.38-22.87-0.37-34.3c0-19.84,0.09-39.67,0.23-59.51c0.02-3.57,0.4-7.14,0.72-10.7c0.17-1.95,2.09-3.69,4.06-4.02
		c3.81-0.64,7.6-1.32,11.41-1.98c2.16-0.37,4.33-0.72,6.49-1.11c2.74-0.5,5.47-1.05,8.21-1.54c0.23-0.04,0.49,0.16,0.74,0.25
		c0.01,0.27,0.03,0.54,0.04,0.81c-5.34,0.94-10.64,2.11-16.02,2.75c-6.87,0.83-11.73,4.07-11.65,11.19
		c0.17,14.28,0.59,28.56,0.9,42.84c0.24,10.9-0.3,21.8,0.95,32.69c0.79,6.93,0.73,13.96,1.03,20.95c0.32,7.46,0.63,14.93,0.91,22.4
		c0.07,1.92,0.01,3.85,0.01,5.77c0.32,0.02,0.65,0.03,0.97,0.05c0.14-0.96,0.4-1.92,0.4-2.88c0.03-18.48,0.02-36.96,0.01-55.44
		c0-0.71,0.1-1.75-0.3-2.07c-1.5-1.18-1.09-2.73-1.09-4.18c-0.02-18.16,0-36.32,0-54.48c0-6.81,4.09-11.79,10.93-13.01
		c2.51-0.45,4.99-1.12,7.5-1.51c5.47-0.84,10.95-2.18,16.43-2.23c25.84-0.24,51.67-0.13,77.51-0.1c4.77,0,9.53-0.11,13.97-2.08
		C726.79,539.29,729.49,539.4,730.32,536.17z M570.68,554.79c2.17,0.82,2.22-0.74,2.33-1.79c0.6-5.38,1.84-10.54,4.44-15.34
		c2.08-3.85,5.26-6.15,9.59-6.43c7.13-0.47,14.28-0.71,21.42-0.96c2.12-0.08,3.81-0.72,5.11-2.84c-3.31-5.86-6.4-11.98-10.11-17.7
		c-3.39-5.23-7.25-10.2-11.27-14.97c-2.53-3.01-5.63-5.59-8.71-8.06c-0.99-0.8-2.93-1.16-4.13-0.78c-1.54,0.5-2.12,2.25-1.97,4
		c0.04,0.48,0.07,0.95,0.13,1.43c0.43,3.54,0.68,7.11,1.36,10.59c0.66,3.39,1.1,7.1,4.18,9.35c3.05,2.23,6.31,4.08,10.34,4.13
		c2.04,0.02,4.08,0.62,6.12,0.96c0.05,0.23,0.1,0.46,0.16,0.69c-0.67,0.41-1.29,0.99-2.02,1.19c-2.9,0.8-5.87,1.33-8.74,2.22
		c-4.65,1.45-8.67,3.99-11.76,7.82c-3.03,3.76-4.66,8.06-5.68,12.82C570.47,545.73,570.89,550.26,570.68,554.79z M381.4,475.61
		c-2.91-0.06-4.88,1.46-6.51,3.59c-4.77,6.24-9.58,12.46-14.28,18.77c-3.37,4.52-6.78,9.03-9.81,13.78
		c-2.87,4.5-5.33,9.26-7.84,13.98c-1.65,3.08-0.7,6.17,2.09,8.04c-0.17-1.64-0.58-3.4-0.47-5.14c0.22-3.51,2.8-6.64,6.88-5.22
		c4.81,1.67,9.65,3.28,14.33,5.26c1.46,0.62,2.1,0.25,2.74-0.67c1.68-2.41,2.7-5.06,3.09-8.03c0.55-4.14,1.35-8.25,2.11-12.36
		c0.95-5.14,1.81-10.3,3.01-15.39C378.04,486.68,377.25,480.52,381.4,475.61z M428.59,779.32c-3.22-0.32-6.25-0.91-9.27-0.86
		c-6.64,0.11-13.28,0.49-19.92,0.87c-2.82,0.16-5.64,0.49-8.41,0.97c-0.75,0.13-1.34,1.13-2.01,1.72c0.66,0.41,1.31,1.15,1.99,1.19
		c5.79,0.34,11.58,0.57,17.37,0.8c1.52,0.06,3.04-0.02,4.55,0.03c0.56,0.02,1.11,0.22,1.66,0.34c-11.15,7.04-23.57,7.11-36.05,7.28
		c5.14,2.31,10.17,4.6,15.45,5.8c3.87,0.88,8.14,0.85,12.09,0.28c4.15-0.6,7.56-3.4,10.58-6.25
		C420.66,787.72,424.4,783.62,428.59,779.32z M437.71,467.41c-0.88,6.79,3.56,12.86,10.13,11.85c2.12-0.32,4.05-0.93,4.78-3.08
		c0.82-2.42,1.66-4.94,1.81-7.45c0.14-2.37-0.22-4.94-1.06-7.16c-0.86-2.28-2.24-4.56-3.96-6.29c-3.55-3.57-6.15-1.84-8.36,1.17
		C438.67,459.71,437.08,463.46,437.71,467.41z M406.76,394.4c3.49-1.33,6.95-2.87,10.55-3.94c1.92-0.57,4.24-2.7,6.09,0.36
		c0.09,0.14,0.61,0.07,0.91,0.03c3.61-0.51,7.22-1.01,10.81-1.6c0.57-0.09,1.07-0.65,1.59-0.99c-0.55-0.31-1.08-0.86-1.64-0.89
		c-3.43-0.17-6.87-0.26-10.3-0.3c-4.08-0.05-8.16,0.07-12.23-0.05c-3.96-0.11-7.91-0.53-11.87-0.62c-2.76-0.06-3.73,1.67-2.36,4.11
		c0.96,1.71,2.19,3.27,3.28,4.91c3.77,5.68,7.51,11.38,11.31,17.03c2.91,4.33,5.08,5.69,9.6,4.77c1.3-0.27,2.66-0.99,2.19-2.53
		c-0.45-1.44-1.66-1.12-2.96-0.62c-1.9,0.73-3.84,0.41-5.13-1.37c-2.86-3.95-5.59-7.98-8.46-11.91
		C406.78,398.94,406.21,397,406.76,394.4z M446.37,538.69c-0.28,0.07-0.56,0.13-0.84,0.2c0.05,0.88-0.11,1.82,0.17,2.62
		c1.24,3.51,2.6,6.97,3.94,10.44c2.12,5.48,4.07,11.05,6.46,16.41c2.89,6.47,4.95,13.18,5.47,20.17c0.52,6.91,0.16,13.89,0.19,20.83
		c0.01,2.77,0,5.53,0,8.3c0.23,0,0.46,0,0.68,0c0.48-5.27,0.99-10.54,1.42-15.81c0.29-3.55,0.64-7.11,0.63-10.66
		c-0.01-3.24-0.46-6.47-0.73-9.71c-0.08-0.95,0.03-1.98-0.28-2.85c-2.26-6.16-4.39-12.38-6.99-18.39
		C453.35,552.96,449.77,545.87,446.37,538.69z M462.99,389.42c0-0.04,0-0.09-0.01-0.13c-2.38,0.14-4.8,0.06-7.14,0.48
		c-2.28,0.41-2.98,2.28-1.96,4.36c0.59,1.19,1.22,2.36,1.84,3.53c2.84,5.41,8.68,6.92,13.46,3.49c2.42-1.74,2.89-3.59,1.73-6.37
		c-0.25-0.6-0.26-1.35-0.21-2.02c0.05-0.79,0.66-1.94,0.34-2.28c-0.58-0.61-1.65-0.94-2.55-1.01
		C466.67,389.32,464.83,389.42,462.99,389.42z M516.09,649.29c-1.34,0.75-2.45,1.33-3.53,1.98c-3.58,2.16-7.18,4.29-10.69,6.56
		c-1.67,1.09-1.55,2.76,0.27,3.64c0.9,0.44,2.12,0.52,3.13,0.36c4.82-0.79,9.6-1.77,14.41-2.59c1.43-0.24,2.58-0.58,3.07-2.14
		c0.49-1.57-0.25-2.62-1.35-3.52C519.66,652.14,517.87,650.73,516.09,649.29z M433.75,577.16c-0.37-0.08-0.75-0.17-1.12-0.25
		c-0.63,2-1.36,3.97-1.88,5.99c-1.12,4.35-2.08,8.74-3.2,13.1c-1.2,4.69-2.52,9.35-3.75,14.04c-1.61,6.14-3.33,12.26-4.71,18.45
		c-0.7,3.16-3,6.51,0.47,9.95C424.32,617.88,429.03,597.52,433.75,577.16z M440.15,656.44c0,0.19,0,0.39-0.01,0.58
		c4.29,1.27,8.61,1.72,12.79-0.47c4.55-2.38,9.13-3.38,14.17-1.55c1.97,0.71,4.15,0.9,6.26,1.14c5.08,0.57,9.93-0.69,14.73-2.12
		c0.56-0.17,0.97-0.86,1.45-1.3c-0.71-0.51-1.46-1.49-2.13-1.44c-3.32,0.26-6.63,0.67-9.91,1.26c-5.67,1.01-11.29,1.49-16.98,0.06
		c-1.57-0.4-3.39-0.39-4.97-0.03C450.39,653.73,445.28,655.13,440.15,656.44z M487.62,563.09c-0.2-0.06-0.4-0.12-0.6-0.18
		c-2.19,4.48-4.48,8.91-6.52,13.45c-0.62,1.38-0.83,3.1-0.69,4.61c0.09,0.97,1,2.17,1.88,2.64c0.57,0.3,1.98-0.29,2.61-0.9
		c2.09-2.03,3.6-4.34,3.38-7.53c-0.2-2.94-0.05-5.91-0.05-8.86C487.62,565.24,487.62,564.17,487.62,563.09z M458.32,529.46
		c-4.21-7.27-8.82-14.34-12.53-21.86c-3.68-7.46-6.46-15.37-9.63-23.09c-0.32,0.12-0.64,0.25-0.96,0.37
		c0.52,1.52,0.99,3.05,1.57,4.54c1.82,4.68,3.67,9.34,5.52,14c2.13,5.38,4.38,10.71,6.36,16.14
		C450.38,524.33,453.6,527.54,458.32,529.46z M464.72,485.7c-0.25,0.07-0.51,0.15-0.76,0.22c-1.81,11.96-3.62,23.91-5.43,35.87
		c2.45-1.49,2.7-3.71,3.1-5.9c0.88-4.9,1.96-9.78,2.66-14.7c0.62-4.29,0.89-8.64,1.18-12.97
		C465.54,487.4,464.99,486.54,464.72,485.7z M449.44,512.96c0.37,0.19,0.74,0.38,1.11,0.57c0.63-0.86,1.53-1.63,1.84-2.59
		c0.84-2.52,1.46-5.12,2.1-7.7c1.61-6.57,3.21-13.14,4.75-19.73c0.22-0.94,0.12-1.96,0.17-2.95c-0.2-0.02-0.41-0.05-0.61-0.07
		C455.52,491.27,452.13,502.01,449.44,512.96z M567.57,459.27c0.36,0.43,0.9,1.4,1.17,1.33c0.71-0.18,1.65-0.69,1.87-1.29
		c1.37-3.76,2.61-7.56,3.81-11.38c0.43-1.36-0.64-2.96-1.57-2.48c-0.87,0.45-1.68,1.44-2.03,2.38c-0.81,2.13-1.33,4.37-1.95,6.57
		C568.44,455.92,568.05,457.46,567.57,459.27z M481.37,645.16c1.8-2.36,1.53-14.35-0.25-16.01
		C478.72,630.81,478.82,642.69,481.37,645.16z M581.5,449.64c-0.16-0.2-0.32-0.39-0.49-0.59c-0.65,0.43-1.54,0.72-1.89,1.33
		c-1.72,2.99-3.36,6.04-4.86,9.14c-0.26,0.53,0.25,1.43,0.41,2.15c0.64-0.37,1.61-0.58,1.88-1.13
		C578.28,456.95,579.87,453.28,581.5,449.64z M563.24,446.08c-2.68,3.42-2.67,8.55-0.12,12.29
		C564.91,453.34,564.94,451.97,563.24,446.08z M476.54,376.21c-0.11,0.12-0.22,0.25-0.34,0.37c0.13,2,0.38,4,0.34,5.99
		c-0.03,1.38-0.53,2.75-0.64,4.13c-0.04,0.5,0.44,1.03,0.68,1.55c0.34-0.34,0.73-0.65,1.01-1.04c1.74-2.41,0.94-5.18,0.83-7.77
		C478.37,378.34,477.2,377.29,476.54,376.21z M496.45,623.45c-0.37-0.02-0.74-0.04-1.11-0.06c-0.26,5.3-0.54,10.61,1.11,15.88
		C496.45,634.01,496.45,628.73,496.45,623.45z M461.48,646.02c-0.33-5.71-0.66-11.43-1-17.37
		C459.2,630.97,459.62,644.54,461.48,646.02z M447.05,446.16c1.03-0.99,2.51-1.77,1.26-3.45c-0.2-0.27-1.36-0.23-1.69,0.08
		C445.38,443.96,445.63,445.13,447.05,446.16z M494.92,621.82c0.13-0.03,0.26-0.05,0.39-0.08c0-4.62,0-9.24,0-13.85
		c-0.13,0-0.26,0-0.39,0C494.92,612.53,494.92,617.17,494.92,621.82z M440.42,445c0.44,0.05,0.88,0.1,1.32,0.15
		c0.2-0.81,0.41-1.63,0.61-2.44c-0.64-0.06-1.28-0.12-1.92-0.19C440.42,443.35,440.42,444.18,440.42,445z M455.43,445.27
		c0.13-0.19,0.26-0.38,0.38-0.57c-0.39-0.4-0.82-1.17-1.14-1.12c-0.52,0.08-0.97,0.68-1.44,1.07c0.08,0.16,0.15,0.33,0.23,0.49
		C454.11,445.18,454.77,445.23,455.43,445.27z M432.74,445.01c1.05,0,1.66,0,2.62,0c-0.6-0.71-0.95-1.13-1.37-1.63
		C433.59,443.89,433.32,444.25,432.74,445.01z M435.06,655.31c-0.08,0.3-0.17,0.59-0.25,0.89c0.56,0.22,1.13,0.44,1.69,0.66
		c0.13-0.42,0.25-0.83,0.38-1.25C436.27,655.51,435.66,655.41,435.06,655.31z M473.16,374.52c-0.01,0.13-0.01,0.25-0.02,0.38
		c0.37,0.02,0.73,0.04,1.1,0.06c0.01-0.13,0.01-0.26,0.02-0.38C473.89,374.56,473.52,374.54,473.16,374.52z M468.58,372.91
		c0.11-0.07,0.22-0.13,0.34-0.2c-0.05-0.06-0.11-0.16-0.13-0.16c-0.12,0.05-0.23,0.12-0.34,0.19
		C468.49,372.79,468.53,372.85,468.58,372.91z"/>
	<path d="M462.03,395.42c0.73-0.36,1.44-0.95,2.18-1c0.51-0.03,1.06,0.69,1.6,1.08c-0.12,0.2-0.24,0.4-0.36,0.6
		c-1.05,0-2.1,0-3.15,0C462.21,395.87,462.12,395.65,462.03,395.42z"/>
</g>
</svg>
