<?xml version="1.0" encoding="utf-8"?>
<!-- Generator: Adobe Illustrator 24.3.0, SVG Export Plug-In . SVG Version: 6.00 Build 0)  -->
<svg version="1.1" id="Calque_1" xmlns="http://www.w3.org/2000/svg" xmlns:xlink="http://www.w3.org/1999/xlink" x="0px" y="0px"
	 viewBox="0 0 1000 1000" style="enable-background:new 0 0 1000 1000;" xml:space="preserve">
<style type="text/css">
	.st0{fill:none;stroke:#000000;stroke-width:13;stroke-miterlimit:10;}
</style>
<path class="st0" d="M108.24,502.16c0-8.64,0-17.27,0-25.91c0.29-2.18,0.75-4.35,0.85-6.54c0.73-15.59,2.51-31.06,5.03-46.44
	c4-24.4,9.93-48.34,17.69-71.82c14.15-42.83,33.87-82.92,59.04-120.35c2.04-3.04,4.46-5.08,7.94-6.04
	c4.16-1.14,8.26-2.48,12.42-3.58c18.21-4.83,36.36-9.85,54.29-15.69c39.72-12.93,78.06-29.12,115.24-48.13
	c25.41-13,50.13-27.21,74.22-42.5c2.13-1.35,4.35-2.33,6.84-2.75c1.63-0.27,3.25-0.57,4.88-0.85c3.52,0,7.04,0,10.56,0
	c2.04,0.2,4.08,0.39,6.12,0.61c12.01,1.26,23.88,3.35,35.69,5.85c21.41,4.53,42.57,10.07,63.59,16.15
	c37.35,10.81,74.33,22.76,110.57,36.87c7.14,2.78,14.11,5.98,21.18,8.94c5.91,2.47,10.79,6.49,15.79,10.33
	c9.51,7.32,18.79,14.9,27.28,23.41c11.93,11.96,21.85,25.45,30.23,40.09c10.52,18.37,18.71,37.78,25.83,57.66
	c1.34,3.74,1.94,7.74,3.04,11.57c1.93,6.7,4.37,13.18,8.02,19.17c4.51,7.38,10.66,12.66,19.06,15.13c2.14,0.63,4.3,1.23,6.45,1.83
	c3.54,0.99,7.04,2.05,10.13,4.18c3.47,2.39,4.96,5.53,4.09,9.69c-0.65,3.12-1.26,6.27-2.07,9.35c-2.48,9.42-5.24,18.77-7.52,28.23
	c-2.01,8.34-2.98,16.84-1.77,25.44c1.46,10.34,6.47,18.3,15.93,23.05c2.97,1.49,6.24,2.4,9.37,3.58c0.74,0.28,1.54,0.48,2.19,0.9
	c3.14,2.05,5.25,4.86,6.14,8.54c0.82,3.42,0.63,6.84-0.27,10.2c-2.75,10.26-8.51,18.67-16.06,25.96c-1.9,1.83-3.88,3.58-5.67,5.51
	c-6.61,7.1-12.6,14.68-17.29,23.21c-2.09,3.79-3.79,7.74-4.67,12.01c-1.61,7.82,1.51,13.55,8.96,16.3c1.27,0.47,2.59,0.82,3.91,1.12
	c4.63,1.06,9.34,1.11,14.07,1.03c1.82-0.03,3.71-0.1,5.46,0.3c7.27,1.67,12.62,6,16.24,12.44c3.35,5.96,4.83,12.47,5.37,19.23
	c0.13,1.64,0.32,3.28,0.49,4.92c0,3.04,0,6.08,0,9.12c-0.13,0.68-0.36,1.36-0.36,2.04c-0.03,6.01-0.8,11.96-1.73,17.88
	c-2.31,14.7-5.88,29.11-10.08,43.37c-7.3,24.77-16.27,48.95-26.24,72.76c-1.91,4.56-3.72,9.21-6.07,13.55
	c-7.53,13.91-15.36,27.66-22.94,41.55c-11.14,20.41-21.93,41-32.03,61.95c-2.22,4.6-4.56,9.15-6.89,13.7
	c-1.43,2.78-3.58,4.87-6.45,6.2c-1.3,0.6-2.55,1.3-3.82,1.96c-1.92,0-3.84,0-5.76,0c-0.44-0.16-0.86-0.39-1.31-0.47
	c-3.3-0.58-6.63-1.03-9.91-1.72c-13.21-2.76-26.4-5.58-39.6-8.39c-20.31-4.32-40.67-8.38-61.18-11.65
	c-14.43-2.3-28.88-4.54-43.37-6.45c-13.3-1.76-26.65-3.18-40.01-4.49c-12.72-1.25-25.46-2.38-38.22-3.17
	c-15.63-0.97-31.27-1.69-46.92-2.24c-12.62-0.44-25.25-0.55-37.87-0.66c-7.11-0.06-14.22,0.16-21.33,0.3
	c-9.35,0.18-18.7,0.26-28.04,0.67c-7.06,0.31-14.03-0.01-20.98-1.33c-12.1-2.3-23.95-5.54-35.71-9.15
	c-33.16-10.19-65.48-22.62-97.09-36.88c-17.19-7.75-34.08-16.09-50.26-25.81c-8.92-5.36-17.59-11.07-25.28-18.14
	c-3.01-2.77-5.76-5.76-7.85-9.32c-1.81-3.08-2.55-6.35-1.79-9.9c0.34-1.56,0.54-3.16,1.02-4.68c1.99-6.24,4.05-12.45,6.12-18.66
	c2.38-7.12,4.88-14.21,5.77-21.73c0.46-3.89,0.16-7.61-1.64-11.19c-0.89-1.77-1.49-3.71-2.03-5.62c-1.74-6.18-2.4-12.54-2.82-18.93
	c-0.48-7.34-0.5-14.68-0.1-22.03c0.55-10.15,1.63-20.22,4.14-30.1c0.25-1,0.42-2.04,0.49-3.07c0.17-2.8-0.95-5-3.34-6.46
	c-1.01-0.62-2.11-1.24-3.25-1.48c-3.43-0.73-6.87-1.43-10.35-1.85c-5.23-0.63-10.51-0.92-15.74-1.5
	c-7.55-0.84-13.62-4.31-18.02-10.58c-0.69-0.98-1.39-1.95-2.03-2.96c-3.99-6.25-6.71-13.06-8.89-20.1
	c-5.03-16.29-7.24-33.05-8.28-50C108.97,506.51,108.53,504.34,108.24,502.16z M714.94,537.3c13.04,0.28,26.04-5.36,35.54-14.37
	c5.93-5.62,10.63-12.13,14.49-19.27c0.97-1.8,1.76-3.79,2.16-5.78c1.64-8.06,3.34-16.11,4.55-24.24c1.21-8.15,1.65-16.38,0.66-24.62
	c-0.53-4.46-1.44-8.83-3.27-12.96c-2.69-6.08-6.93-10.49-13.45-12.41c-1.37-0.4-2.81-0.61-4.22-0.89c-2.5-0.49-2.86-0.78-2.52-3.32
	c0.34-2.52,0.82-5.07,1.6-7.48c3.16-9.72,6.54-19.36,9.7-29.08c2.79-8.58,5.44-17.2,8.05-25.83c1.15-3.82,1.2-7.75,0.13-11.6
	c-0.71-2.53-1.51-5.06-2.52-7.48c-3.33-7.93-8.14-15.02-12.94-22.09c-5.3-7.8-10.84-15.44-14.93-23.99
	c-1.11-2.32-2.7-4.35-4.76-5.95c-5.13-4-12.37-2.75-15.91,2.71c-1.02,1.57-1.21,3.01-0.01,4.62c2.48,3.34,4.96,6.68,7.26,10.14
	c2.2,3.32,4.31,6.73,6.19,10.24c2.3,4.29,2.83,8.93,2,13.74c-1.35,7.79-2.59,15.6-4.01,23.38c-3.19,17.45-6.66,34.84-11.14,52.01
	c-1.23,4.7-2.84,9.31-4.38,13.93c-0.38,1.15-0.79,2.72-2.31,2.75c-1.43,0.03-2.09-1.39-2.69-2.48c-1.11-2.03-2.18-4.1-3.08-6.23
	c-2.74-6.48-5.26-13.04-8.11-19.46c-1.65-3.71-3.69-7.25-5.75-10.76c-0.7-1.19-1.87-2.19-3.01-3.01c-1.4-1-2.43-0.78-3.59,0.52
	c-0.74,0.83-1.4,1.75-2.01,2.68c-5.47,8.29-9.97,17.12-14.24,26.06c-6.65,13.93-12.55,28.16-16.71,43.07
	c-2.22,7.95-3.99,15.98-3.87,24.29c0.03,2.14,0.37,4.29,0.63,6.42c0.37,3.02-1.12,4.73-4.11,4.28c-1.53-0.23-3.16-0.78-4.42-1.66
	c-1.88-1.31-3.64-2.88-5.14-4.62c-3.23-3.74-5.2-8.21-6.68-12.9c-3.28-10.39-3.62-21.07-2.94-31.81c0.67-10.71,2.6-21.25,5.26-31.64
	c1.12-4.4,1.41-8.82,1.11-13.31c-0.37-5.66-0.87-11.31-1.13-16.98c-0.28-5.94,0.57-11.77,1.78-17.59
	c2.02-9.73,4.67-19.25,8.59-28.39c0.78-1.82,1.88-3.51,2.9-5.22c0.61-1.01,1.54-1.57,2.78-1.6c2.31-0.05,4.35-0.98,6.28-2.14
	c4.46-2.68,8.12-6.21,10.9-10.61c0.8-1.27,1.44-2.69,1.88-4.12c1.1-3.5-0.37-6.06-3.97-6.77c-1.78-0.35-3.65-0.43-5.47-0.36
	c-4.65,0.17-9.18,1.19-13.65,2.43c-3.92,1.09-7.81,2.35-11.78,3.17c-1.81,0.37-2.89,1.18-3.58,2.7c-0.6,1.3-1.22,2.62-1.6,4
	c-1.4,4.99-2.86,9.98-4.03,15.03c-3.27,14.19-5.53,28.53-6.1,43.11c-0.31,7.82-1.01,15.63-1.54,23.44c-0.74,11-1.48,22-2.21,33
	c-0.67,10.04-1.33,20.09-2.01,30.14c-0.12,1.72-0.22,1.72-2.01,2.03c-2.2,0.38-4.41,0.75-6.57,1.32
	c-10.54,2.81-20.12,7.67-29.08,13.79c-15,10.24-27.07,23.09-34.91,39.65c-1.38,2.91-3.27,5.48-5.68,7.65
	c-5.38,4.84-11.88,6.71-18.9,7.12c-7.59,0.45-14.96-0.96-22.22-3.02c-11.9-3.37-23.01-8.61-33.87-14.42
	c-1.48-0.79-2.94-1.65-4.49-2.26c-3.37-1.34-5.93,0.02-6.66,3.54c-0.66,3.21-0.35,6.4,1.11,9.35c0.54,1.09,1.47,2.09,2.44,2.86
	c1.55,1.25,3.25,2.32,4.93,3.4c13.54,8.76,27.74,16.15,43.33,20.59c9.14,2.6,18.42,4.01,27.94,2.61c9.2-1.35,16.98-5.37,23.15-12.4
	c4.77-5.44,7.88-11.8,10.16-18.6c1.06-3.18,1.86-6.46,3.05-9.58c4.29-11.18,11.93-18.86,23.79-21.62c10.94-2.54,21.6-1.04,31.9,3.21
	c0.93,0.38,1.81,1.04,2.53,1.76c5.85,5.82,12.16,11.11,18.71,16.1c13.53,10.3,27.84,19.3,43.75,25.52
	C692.11,534.64,702.5,537.33,714.94,537.3z M636.58,738.15c-0.13,0.26-0.41,0.73-0.6,1.24c-1.92,5.11-3.18,10.4-3.64,15.83
	c-0.2,2.44,0.06,4.93,0.33,7.38c0.2,1.77,1.34,2.97,3.01,3.73c15.75,7.21,31.43,14.57,47.68,20.64c13.34,4.98,26.84,9.4,41.07,11
	c5.98,0.67,11.96,0.76,17.86-0.71c7.35-1.82,12.84-5.89,15.7-13.11c1.49-3.77,2.04-7.7,2.13-11.72c0.17-7.91-1.3-15.58-3.34-23.17
	c-0.95-3.55-2.35-7-3.04-10.59c-2.04-10.62-3.03-21.36-2.48-32.19c0.33-6.57,1.31-13.04,3.76-19.2c1.1-2.76,2.43-5.4,4.55-7.54
	c2.45-2.46,4.05-2.66,6.59-0.31c2.51,2.33,4.94,4.8,7.08,7.47c6.15,7.67,12.13,15.48,18.2,23.22c5.03,6.42,9.94,12.93,15.83,18.62
	c3.64,3.51,5.05,3.81,9.1,0.75c3.3-2.49,6.48-5.26,9.21-8.34c16.26-18.33,27.34-39.44,33.13-63.26c3.43-14.08,4.09-28.28,0.97-42.53
	c-2.9-13.24-8.99-24.87-17.78-35.13c-0.74-0.86-1.52-1.31-2.68-1.2c-6.98,0.68-13.24,3.04-18.28,8.03
	c-7.81,7.72-11.75,17.15-12.06,28.11c-0.02,0.75-0.12,1.49-0.18,2.23c-0.18,0.07-0.36,0.15-0.54,0.22c-0.6-0.55-1.33-1.02-1.77-1.68
	c-1.17-1.72-2.26-3.49-3.29-5.29c-1.3-2.29-2.31-4.77-3.79-6.93c-6.26-9.19-12.91-18.09-20.58-26.17c-1.85-1.95-3.98-3.72-6.21-5.23
	c-2.43-1.65-3.89-0.81-4.16,2.07c-0.05,0.55-0.08,1.13,0.01,1.67c0.45,2.67,0.78,5.38,1.45,8c2.97,11.64,7.32,22.82,11.84,33.91
	c4.94,12.13,10.19,24.13,15.25,36.21c0.44,1.06,0.77,2.29,0.71,3.42c-0.15,2.63-0.48,5.25-0.92,7.85c-0.34,2.04-0.75,4.11-1.49,6.03
	c-1.02,2.66-2.8,2.88-4.91,0.98c-6.53-5.89-12.96-11.9-19.7-17.53c-5.02-4.19-10.4-7.96-15.77-11.71c-1.86-1.3-4.07-2.21-6.25-2.94
	c-2.66-0.89-3.92,0.26-3.81,3.09c0.03,0.64,0.13,1.28,0.12,1.91c-0.06,1.97-0.88,2.41-2.58,1.35c-0.81-0.5-1.55-1.13-2.25-1.78
	c-2.52-2.34-4.94-4.79-7.52-7.05c-1.37-1.2-2.91-2.26-4.54-3.07c-1.9-0.95-3.27-0.29-3.88,1.76c-0.4,1.36-0.61,2.82-0.62,4.24
	c-0.05,5.62,0.9,11.14,2.04,16.62c2.15,10.33,4.27,20.65,4.86,31.22c0.56,9.96,0.07,19.82-2.73,29.45
	c-2.74,9.44-7.51,17.61-15.33,23.77c-8.22,6.48-17.77,9.27-28.03,9.82c-12.02,0.64-23.55-1.66-34.52-6.54
	C645.31,743.04,641.04,740.49,636.58,738.15z M590.13,604.85c-0.18,3.03-0.42,6.06-0.53,9.09c-0.35,9.4-3.14,18.03-7.96,26.07
	c-7.26,12.11-16.41,22.61-26.85,32.04c-6.72,6.07-13.83,11.62-22.01,15.65c-2.81,1.39-5.73,2.43-8.85,2.86
	c-4.28,0.6-7.11-1.11-8.54-5.18c-0.29-0.83-0.59-1.67-0.74-2.53c-0.66-3.77-1.22-7.56-1.92-11.33c-0.47-2.5-0.89-5.05-1.75-7.44
	c-1-2.78-2.97-3.61-5.76-2.69c-5.94,1.97-10.13,5.6-11.24,12.12c-0.75,4.39-0.72,8.76,0.1,13.11c1.86,9.84,6.25,18.4,13.31,25.54
	c1.41,1.43,1.46,1.44,3.29,0.53c1.93-0.96,3.84-1.97,5.71-3.04c14.65-8.38,28.71-17.68,42.38-27.56
	c14.59-10.55,28.71-21.68,41.31-34.61c5.7-5.85,10.88-12.11,15.09-19.17c2.59-4.35,3.15-8.66,1.87-13.52
	c-2.29-8.7-5.58-16.99-9.51-25.05c-3.55-7.27-7.45-14.34-12.79-20.48c-1.77-2.03-3.85-3.83-5.99-5.48
	c-1.89-1.46-4.09-1.78-6.57-1.28c-4.93,1-9.91,1.75-14.89,2.44c-10.84,1.5-21.7,2.84-32.54,4.38c-5.37,0.77-10.68,1.95-15.8,3.83
	c-2.74,1-5.18,2.39-7.05,4.75c-4.38,5.5-3.41,10.05,2.91,13.1c3.28,1.58,6.78,2.34,10.36,2.8c8.57,1.11,17.08,0.6,25.52-1.08
	c9.09-1.81,17.69-4.88,25.24-10.47c0.82-0.61,1.76-1.11,2.71-1.5c3.29-1.36,6.05-0.53,7.78,2.56c0.93,1.65,1.63,3.48,2.09,5.32
	C589.86,593.96,590.09,599.39,590.13,604.85z M714.68,692.27c-0.22-2.75-0.32-4.91-0.59-7.04c-1.57-12.76-5.1-25-9.88-36.9
	c-1.97-4.89-4.14-9.7-7.22-14.02c-0.82-1.15-1.83-2.23-2.94-3.11c-0.5-0.39-1.72-0.58-2.14-0.25c-3.1,2.44-6,4.99-6.02,9.52
	c-0.02,6.46-0.34,12.93-0.45,19.39c-0.08,4.32-0.51,8.48-2.18,12.61c-3.05,7.54-5.54,15.31-7.1,23.33
	c-0.72,3.69-1.14,7.41-0.76,11.18c0.57,5.77,3.85,9.01,9.64,9.24c2.06,0.08,4.15-0.06,6.19-0.38c5.71-0.88,11.1-2.89,16.51-4.84
	c1.79-0.65,3.05-1.72,3.9-3.3c0.68-1.26,1.28-2.58,1.7-3.94C714.55,699.82,714.68,695.76,714.68,692.27z M832.02,413.4
	c-0.14-2.05-0.3-5.8-0.66-9.53c-0.28-2.86-0.81-5.71-2.29-8.25c-1.44-2.47-3.35-2.95-5.52-1.1c-1.42,1.21-2.81,2.71-3.61,4.37
	c-2.21,4.6-4.29,9.28-6.08,14.05c-3.92,10.5-6.96,21.23-7.73,32.49c-0.3,4.43,0.03,8.78,1.38,13.02c1.02,3.2,2.81,5.91,5.62,7.84
	c2.19,1.5,4.4,1.47,6.37-0.27c1.06-0.94,2.12-2.04,2.74-3.28c1.55-3.13,3.17-6.3,4.2-9.62C830.3,440.75,831.77,428.01,832.02,413.4z
	"/>
</svg>
