<?xml version="1.0" encoding="utf-8"?>
<!-- Generator: Adobe Illustrator 24.3.0, SVG Export Plug-In . SVG Version: 6.00 Build 0)  -->
<svg version="1.1" id="Calque_1" xmlns="http://www.w3.org/2000/svg" xmlns:xlink="http://www.w3.org/1999/xlink" x="0px" y="0px"
	 viewBox="0 0 1000 1000" style="enable-background:new 0 0 1000 1000;" xml:space="preserve">
<style type="text/css">
	.st0{fill:#FFFFFF;stroke:#000000;stroke-width:13;stroke-miterlimit:10;}
</style>
<g>
	<path d="M234.6,258.78c0.72,2.02,1.44,4.04,2.23,6.27c-0.28,0.09-1.08,0.33-2.36,0.73c-0.71,11.53-1.51,23.24-2.14,34.95
		c-0.66,12.31-1.17,24.62-1.73,36.93c-0.07,1.63-0.06,3.27-0.06,4.9c0,35.98-0.09,71.95,0.02,107.93
		c0.13,41.41,0.38,82.83,0.67,124.24c0.31,43.95,0.61,87.91,1.13,131.86c0.19,16.5,0.97,33,1.5,49.5c0.02,0.52,0.23,1.03,0.43,1.86
		c0.79,0.16,1.63,0.46,2.47,0.48c13.96,0.3,27.93,0.82,41.89,0.77c14.32-0.05,28.66-0.3,42.95-1.15c9.56-0.57,19.08-2.32,28.7-1.72
		c10.11,0.62,20.2,1.55,30.3,2.36c2.16,0.17,4.31,0.47,6.47,0.59c14.64,0.84,29.3,1.46,43.92,2.52c19.72,1.42,39.45,1.94,59.22,1.87
		c18.71-0.06,37.45-0.38,56.13,0.36c49.57,1.97,99.14,0.39,148.71,1.02c11.23,0.14,22.47,0.66,33.69,1.11
		c1.95,0.08,3.88,0.71,5.98,1.11c-0.2,2.53-1.74,2.6-3.44,2.43c-2.85-0.28-5.7-0.83-8.54-0.82c-43.06,0.03-86.12,0.16-129.18,0.2
		c-14.72,0.01-29.43-0.1-44.15-0.25c-30.87-0.32-61.74-0.46-92.6-1.19c-15.01-0.35-29.99-1.87-44.99-2.8
		c-3.08-0.19-6.18-0.03-9.26-0.25c-14.26-1.04-28.49-2.61-42.77-3.11c-11.2-0.4-22.45,0.49-33.68,0.8
		c-0.91,0.03-1.82,0.07-2.72,0.08c-27.23,0.35-54.47,0.69-81.7,1.03c-2.16,0.03-4.31,0-7.21,0c0.21,27.83,3.96,55.22,1.58,82.69
		l0.08-0.08c-1.95,1.62-3.82,3.65-6.48,1.53c2.15-27.99-1.24-55.72-1.64-84.08c-6.93,0-13.41-0.06-19.9,0.02
		c-6.51,0.07-13.09,1.02-19.31-1.85c-9.48,0.88-18.6-2.3-27.97-2.48c-4.3-0.09-8.62,0.76-12.8,1.17c-1.75,3.44-3.37,6.64-5.07,10
		c2.22,6.54,2.12,6.66,5.86,9.88c16.63,14.3,32.12,29.92,50.26,42.49c5.45,3.78,9.88,9.03,14.81,13.59
		c1.17,1.08,2.44,2.04,3.66,3.06c2.41,2.02,2.78,4.41,0.84,7.97c-1.24-1.1-2.66-1.92-3.47-3.15c-5.69-8.64-13.4-15.17-21.6-21.28
		c-10.92-8.13-21.47-16.69-31.04-26.44c-7.36-7.5-15.21-14.53-22.78-21.83c-1.37-1.32-2.43-2.98-4.1-5.07
		c1.94-0.47,3.04-0.74,4.21-1.02c0.3-3.13,0.08-6.18,2.49-9.08c1.26-1.51,0.33-4.88,0.33-7.41c0.01-10.87-0.05-21.74,0.03-32.61
		c0.03-4.17,0.48-8.34,0.52-12.5c0.09-7.99-0.05-15.99,0.04-23.99c0.17-14.34,0.67-28.68,0.62-43.02
		c-0.1-28.47-1.7-56.85-5.88-85.05c-0.48-3.22-0.46-6.51-0.6-9.77c-0.26-6.52-0.7-13.05-0.64-19.57c0.1-11.43,0.5-22.86,0.79-34.29
		c0.06-2.36,0.18-4.71,0.24-7.07c0.37-15.05,0.39-30.13,1.2-45.16c0.91-16.98,2.62-33.92,3.76-50.9c0.47-7.06-0.12-14.2,0.59-21.22
		c2.96-29.52,0.63-59.16,2.26-88.68c1.36-24.66,1.81-49.31,2.04-73.98c0.01-0.69,0.16-1.38,0.76-2.12c0.17,0.75,0.47,1.49,0.48,2.24
		c0.27,14.52,1.26,29.08,0.61,43.56c-1.48,33.23-0.11,66.47-1.16,99.68c-0.51,16.11-1.37,32.23-2.07,48.35
		c-0.63,14.46-2.12,28.89-3.08,43.34c-0.44,6.69-0.61,13.4-0.74,20.11c-0.21,10.71-0.21,21.43-0.46,32.14
		c-0.24,10.33-1.04,20.66-0.98,30.99c0.08,15.4,0.65,30.77,2.48,46.11c1.57,13.11,2.31,26.33,3.26,39.51
		c0.52,7.23,0.83,14.47,1,21.71c0.12,5.07-0.21,10.16-0.26,15.24c-0.05,6.18,0.04,12.36-0.03,18.54
		c-0.34,28.32-0.73,56.64-1.05,84.96c-0.03,2.67,0.32,5.34,0.52,8.29c4.03-0.55,7.57-1.15,11.14-1.49
		c4.72-0.45,9.35-0.01,13.96,1.37c2.32,0.69,4.91,0.69,7.37,0.66c4.72-0.06,9.28,0.34,13.98,1.25c5.61,1.07,11.53,0.66,17.31,0.61
		c4.7-0.04,9.39-0.48,14.08-0.77c0.87-0.05,1.73-0.25,3.14-0.47c0-6.63,0.14-13.13-0.04-19.63c-0.21-7.79-0.87-15.57-0.99-23.36
		c-0.28-18.34-0.41-36.68-0.5-55.02c-0.13-26.52-0.13-53.04-0.26-79.55c-0.09-17.98-0.37-35.97-0.48-53.95
		c-0.22-35.61-0.44-71.21-0.57-106.82c-0.09-24.17-0.14-48.34,0.03-72.51c0.1-13.6,0.53-27.21,1.11-40.79
		c0.46-10.67,1.46-21.32,2.02-31.99c0.12-2.22-0.71-4.47-0.97-6.72c-0.12-1.03-0.06-2.13,0.18-3.14c0.37-1.55,0.97-3.04,1.55-4.79
		c-1.51-0.78-2.72-1.54-4.02-2.06c-8.19-3.28-15.25-8.29-21.93-13.96c-3.46-2.93-6.95-5.89-10.76-8.32
		c-6.81-4.34-12.64-9.73-18-15.68c-3.8-4.22-7.93-7.83-13.25-10.18c-3.31-1.46-7.16-2.8-8.34-7.84c1.5,0.1,2.61,0.11,3.69,0.27
		c3.2,0.48,6.38,1.43,9.58,1.46c11.99,0.09,23.97-0.02,35.96-0.24c12.33-0.24,24.67-0.4,36.97-1.13c20.03-1.2,40.07-2.33,59.89-5.99
		c9.21-1.7,18.7-2.03,28.09-2.6c10.13-0.62,20.31-0.47,30.42-1.24c9.73-0.74,19.39-2.29,29.1-3.36c7.01-0.77,14.03-1.6,21.07-1.94
		c18.28-0.88,36.57-1.51,54.86-2.24c9.05-0.36,18.1-0.9,27.16-1.05c23.23-0.37,46.47-0.38,69.7-0.92
		c10.12-0.24,20.2-1.78,30.32-2.08c20.13-0.6,40.28-1.21,60.4-0.94c14.27,0.19,28.51,1.86,42.77,2.78
		c8.68,0.56,17.36,1.08,26.05,1.35c3.15,0.1,6.32,1.46,9.55-0.07c0.75-0.35,2.09,0.34,3.08,0.74c9.06,3.65,18.19,7.14,27.12,11.09
		c4.77,2.11,9.33,4.81,13.74,7.63c9.31,5.97,18.6,11.86,28.65,16.65c8.3,3.96,15.9,9.37,23.87,14.05c3.6,2.11,6.67,5.1,11.61,4.72
		c1.77-0.14,3.78,2.96,6.31,5.11c-1.81,0.45-2.77,0.92-3.72,0.9c-11.81-0.2-23.44,1.2-35.13,2.78c-7.27,0.98-14.83-0.14-22.26-0.29
		c-3.63-0.07-7.25-0.09-10.88-0.14c-10.17-0.13-20.34-0.26-30.52-0.39c-1.79-0.02-3.57,0-6.06,0c0.25,3.27,0.34,6.09,0.69,8.89
		c1.61,12.56,3.62,25.08,4.86,37.68c0.96,9.73,0.93,19.55,1.44,29.32c0.5,9.76,1.21,19.51,1.67,29.28
		c0.3,6.34,0.21,12.71,0.52,19.05c0.59,12.3,1.61,24.59,1.94,36.9c0.52,19.78,0.95,39.57,0.78,59.35
		c-0.11,13.03-1.16,26.06-2.09,39.07c-3.35,46.97-1.56,94.01-2.25,141.02c-0.27,18.47-1.94,36.91-2.63,55.37
		c-0.37,9.8-0.13,19.62,0.05,29.43c0.12,6.71,0.33,13.43,1.01,20.1c0.51,5.07-0.03,10.4,3.2,15.43c-3.38,0.06-4.17-2.02-4.52-4.04
		c-1.01-5.88-2.18-11.78-2.56-17.72c-0.69-10.86-1.28-21.75-1.12-32.62c0.18-11.76,1.32-23.5,1.95-35.26
		c0.29-5.44,0.42-10.88,0.5-16.32c0.26-17.24,0.6-34.49,0.66-51.73c0.03-10.71-0.78-21.42-0.55-32.12
		c0.39-17.77,1.24-35.52,2.05-53.28c0.62-13.57,1.19-27.16,2.3-40.7c1.78-21.59,0.93-43.2,0.89-64.79
		c-0.02-11.39-1.36-22.78-1.98-34.17c-0.49-8.87-0.76-17.75-1.18-26.62c-0.69-14.66-1.43-29.31-2.14-43.97
		c-0.38-7.78-0.42-15.6-1.18-23.34c-0.98-10.09-2.52-20.12-3.83-30.17c-0.63-4.81-1.29-9.61-1.95-14.56
		c-6.61-0.47-13.08-1.26-19.56-1.33c-16.16-0.19-32.34-0.25-48.5,0.02c-7.57,0.12-15.13,1.12-22.7,1.7
		c-1.08,0.08-2.17,0.09-3.26,0.14c-40.29,1.77-80.61,1.06-120.91,1.48c-14.8,0.16-29.58,2.18-44.39,2.7
		c-11.04,0.39-22.11-0.17-33.16-0.52c-9.77-0.3-19.54-1-29.31-1.34c-14.5-0.5-29-1.15-43.5-1.14c-13.23,0.01-26.47,0.57-39.67,1.36
		c-8.46,0.5-16.85,2.06-25.31,2.78c-7.93,0.67-15.91,0.97-23.87,1.2c-11.97,0.34-23.78,1.89-35.45,4.53
		c-2.1,0.48-4.22,0.85-6.33,1.27c0.21-2.87,2.12-3.79,4.61-4.49c11.75-3.28,23.77-4.64,35.89-5.42c11.39-0.73,22.78-1.52,34.16-2.39
		c11.19-0.85,22.36-2.32,33.56-2.65c19.59-0.58,39.19-1,58.79,0.6c10.83,0.88,21.74,0.92,32.61,1.39c4.52,0.2,9.04,0.67,13.56,0.76
		c6.17,0.13,12.37,0.3,18.53-0.06c13.01-0.76,25.99-2.23,39-2.7c14.88-0.53,29.79-0.24,44.69-0.4c18.69-0.21,37.39-0.32,56.07-0.84
		c18.11-0.5,36.21-1.91,54.33-2.1c20.5-0.22,41,0.47,61.51,0.75c2.67,0.04,5.34,0.01,8.4,0.01c-0.18-3.4-0.46-6.41-0.47-9.42
		c-0.06-12.36-0.04-24.71-0.03-37.07c0-2.94,0-5.85-2.19-7.65c-5.62-0.5-10.82-1.12-16.04-1.4c-16.1-0.87-32.2-1.92-48.31-2.31
		c-21.22-0.51-42.46-1.61-63.69-0.1c-2.35,0.17-4.74,0-7.07,0.28c-18.37,2.23-36.79,3.2-55.31,3.21
		c-22.69,0.02-45.38,0.44-68.06,0.99c-16.67,0.41-33.34,1.18-50,2.06c-11.21,0.59-22.51,0.87-33.56,2.62
		c-21.92,3.47-43.99,4.1-66.07,4.98c-5.6,0.22-11.26,0.5-16.76,1.52c-19.8,3.67-39.78,5.51-59.87,6.29c-3.99,0.15-8,0.01-11.99,0.13
		c-18.85,0.59-37.7,1.23-56.55,1.83c-1.91,0.06-3.83,0.01-6.55,0.01c4.96,5.15,8.82,9.95,13.45,13.82
		c11.54,9.63,23.31,19.01,35.27,28.12c3.84,2.92,8.39,5.21,12.96,6.7C231.43,256.64,233.12,257.29,234.6,258.78z M825.74,240.45
		c-0.57-0.82-0.77-1.39-1.16-1.64c-6.52-4.24-12.78-8.98-19.66-12.53c-10.3-5.31-20.97-10.04-30.1-17.23
		c-12.85-10.12-27.9-15.61-42.72-21.91c0.21,3.06,0.54,5.92,0.57,8.79c0.09,12.51,0.07,25.03,0.16,37.54
		c0.02,2.51,0.32,5.02,0.53,8.03c3.27,0.32,6.29,0.78,9.33,0.88c9.06,0.29,18.12,0.53,27.19,0.64c13.2,0.15,26.41,1.63,39.6-0.5
		c3.91-0.63,7.91-0.77,11.85-1.21C822.7,241.15,824.07,240.78,825.74,240.45z"/>
	<path d="M236.08,846.09c2.43-0.34,4.89-0.56,7.29-1.03c11.75-2.26,23.55-3.95,35.56-4.04c4.7-0.03,9.39-0.75,14.09-0.71
		c20.14,0.16,40.28,0.74,60.42,0.65c10.84-0.05,21.67-1.15,32.51-1.74c3.26-0.18,6.53-0.28,9.8-0.32
		c23.04-0.29,46.09-0.81,69.13-0.76c43.76,0.08,87.52,0.41,131.28,0.77c26.13,0.22,52.26,0.9,78.4,1
		c18.87,0.07,37.74-0.78,56.6-0.63c14.29,0.11,28.58,1.17,42.87,1.76c3.99,0.16,7.99,0.09,11.98,0.21
		c12.86,0.38,25.73,0.8,38.59,1.19c1.76,0.05,3.52,0.01,6.05,0.01c-0.93-1.02-1.18-1.5-1.57-1.69
		c-16.92-7.98-30.06-20.67-42.61-34.11c-5.97-6.4-12.59-11.93-20.26-16.32c-5.77-3.3-11.01-7.52-16.57-11.2
		c-2.56-1.69-5.38-2.99-8.01-4.59c-1.29-0.78-2.42-1.83-4.2-3.2c2.66-1.48,4.59-1.55,6.31-0.56c3.28,1.89,6.41,4.03,9.58,6.09
		c5.46,3.56,10.79,7.32,16.38,10.66c7.41,4.41,13.69,9.98,19.49,16.35c10.52,11.54,21.55,22.59,35.01,30.82
		c3.03,1.85,6.3,3.33,10.21,5.38c-0.17-2.71-0.38-4.47-0.37-6.22c0.07-14.16,0.21-28.33,0.26-42.49
		c0.06-14.72-0.34-29.45,0.16-44.15c0.56-16.47,0.61-32.97,2.64-49.39c1.07-8.61,1.1-17.35,1.62-26.03
		c0.55-9.22,1.18-18.43,1.67-27.65c0.26-4.89,0.11-9.81,0.49-14.69c1.84-23.17,2.33-46.36,2.25-69.6
		c-0.18-49.97,0.08-99.94-0.15-149.9c-0.06-12.66-1.3-25.32-2.03-37.98c-0.35-6.15-0.65-12.3-1.15-18.44
		c-1-12.09-2.12-24.17-3.18-36.26c-0.06-0.72-0.07-1.45-0.07-2.18c-0.14-20.53-0.29-41.05-0.39-61.58
		c-0.01-2.21-0.52-4.66,2.07-6.74c0.32,1.24,0.66,2.02,0.69,2.82c0.09,1.99,0.03,4,0.06,5.99c0.36,22.32,0.4,44.65,1.22,66.96
		c0.46,12.46,2.22,24.88,3.36,37.32c0.33,3.61,0.66,7.22,0.84,10.83c1.09,22.1,2.1,44.19,1.96,66.34
		c-0.18,28.52,0.24,57.04,0.22,85.56c-0.01,27.43-0.09,54.87-0.46,82.29c-0.15,10.85-1.26,21.69-1.78,32.54
		c-0.56,11.59-0.8,23.19-1.44,34.78c-0.73,13.19-1.76,26.37-2.63,39.55c-0.25,3.8-0.49,7.6-0.58,11.41
		c-0.28,11.61-0.52,23.21-0.7,34.82c-0.39,25.59-0.78,51.18-1.03,76.77c-0.02,2.6,0.82,5.25,1.54,7.79
		c0.76,2.66,0.27,3.82-2.52,3.92c-4.36,0.16-8.72,0.08-13.08,0.05c-10.72-0.07-21.47,0.4-32.14-0.34
		c-34.62-2.41-69.27-2.12-103.93-2.08c-23.98,0.03-47.96,0.24-71.94,0.23c-47.6-0.03-95.21-0.09-142.81-0.27
		c-17.78-0.07-35.56-0.84-53.33-0.7c-13.2,0.11-26.39,1.3-39.6,1.75c-9.98,0.34-19.98,0.35-29.97,0.34
		c-17.26-0.02-34.52-0.21-51.78-0.26c-9.78-0.03-19.6-0.39-29.34,0.24c-10.44,0.67-20.82,2.33-31.23,3.55
		c-0.51,0.06-1.02,0.05-2.02,0.1c0.13-1.15,0.24-2.11,0.36-3.07C236.16,846,236.08,846.09,236.08,846.09z"/>
	<path d="M168.75,195.78c0.57,1.6,1.13,3.2,1.7,4.81c-0.31,0.11-0.62,0.22-0.93,0.34c-0.59-1.59-1.18-3.19-1.77-4.78
		C168.08,196.02,168.41,195.9,168.75,195.78z"/>
</g>
</svg>
