<?xml version="1.0" encoding="utf-8"?>
<!-- Generator: Adobe Illustrator 24.3.0, SVG Export Plug-In . SVG Version: 6.00 Build 0)  -->
<svg version="1.1" id="Calque_1" xmlns="http://www.w3.org/2000/svg" xmlns:xlink="http://www.w3.org/1999/xlink" x="0px" y="0px"
	 viewBox="0 0 1000 1000" style="enable-background:new 0 0 1000 1000;" xml:space="preserve">
<style type="text/css">
	.st0{fill:#FFFFFF;stroke:#000000;stroke-width:13;stroke-miterlimit:10;}
</style>
<g>
	<path d="M751.06,329.12c-0.27,5.69-1.76,9.37-5.48,12.43c-20.05,16.47-39.69,33.4-58.17,51.67c-13.54,13.39-27.87,26-41.91,38.88
		c-14.44,13.25-29.13,26.23-43.39,39.66c-16.79,15.81-33.49,31.73-49.79,48.05c-59.18,59.29-118.26,118.68-177.19,178.22
		c-13.79,13.93-26.8,28.62-40.28,42.85c-7.49,7.91-15.21,15.62-22.86,23.38c-0.88,0.89-1.89,1.79-3.02,2.29
		c-18.04,8.02-36.07,16.04-54.17,23.91c-26.24,11.41-52.52,22.72-78.81,34.03c-5.33,2.29-10.78,4.28-16.11,6.56
		c-2.12,0.91-3.97,2.49-6.11,3.35c-1.52,0.61-3.68,1.23-4.9,0.59c-1.28-0.67-2.45-2.84-2.45-4.35c0-2.84,0.68-5.74,1.43-8.52
		c2.57-9.44,5.06-18.91,8-28.23c6.79-21.61,13.44-43.27,20.88-64.66c5.95-17.11,13.61-33.63,19.25-50.83
		c2.9-8.86,9.47-14.27,14.77-20.88c30.88-38.48,66.67-72.33,101.54-107.03c28.85-28.7,57.96-57.14,86.86-85.8
		c22.19-22.01,43.98-44.42,66.39-66.19c17.32-16.82,35.32-32.93,53.04-49.33c11.46-10.6,23.09-21.03,34.41-31.77
		c12.91-12.25,25.16-25.21,38.45-37.03c14.35-12.77,29.56-24.56,44.38-36.79c0.8-0.66,1.86-1.25,2.26-2.12
		c2.28-4.93,4.85-6.03,9.39-3.17c3.35,2.11,6.51,4.64,9.39,7.35c11.9,11.2,23.62,22.59,35.53,33.79c2.63,2.47,5.72,4.45,8.59,6.66
		c13.51,10.4,27.06,20.76,40.51,31.25c2.85,2.22,5.55,4.73,7.91,7.46C750.56,326.15,750.77,328.31,751.06,329.12z M307.51,750.9
		c0.39,0.17,0.77,0.33,1.16,0.5c2.01-2.28,4.02-4.56,6.04-6.84c14.8-16.7,29.06-33.92,44.53-49.98
		c21.04-21.85,42.98-42.85,64.57-64.16c14.49-14.3,29.14-28.42,43.55-42.8c26.24-26.18,52.24-52.61,78.56-78.71
		c17.8-17.65,35.84-35.06,54.05-52.3c13.71-12.98,27.96-25.38,41.76-38.26c13.93-13.01,27.61-26.3,41.39-39.48
		c3.67-3.52,7.12-7.29,10.96-10.61c14.95-12.92,30.02-25.7,45.47-38.9c-34.77-21.88-65.31-49.53-94.14-79.02
		c-1.69,1.93-2.83,3.6-4.31,4.87c-5.77,4.97-11.74,9.71-17.45,14.73c-11.44,10.07-22.89,20.14-34.1,30.45
		c-8.95,8.23-17.45,16.97-26.37,25.24c-14.24,13.2-28.75,26.11-43,39.31c-19.97,18.51-39.94,37.02-59.64,55.82
		c-10.12,9.65-19.59,19.98-29.46,29.9c-41.28,41.48-82.69,82.84-123.88,124.41c-22.76,22.97-45.22,46.24-67.76,69.42
		c-4.24,4.36-8.21,8.99-13.24,14.52c5.18,0,9.09-0.06,13,0.02c3.84,0.07,4.4,0.89,3.46,4.68c-0.04,0.18-0.14,0.34-0.18,0.51
		c-3.25,12.63-6.52,25.26-9.73,37.9c-0.28,1.1-0.27,2.27-0.45,3.93c11.18-3.19,21.78-6.23,32.4-9.21c1.55-0.43,3.19-0.77,4.79-0.78
		c2.72-0.01,3.65,1.3,2.82,3.85c-0.5,1.54-1.58,2.92-1.93,4.48c-2.21,9.89-4.3,19.81-6.38,29.73c-0.14,0.65,0.15,1.4,0.26,2.23
		c7.47-1.99,14.7-4.3,22.09-5.78c7.31-1.47,14.45-4.4,22.68-3.83C308.5,735.15,308.01,743.02,307.51,750.9z M297.94,735.36
		c-13.92,2.81-27.24,6.47-38.95,14.58c-4.7-5.04-4.58-10.38-3.3-15.77c1.97-8.27,4.24-16.47,6.36-24.7c0.29-1.13,0.44-2.29,0.7-3.67
		c-1.01,0.14-1.55,0.14-2.04,0.29c-9.97,3.24-19.89,6.66-29.92,9.69c-8.54,2.58-7.19,2.71-12.16-4.37c-0.18-0.26-0.12-0.69-0.13-0.8
		c1.01-2.14,2.16-4.02,2.8-6.06c2.55-8.1,4.92-16.25,7.39-24.38c1.44-4.75,2.87-9.49,3.14-14.45c-3,0.33-5.73,0.24-8.2,1
		c-3.75,1.15-7.36,2.47-10.47,5.36c-5.98,5.56-10.09,11.82-12.65,19.74c-4.74,14.63-10.71,28.86-15.89,43.36
		c-5.66,15.84-11,31.79-16.52,47.78c4.98,4.07,9.48,8.26,14.5,11.7c4.24,2.91,6.85,6.75,9.04,11.53
		c33.7-17.33,69.33-30.13,104.62-44.34C296.81,753.16,297.37,744.36,297.94,735.36z"/>
	<path d="M757.48,332.33c-4.76-4.95-5.23-6.75-1.49-10.35c11.22-10.81,19.37-24.49,32.23-33.81c3.38-2.45,5.71-6.45,8.19-9.97
		c1.67-2.38,1.16-4.98,0-7.73c-2.58-6.14-6.55-11.27-10.93-16.12c-8.87-9.82-17.77-19.6-26.84-29.24c-2.72-2.89-5.89-5.38-9.04-7.82
		c-14.78-11.44-29.6-22.82-44.47-34.14c-1.44-1.1-3.28-1.67-4.65-2.35c-0.9,0.82-1.32,1.01-1.4,1.29
		c-1.42,5.21-4.87,8.72-9.28,11.56c-3.5,2.26-6.78,4.87-10.24,7.19c-12.63,8.48-23.29,19.02-32.58,31
		c-1.58,2.04-2.58,5.28-6.24,3.48c-3.01-1.48-4.81-6.93-3.2-10c0.92-1.75,2.09-3.45,3.46-4.87c5.14-5.36,10.2-10.84,15.69-15.82
		c7.39-6.69,15.14-12.98,22.77-19.4c1.66-1.4,3.43-2.68,5.24-3.9c5.7-3.86,8.42-4.12,14.87-1.45c3.03-3.8,6.3-2.28,9.92-0.41
		c16.95,8.73,33.2,18.66,49.06,29.18c11.87,7.87,21.62,18.21,30.85,29c2.83,3.31,5.51,6.74,8.49,9.91
		c5.19,5.51,8.78,12.03,11.75,18.83c2.22,5.07,0.61,10.34-1.08,15.35c-1.68,4.98-5.12,8.74-9.02,12.06
		c-4.28,3.64-8.74,7.07-13.03,10.71c-2.9,2.46-5.87,4.91-8.41,7.72c-4.14,4.57-8.18,9.09-13.44,12.54
		C761.93,326.54,760.02,329.58,757.48,332.33z"/>
</g>
</svg>
